SplineFontDB: 3.0
FontName: ArundinaSerif-Bold
FullName: Arundina Serif Bold
FamilyName: Arundina Serif
Weight: Bold
Copyright: Copyright (c) 2003 by Bitstream, Inc. All Rights Reserved.\nCopyright (c) 2007 by Software Industry Promotion Agency (Public Organization). All Rights Reserved.
Version: 2.24
ItalicAngle: 0
UnderlinePosition: -153
UnderlineWidth: 102
Ascent: 1638
Descent: 410
LayerCount: 2
Layer: 0 1 "Back"  1
Layer: 1 1 "Fore"  0
XUID: [1021 375 425136265 5684599]
FSType: 0
OS2Version: 2
OS2_WeightWidthSlopeOnly: 0
OS2_UseTypoMetrics: 1
CreationTime: 1131289380
ModificationTime: 1328954854
PfmFamily: 17
TTFWeight: 700
TTFWidth: 5
LineGap: 12
VLineGap: 0
Panose: 2 11 3 0 2 2 2 2 2 4
OS2TypoAscent: 0
OS2TypoAOffset: 1
OS2TypoDescent: 0
OS2TypoDOffset: 1
OS2TypoLinegap: 0
OS2WinAscent: 0
OS2WinAOffset: 1
OS2WinDescent: 0
OS2WinDOffset: 1
HheadAscent: 0
HheadAOffset: 1
HheadDescent: 0
HheadDOffset: 1
OS2SubXSize: 1434
OS2SubYSize: 1331
OS2SubXOff: 0
OS2SubYOff: 287
OS2SupXSize: 1434
OS2SupYSize: 1331
OS2SupXOff: 0
OS2SupYOff: 977
OS2StrikeYSize: 102
OS2StrikeYPos: 512
OS2FamilyClass: 261
OS2Vendor: 'BLWK'
Lookup: 4 0 0 "'frac' Diagonal Fractions in Latin lookup 0"  {"'frac' Diagonal Fractions in Latin lookup 0 subtable"  } ['frac' ('latn' <'dflt' > ) ]
Lookup: 6 0 0 "'liga' Standard Ligatures in Latin lookup 1"  {"'liga' Standard Ligatures in Latin lookup 1 subtable"  } ['liga' ('latn' <'dflt' > 'thai' <'dflt' > ) ]
Lookup: 6 0 0 "'liga' Standard Ligatures in Latin lookup 2"  {"'liga' Standard Ligatures in Latin lookup 2 subtable"  } ['liga' ('latn' <'dflt' > 'thai' <'dflt' > ) ]
Lookup: 6 0 0 "'liga' Standard Ligatures in Latin lookup 3"  {"'liga' Standard Ligatures in Latin lookup 3 subtable"  } ['liga' ('latn' <'dflt' > 'thai' <'dflt' > ) ]
Lookup: 6 0 0 "'liga' Standard Ligatures in Latin lookup 4"  {"'liga' Standard Ligatures in Latin lookup 4 subtable"  } ['liga' ('latn' <'dflt' > 'thai' <'dflt' > ) ]

StartChar: .notdef
Encoding: 373 -1 0
Width: 1083
VWidth: 3198
Flags: W
HStem: 0 162<253 839> 1331 162<253 836>
VStem: 0 162<323 1171> 918 166<326 1163>
DStem2: 281 1285 162 1171 0.557167 -0.830401<28.3628 468.162 713.972 1151.27> 162 323 329 278 0.555842 0.831288<0 442.874 685.605 1118.5>
LayerCount: 2
Fore
SplineSet
0 1493 m 1,0,-1
 1084 1493 l 1,1,-1
 1084 0 l 1,2,-1
 0 0 l 1,3,-1
 0 1493 l 1,0,-1
839 162 m 1,4,5
 800 220 800 220 763 273 c 128,-1,6
 726 326 726 326 691 378.5 c 128,-1,7
 656 431 656 431 619.5 485.5 c 128,-1,8
 583 540 583 540 543 601 c 1,9,10
 503 543 503 543 467 491 c 128,-1,11
 431 439 431 439 397.5 386 c 128,-1,12
 364 333 364 333 329 278 c 128,-1,13
 294 223 294 223 253 162 c 1,14,-1
 839 162 l 1,4,5
836 1331 m 1,15,-1
 253 1331 l 1,16,-1
 281 1285 l 2,17,18
 314 1235 314 1235 346 1188.5 c 128,-1,19
 378 1142 378 1142 408.5 1094 c 128,-1,20
 439 1046 439 1046 471 998 c 128,-1,21
 503 950 503 950 540 895 c 1,22,-1
 836 1331 l 1,15,-1
162 323 m 1,23,24
 234 428 234 428 301.5 532.5 c 128,-1,25
 369 637 369 637 445 748 c 1,26,27
 403 809 403 809 369.5 859 c 128,-1,28
 336 909 336 909 304 958 c 128,-1,29
 272 1007 272 1007 238.5 1057 c 128,-1,30
 205 1107 205 1107 162 1171 c 1,31,-1
 162 323 l 1,23,24
918 326 m 1,32,-1
 918 1163 l 1,33,34
 882 1110 882 1110 848.5 1058.5 c 128,-1,35
 815 1007 815 1007 780 958 c 128,-1,36
 745 909 745 909 711.5 856 c 128,-1,37
 678 803 678 803 640 748 c 1,38,-1
 918 326 l 1,32,-1
EndSplineSet
EndChar

StartChar: exclam
Encoding: 2 33 4
Width: 897
VWidth: 3198
Flags: W
HStem: -28 379<328.093 569.689> 1473 20G<262 637>
VStem: 259 381<41.7422 281.875> 378 140<461 754.195>
LayerCount: 2
Fore
SplineSet
259 162 m 128,-1,1
 259 241 259 241 315.5 296 c 128,-1,2
 372 351 372 351 448 351 c 256,3,4
 525 351 525 351 582.5 296 c 128,-1,5
 640 241 640 241 640 162 c 128,-1,6
 640 83 640 83 582.5 27.5 c 128,-1,7
 525 -28 525 -28 448 -28 c 256,8,9
 372 -28 372 -28 315.5 27.5 c 128,-1,0
 259 83 259 83 259 162 c 128,-1,1
262 1493 m 1,10,-1
 637 1493 l 1,11,-1
 518 653 l 1,12,-1
 518 461 l 1,13,-1
 378 461 l 1,14,-1
 378 653 l 1,15,-1
 262 1493 l 1,10,-1
EndSplineSet
EndChar

StartChar: quotedbl
Encoding: 3 34 5
Width: 1063
VWidth: 3198
Flags: W
HStem: 937 556<195 431 634 873>
VStem: 195 236<937 1493> 634 239<937 1493>
LayerCount: 2
Fore
SplineSet
431 1493 m 1,0,-1
 431 937 l 1,1,-1
 195 937 l 1,2,-1
 195 1493 l 1,3,-1
 431 1493 l 1,0,-1
873 1493 m 1,4,-1
 873 937 l 1,5,-1
 634 937 l 1,6,-1
 634 1493 l 1,7,-1
 873 1493 l 1,4,-1
EndSplineSet
EndChar

StartChar: numbersign
Encoding: 4 35 6
Width: 1713
VWidth: 3198
Flags: W
HStem: 0 21G<320 548.052 809 1034.05> 384 214<141 419 690 906 1178 1462> 873 211<253 537 815 1023 1298 1577>
DStem2: 320 0 543 0 0.243311 0.969948<54.2584 396.548 670.054 899.563 1171.86 1516.09> 809 0 1029 0 0.241449 0.970414<53.1188 396.059 669.402 898.841 1170 1515.61>
LayerCount: 2
Fore
SplineSet
1023 873 m 1,0,-1
 757 873 l 1,1,-1
 690 598 l 1,2,-1
 953 598 l 1,3,-1
 1023 873 l 1,0,-1
912 1471 m 1,4,-1
 815 1084 l 1,5,-1
 1078 1084 l 1,6,-1
 1174 1471 l 1,7,-1
 1395 1471 l 1,8,-1
 1298 1084 l 1,9,-1
 1577 1084 l 1,10,-1
 1577 873 l 1,11,-1
 1248 873 l 1,12,-1
 1178 598 l 1,13,-1
 1462 598 l 1,14,-1
 1462 384 l 1,15,-1
 1126 384 l 1,16,-1
 1029 0 l 1,17,-1
 809 0 l 1,18,-1
 906 384 l 1,19,-1
 640 384 l 1,20,-1
 543 0 l 1,21,-1
 320 0 l 1,22,-1
 419 384 l 1,23,-1
 141 384 l 1,24,-1
 141 598 l 1,25,-1
 467 598 l 1,26,-1
 537 873 l 1,27,-1
 253 873 l 1,28,-1
 253 1084 l 1,29,-1
 592 1084 l 1,30,-1
 687 1471 l 1,31,-1
 912 1471 l 1,4,-1
EndSplineSet
EndChar

StartChar: dollar
Encoding: 5 36 7
Width: 1422
VWidth: 3198
Flags: W
HStem: -28 111<441.638 647> 931 272<1054.46 1181> 1178 110<768 932.986>
VStem: 183 281<821.675 1087.3> 195 122<207.258 348> 647 121<-297 -28 83 458 839 1178 1288 1557> 973 281<177.403 459.994> 1062 119<931 1052.22>
LayerCount: 2
Fore
SplineSet
195 61 m 1,0,-1
 195 348 l 1,1,-1
 317 348 l 1,2,3
 333 214 333 214 411 148.5 c 128,-1,4
 489 83 489 83 634 83 c 2,5,-1
 647 83 l 1,6,-1
 647 489 l 1,7,8
 397 543 397 543 290 637.5 c 128,-1,9
 183 732 183 732 183 895 c 0,10,11
 183 1078 183 1078 304 1180 c 128,-1,12
 425 1282 425 1282 647 1288 c 1,13,-1
 647 1557 l 1,14,-1
 768 1557 l 1,15,-1
 768 1288 l 1,16,17
 879 1282 879 1282 981.5 1262 c 128,-1,18
 1084 1242 1084 1242 1181 1203 c 1,19,-1
 1181 931 l 1,20,-1
 1062 931 l 1,21,22
 1043 1046 1043 1046 967.5 1110 c 128,-1,23
 892 1174 892 1174 768 1178 c 1,24,-1
 768 806 l 1,25,26
 1037 745 1037 745 1145.5 646 c 128,-1,27
 1254 547 1254 547 1254 369 c 0,28,29
 1254 183 1254 183 1127.5 80.5 c 128,-1,30
 1001 -22 1001 -22 768 -28 c 1,31,-1
 768 -297 l 1,32,-1
 647 -297 l 1,33,-1
 647 -28 l 1,34,35
 537 -25 537 -25 424 -4.5 c 128,-1,36
 311 16 311 16 195 61 c 1,0,-1
647 1178 m 1,37,38
 559 1168 559 1168 511.5 1126 c 128,-1,39
 464 1084 464 1084 464 1020 c 0,40,41
 464 953 464 953 507 910 c 128,-1,42
 550 867 550 867 647 839 c 1,43,-1
 647 1178 l 1,37,38
768 83 m 1,44,45
 867 92 867 92 920 137.5 c 128,-1,46
 973 183 973 183 973 256 c 256,47,48
 973 330 973 330 924.5 377.5 c 128,-1,49
 876 425 876 425 768 458 c 1,50,-1
 768 83 l 1,44,45
EndSplineSet
EndChar

StartChar: percent
Encoding: 6 37 8
Width: 1944
VWidth: 3198
Flags: W
HStem: -28 98<1427.56 1581.9> 684 100<1423.33 1582.45> 707 99<362.839 522.354> 1420 100<362.839 522.354>
VStem: 48 272<895.311 1333.1> 562 274<894.04 1334.36> 1110 272<159.729 598.422> 1624 272<159.729 597.17>
DStem2: 419 -28 592 -28 0.516609 0.856221<89.3734 1807.43>
LayerCount: 2
Fore
SplineSet
442 1420 m 0,0,1
 378 1420 378 1420 349 1349.5 c 128,-1,2
 320 1279 320 1279 320 1113 c 256,3,4
 320 946 320 946 349 876 c 128,-1,5
 378 806 378 806 442 806 c 0,6,7
 509 806 509 806 535.5 876 c 128,-1,8
 562 946 562 946 562 1113 c 256,9,10
 562 1279 562 1279 535.5 1349.5 c 128,-1,11
 509 1420 509 1420 442 1420 c 0,0,1
442 1520 m 0,12,13
 634 1520 634 1520 735 1416 c 128,-1,14
 836 1312 836 1312 836 1113 c 0,15,16
 836 918 836 918 735 812.5 c 128,-1,17
 634 707 634 707 442 707 c 0,18,19
 253 707 253 707 150.5 812.5 c 128,-1,20
 48 918 48 918 48 1113 c 0,21,22
 48 1312 48 1312 150.5 1416 c 128,-1,23
 253 1520 253 1520 442 1520 c 0,12,13
1352 1520 m 1,24,-1
 1526 1520 l 1,25,-1
 592 -28 l 1,26,-1
 419 -28 l 1,27,-1
 1352 1520 l 1,24,-1
1504 784 m 0,28,29
 1691 784 1691 784 1793.5 680 c 128,-1,30
 1896 576 1896 576 1896 378 c 0,31,32
 1896 183 1896 183 1793.5 77.5 c 128,-1,33
 1691 -28 1691 -28 1504 -28 c 0,34,35
 1312 -28 1312 -28 1211 77.5 c 128,-1,36
 1110 183 1110 183 1110 378 c 0,37,38
 1110 576 1110 576 1211 680 c 128,-1,39
 1312 784 1312 784 1504 784 c 0,28,29
1504 684 m 0,40,41
 1437 684 1437 684 1409.5 613.5 c 128,-1,42
 1382 543 1382 543 1382 378 c 0,43,44
 1382 214 1382 214 1411 142 c 128,-1,45
 1440 70 1440 70 1504 70 c 256,46,47
 1568 70 1568 70 1596 142 c 128,-1,48
 1624 214 1624 214 1624 378 c 0,49,50
 1624 543 1624 543 1596 613.5 c 128,-1,51
 1568 684 1568 684 1504 684 c 0,40,41
EndSplineSet
EndChar

StartChar: ampersand
Encoding: 7 38 9
Width: 1847
VWidth: 3198
Flags: W
HStem: -28 156<628.511 998.483> 0 122<1641 1810> 793 122<1292 1474 1611.44 1794> 1398 122<733.474 1035.8>
VStem: 83 353<324.235 661.003> 339 329<1108.24 1335.27> 1129 128<1160 1297.5> 1474 144<591.031 793>
DStem2: 851 946 547 815 0.692058 -0.721842<-110.602 698.158 840.131 1017.13>
LayerCount: 2
Fore
SplineSet
1810 0 m 1,0,-1
 1334 0 l 1,1,-1
 1206 131 l 1,2,3
 1107 52 1107 52 985.5 12 c 128,-1,4
 864 -28 864 -28 720 -28 c 0,5,6
 422 -28 422 -28 252.5 99 c 128,-1,7
 83 226 83 226 83 451 c 0,8,9
 83 614 83 614 169.5 729.5 c 128,-1,10
 256 845 256 845 442 928 c 1,11,12
 390 995 390 995 364.5 1056 c 128,-1,13
 339 1117 339 1117 339 1174 c 0,14,15
 339 1337 339 1337 475 1428.5 c 128,-1,16
 611 1520 611 1520 860 1520 c 0,17,18
 934 1520 934 1520 1033 1506.5 c 128,-1,19
 1132 1493 1132 1493 1257 1471 c 1,20,-1
 1257 1160 l 1,21,-1
 1129 1160 l 1,22,23
 1110 1282 1110 1282 1051 1340 c 128,-1,24
 992 1398 992 1398 885 1398 c 0,25,26
 787 1398 787 1398 727.5 1350 c 128,-1,27
 668 1302 668 1302 668 1218 c 0,28,29
 668 1129 668 1129 851 946 c 0,30,31
 867 928 867 928 879 918 c 1,32,-1
 1340 436 l 1,33,34
 1398 503 1398 503 1431.5 592 c 128,-1,35
 1465 681 1465 681 1474 793 c 1,36,-1
 1292 793 l 1,37,-1
 1292 915 l 1,38,-1
 1794 915 l 1,39,-1
 1794 793 l 1,40,-1
 1618 793 l 1,41,42
 1599 650 1599 650 1554.5 536 c 128,-1,43
 1510 422 1510 422 1437 336 c 1,44,-1
 1641 122 l 1,45,-1
 1810 122 l 1,46,-1
 1810 0 l 1,0,-1
1113 230 m 1,47,-1
 547 815 l 1,48,49
 492 748 492 748 464 673 c 128,-1,50
 436 598 436 598 436 515 c 0,51,52
 436 345 436 345 543 236.5 c 128,-1,53
 650 128 650 128 812 128 c 0,54,55
 889 128 889 128 963 154 c 128,-1,56
 1037 180 1037 180 1113 230 c 1,47,-1
EndSplineSet
EndChar

StartChar: quotesingle
Encoding: 8 39 10
Width: 626
VWidth: 3198
Flags: W
HStem: 937 556<195 431>
VStem: 195 236<937 1493>
LayerCount: 2
Fore
SplineSet
431 1493 m 1,0,-1
 431 937 l 1,1,-1
 195 937 l 1,2,-1
 195 1493 l 1,3,-1
 431 1493 l 1,0,-1
EndSplineSet
EndChar

StartChar: parenleft
Encoding: 9 40 11
Width: 968
VWidth: 3198
Flags: W
HStem: 1534 20G<691 860>
VStem: 192 373<289.779 940.937>
LayerCount: 2
Fore
SplineSet
860 -320 m 1,0,1
 525 -195 525 -195 358.5 38.5 c 128,-1,2
 192 272 192 272 192 617 c 256,3,4
 192 962 192 962 357 1192.5 c 128,-1,5
 522 1423 522 1423 860 1554 c 1,6,-1
 860 1437 l 1,7,8
 704 1340 704 1340 634.5 1151 c 128,-1,9
 565 962 565 962 565 617 c 0,10,11
 565 275 565 275 634.5 86 c 128,-1,12
 704 -103 704 -103 860 -198 c 1,13,-1
 860 -320 l 1,0,1
EndSplineSet
EndChar

StartChar: parenright
Encoding: 10 41 12
Width: 968
VWidth: 3198
Flags: W
HStem: 1534 20G<106 275.5>
VStem: 400 375<289.779 940.937>
LayerCount: 2
Fore
SplineSet
106 -320 m 1,0,-1
 106 -198 l 1,1,2
 262 -103 262 -103 331 86 c 128,-1,3
 400 275 400 275 400 617 c 0,4,5
 400 962 400 962 331 1151 c 128,-1,6
 262 1340 262 1340 106 1437 c 1,7,-1
 106 1554 l 1,8,9
 445 1423 445 1423 610 1192.5 c 128,-1,10
 775 962 775 962 775 617 c 256,11,12
 775 272 775 272 608.5 38.5 c 128,-1,13
 442 -195 442 -195 106 -320 c 1,0,-1
EndSplineSet
EndChar

StartChar: asterisk
Encoding: 11 42 13
Width: 1071
VWidth: 3198
Flags: W
HStem: 1500 20G<445 626>
LayerCount: 2
Fore
SplineSet
1026 1212 m 1,0,-1
 665 1043 l 1,1,-1
 1026 873 l 1,2,-1
 928 720 l 1,3,-1
 601 959 l 1,4,-1
 626 570 l 1,5,-1
 445 570 l 1,6,-1
 470 959 l 1,7,-1
 144 720 l 1,8,-1
 45 873 l 1,9,-1
 406 1043 l 1,10,-1
 45 1212 l 1,11,-1
 144 1370 l 1,12,-1
 470 1129 l 1,13,-1
 445 1520 l 1,14,-1
 626 1520 l 1,15,-1
 601 1129 l 1,16,-1
 928 1370 l 1,17,-1
 1026 1212 l 1,0,-1
EndSplineSet
EndChar

StartChar: plus
Encoding: 12 43 14
Width: 1713
VWidth: 3198
Flags: W
HStem: 528 229<217 742 973 1496>
VStem: 742 231<3 528 757 1282>
LayerCount: 2
Fore
SplineSet
973 1282 m 1,0,-1
 973 757 l 1,1,-1
 1496 757 l 1,2,-1
 1496 528 l 1,3,-1
 973 528 l 1,4,-1
 973 3 l 1,5,-1
 742 3 l 1,6,-1
 742 528 l 1,7,-1
 217 528 l 1,8,-1
 217 757 l 1,9,-1
 742 757 l 1,10,-1
 742 1282 l 1,11,-1
 973 1282 l 1,0,-1
EndSplineSet
EndChar

StartChar: comma
Encoding: 13 44 15
Width: 712
VWidth: 3198
Flags: W
HStem: -339 659
VStem: 230 285<35.291 320>
LayerCount: 2
Fore
SplineSet
25 -195 m 1,0,1
 131 -112 131 -112 180.5 -10 c 128,-1,2
 230 92 230 92 230 234 c 2,3,-1
 230 320 l 1,4,-1
 515 320 l 1,5,-1
 515 311 l 2,6,7
 515 89 515 89 422.5 -70.5 c 128,-1,8
 330 -230 330 -230 137 -339 c 1,9,-1
 25 -195 l 1,0,1
EndSplineSet
EndChar

StartChar: hyphen
Encoding: 14 45 16
Width: 849
VWidth: 3198
Flags: W
HStem: 412 272<112 739>
VStem: 112 627<412 684>
LayerCount: 2
Fore
SplineSet
112 684 m 1,0,-1
 739 684 l 1,1,-1
 739 412 l 1,2,-1
 112 412 l 1,3,-1
 112 684 l 1,0,-1
EndSplineSet
EndChar

StartChar: period
Encoding: 15 46 17
Width: 712
VWidth: 3198
Flags: W
HStem: -28 379<234.501 479.054>
VStem: 166 381<39.9218 283.682>
LayerCount: 2
Fore
SplineSet
166 162 m 128,-1,1
 166 241 166 241 222 296 c 128,-1,2
 278 351 278 351 355 351 c 0,3,4
 436 351 436 351 491.5 296 c 128,-1,5
 547 241 547 241 547 162 c 128,-1,6
 547 83 547 83 491.5 27.5 c 128,-1,7
 436 -28 436 -28 355 -28 c 0,8,9
 278 -28 278 -28 222 27.5 c 128,-1,0
 166 83 166 83 166 162 c 128,-1,1
EndSplineSet
EndChar

StartChar: slash
Encoding: 16 47 18
Width: 748
VWidth: 3198
Flags: W
HStem: 1473 20G<518.769 748>
DStem2: 0 -192 220 -192 0.299017 0.954248<65.7836 1764.89>
LayerCount: 2
Fore
SplineSet
525 1493 m 1,0,-1
 748 1493 l 1,1,-1
 220 -192 l 1,2,-1
 0 -192 l 1,3,-1
 525 1493 l 1,0,-1
EndSplineSet
EndChar

StartChar: zero
Encoding: 17 48 19
Width: 1422
VWidth: 3198
Flags: W
HStem: -28 117<594.362 831.467> 1401 119<594.362 830.351>
VStem: 95 408<397.078 1094.32> 921 406<397.078 1092.47>
LayerCount: 2
Fore
SplineSet
714 89 m 256,0,1
 831 89 831 89 876 197 c 128,-1,2
 921 305 921 305 921 745 c 0,3,4
 921 1181 921 1181 876 1291 c 128,-1,5
 831 1401 831 1401 714 1401 c 256,6,7
 595 1401 595 1401 549 1294 c 128,-1,8
 503 1187 503 1187 503 745 c 256,9,10
 503 305 503 305 549 197 c 128,-1,11
 595 89 595 89 714 89 c 256,0,1
714 -28 m 0,12,13
 412 -28 412 -28 253.5 172 c 128,-1,14
 95 372 95 372 95 745 c 256,15,16
 95 1120 95 1120 253.5 1320 c 128,-1,17
 412 1520 412 1520 714 1520 c 0,18,19
 1010 1520 1010 1520 1168.5 1320 c 128,-1,20
 1327 1120 1327 1120 1327 745 c 256,21,22
 1327 372 1327 372 1168.5 172 c 128,-1,23
 1010 -28 1010 -28 714 -28 c 0,12,13
EndSplineSet
EndChar

StartChar: one
Encoding: 18 49 20
Width: 1422
VWidth: 3198
Flags: W
HStem: 0 122<281 559 940 1218> 1500 20G<590.281 940>
VStem: 559 381<122 1327>
DStem2: 250 1292 250 1145 0.853225 0.521543<0 281.901>
LayerCount: 2
Fore
SplineSet
281 0 m 1,0,-1
 281 122 l 1,1,-1
 559 122 l 1,2,-1
 559 1327 l 1,3,-1
 250 1145 l 1,4,-1
 250 1292 l 1,5,-1
 623 1520 l 1,6,-1
 940 1520 l 1,7,-1
 940 122 l 1,8,-1
 1218 122 l 1,9,-1
 1218 0 l 1,10,-1
 281 0 l 1,0,-1
EndSplineSet
EndChar

StartChar: two
Encoding: 19 50 21
Width: 1422
VWidth: 3198
Flags: W
HStem: 0 262<397 1104> 1401 119<388.258 705.424>
VStem: 150 119<1123 1271.24> 828 410<884.62 1267.69> 1104 138<262 439>
DStem2: 137 244 812 534 0.836366 0.548172<227.322 650.77>
LayerCount: 2
Fore
SplineSet
269 1123 m 1,0,-1
 150 1123 l 1,1,-1
 150 1446 l 1,2,3
 272 1480 272 1480 392 1500 c 128,-1,4
 512 1520 512 1520 634 1520 c 0,5,6
 918 1520 918 1520 1078 1402.5 c 128,-1,7
 1238 1285 1238 1285 1238 1078 c 0,8,9
 1238 931 1238 931 1150 814 c 128,-1,10
 1062 697 1062 697 812 534 c 2,11,-1
 397 262 l 1,12,-1
 1104 262 l 1,13,-1
 1104 439 l 1,14,-1
 1242 439 l 1,15,-1
 1242 0 l 1,16,-1
 137 0 l 1,17,-1
 137 244 l 1,18,-1
 358 397 l 2,19,20
 640 592 640 592 734 729.5 c 128,-1,21
 828 867 828 867 828 1049 c 0,22,23
 828 1221 828 1221 756 1311 c 128,-1,24
 684 1401 684 1401 550 1401 c 0,25,26
 428 1401 428 1401 357.5 1330.5 c 128,-1,27
 287 1260 287 1260 269 1123 c 1,0,-1
EndSplineSet
EndChar

StartChar: three
Encoding: 20 51 22
Width: 1422
VWidth: 3198
Flags: W
HStem: -28 117<390.643 753.408> 748 122<489 731.014> 1401 119<404.035 735.191>
VStem: 144 121<218.776 378> 176 121<1151 1291.34> 836 395<974.86 1302.74> 885 407<223.058 605.894>
LayerCount: 2
Fore
SplineSet
176 1449 m 1,0,1
 308 1484 308 1484 430.5 1502 c 128,-1,2
 553 1520 553 1520 675 1520 c 0,3,4
 943 1520 943 1520 1087 1423.5 c 128,-1,5
 1231 1327 1231 1327 1231 1145 c 0,6,7
 1231 1010 1231 1010 1148 927.5 c 128,-1,8
 1065 845 1065 845 909 815 c 1,9,10
 1101 784 1101 784 1196.5 681.5 c 128,-1,11
 1292 579 1292 579 1292 403 c 0,12,13
 1292 195 1292 195 1127 83.5 c 128,-1,14
 962 -28 962 -28 650 -28 c 0,15,16
 531 -28 531 -28 406 -9.5 c 128,-1,17
 281 9 281 9 144 52 c 1,18,-1
 144 378 l 1,19,-1
 265 378 l 1,20,21
 275 237 275 237 351.5 163 c 128,-1,22
 428 89 428 89 570 89 c 0,23,24
 720 89 720 89 802.5 172.5 c 128,-1,25
 885 256 885 256 885 412 c 0,26,27
 885 573 885 573 799.5 660.5 c 128,-1,28
 714 748 714 748 553 748 c 2,29,-1
 489 748 l 1,30,-1
 489 870 l 1,31,-1
 540 870 l 2,32,33
 687 870 687 870 761.5 937 c 128,-1,34
 836 1004 836 1004 836 1138 c 0,35,36
 836 1267 836 1267 766.5 1334 c 128,-1,37
 697 1401 697 1401 565 1401 c 0,38,39
 448 1401 448 1401 379.5 1337 c 128,-1,40
 311 1273 311 1273 297 1151 c 1,41,-1
 176 1151 l 1,42,-1
 176 1449 l 1,0,1
EndSplineSet
EndChar

StartChar: four
Encoding: 21 52 23
Width: 1422
VWidth: 3198
Flags: W
HStem: 0 122<486 707 1084 1306> 394 128<262 707 1084 1340> 1500 20G<694.656 1084>
VStem: 707 377<122 394 522 1248>
DStem2: 83 509 262 522 0.525224 0.850964<105.078 956.602>
LayerCount: 2
Fore
SplineSet
1306 0 m 1,0,-1
 486 0 l 1,1,-1
 486 122 l 1,2,-1
 707 122 l 1,3,-1
 707 394 l 1,4,-1
 83 394 l 1,5,-1
 83 509 l 1,6,-1
 707 1520 l 1,7,-1
 1084 1520 l 1,8,-1
 1084 522 l 1,9,-1
 1340 522 l 1,10,-1
 1340 394 l 1,11,-1
 1084 394 l 1,12,-1
 1084 122 l 1,13,-1
 1306 122 l 1,14,-1
 1306 0 l 1,0,-1
707 522 m 1,15,-1
 707 1248 l 1,16,-1
 262 522 l 1,17,-1
 707 522 l 1,15,-1
EndSplineSet
EndChar

StartChar: five
Encoding: 22 53 24
Width: 1422
VWidth: 3198
Flags: W
HStem: -28 117<398.012 733.886> 882 122<451.621 736.315> 1231 262<355 1154>
VStem: 166 121<202.421 378> 237 118<903 1231> 860 410<263.178 709.052>
LayerCount: 2
Fore
SplineSet
1154 1493 m 1,0,-1
 1154 1231 l 1,1,-1
 355 1231 l 1,2,-1
 355 903 l 1,3,4
 422 953 422 953 502.5 978.5 c 128,-1,5
 583 1004 583 1004 675 1004 c 0,6,7
 950 1004 950 1004 1110 865 c 128,-1,8
 1270 726 1270 726 1270 486 c 0,9,10
 1270 244 1270 244 1110 108 c 128,-1,11
 950 -28 950 -28 662 -28 c 0,12,13
 540 -28 540 -28 418.5 -9.5 c 128,-1,14
 297 9 297 9 166 55 c 1,15,-1
 166 378 l 1,16,-1
 287 378 l 1,17,18
 294 230 294 230 365 159.5 c 128,-1,19
 436 89 436 89 573 89 c 0,20,21
 720 89 720 89 790 186.5 c 128,-1,22
 860 284 860 284 860 486 c 0,23,24
 860 684 860 684 791.5 783 c 128,-1,25
 723 882 723 882 583 882 c 0,26,27
 506 882 506 882 446.5 850 c 128,-1,28
 387 818 387 818 336 754 c 1,29,-1
 237 754 l 1,30,-1
 237 1493 l 1,31,-1
 1154 1493 l 1,0,-1
EndSplineSet
EndChar

StartChar: six
Encoding: 23 54 25
Width: 1422
VWidth: 3198
Flags: W
HStem: -28 117<611.42 840.5> 870 119<610.675 840.298> 1196 263<1104.28 1238> 1401 119<667.021 1010.92>
VStem: 128 409<366.567 920.185> 918 397<250.734 724.468> 1117 121<1196 1294.77>
LayerCount: 2
Fore
SplineSet
503 882 m 1,0,1
 570 937 570 937 649.5 963 c 128,-1,2
 729 989 729 989 825 989 c 0,3,4
 1056 989 1056 989 1185.5 854.5 c 128,-1,5
 1315 720 1315 720 1315 486 c 0,6,7
 1315 241 1315 241 1167.5 106.5 c 128,-1,8
 1020 -28 1020 -28 748 -28 c 0,9,10
 445 -28 445 -28 286.5 155.5 c 128,-1,11
 128 339 128 339 128 697 c 0,12,13
 128 1107 128 1107 303.5 1313.5 c 128,-1,14
 479 1520 479 1520 821 1520 c 0,15,16
 912 1520 912 1520 1014.5 1505 c 128,-1,17
 1117 1490 1117 1490 1238 1459 c 1,18,-1
 1238 1196 l 1,19,-1
 1117 1196 l 1,20,21
 1090 1298 1090 1298 1021.5 1349.5 c 128,-1,22
 953 1401 953 1401 842 1401 c 0,23,24
 662 1401 662 1401 584 1279 c 128,-1,25
 506 1157 506 1157 503 882 c 1,0,1
726 89 m 256,26,27
 828 89 828 89 873 175.5 c 128,-1,28
 918 262 918 262 918 479 c 0,29,30
 918 693 918 693 873 781.5 c 128,-1,31
 828 870 828 870 726 870 c 256,32,33
 623 870 623 870 580 781.5 c 128,-1,34
 537 693 537 693 537 479 c 0,35,36
 537 262 537 262 580 175.5 c 128,-1,37
 623 89 623 89 726 89 c 256,26,27
EndSplineSet
EndChar

StartChar: seven
Encoding: 24 55 26
Width: 1422
VWidth: 3198
Flags: W
HStem: 0 21G<436 649.919> 1209 284<297 1037>
VStem: 162 135<1007 1209>
DStem2: 436 0 640 0 0.444317 0.89587<90.6406 1350.14>
LayerCount: 2
Fore
SplineSet
1254 1238 m 1,0,-1
 640 0 l 1,1,-1
 436 0 l 1,2,-1
 1037 1209 l 1,3,-1
 297 1209 l 1,4,-1
 297 1007 l 1,5,-1
 162 1007 l 1,6,-1
 162 1493 l 1,7,-1
 1254 1493 l 1,8,-1
 1254 1238 l 1,0,-1
EndSplineSet
EndChar

StartChar: eight
Encoding: 25 56 27
Width: 1422
VWidth: 3198
Flags: W
HStem: -28 117<572.984 844.025> 736 115<591.533 831.078> 1401 119<591.681 826.329>
VStem: 106 397<205.41 591.627> 156 387<958.165 1312.34> 879 388<959.578 1312.34> 918 397<205.41 591.627>
LayerCount: 2
Fore
SplineSet
953 793 m 1,0,1
 1129 764 1129 764 1222 661.5 c 128,-1,2
 1315 559 1315 559 1315 397 c 0,3,4
 1315 192 1315 192 1159.5 82 c 128,-1,5
 1004 -28 1004 -28 711 -28 c 0,6,7
 419 -28 419 -28 262.5 82 c 128,-1,8
 106 192 106 192 106 397 c 0,9,10
 106 559 106 559 200 661.5 c 128,-1,11
 294 764 294 764 470 793 c 1,12,13
 311 831 311 831 233.5 914.5 c 128,-1,14
 156 998 156 998 156 1129 c 0,15,16
 156 1321 156 1321 299 1420.5 c 128,-1,17
 442 1520 442 1520 711 1520 c 0,18,19
 982 1520 982 1520 1124.5 1420.5 c 128,-1,20
 1267 1321 1267 1321 1267 1129 c 0,21,22
 1267 998 1267 998 1188.5 914.5 c 128,-1,23
 1110 831 1110 831 953 793 c 1,0,1
879 1126 m 256,24,25
 879 1282 879 1282 841 1341.5 c 128,-1,26
 803 1401 803 1401 711 1401 c 256,27,28
 617 1401 617 1401 580 1341.5 c 128,-1,29
 543 1282 543 1282 543 1126 c 256,30,31
 543 970 543 970 580 910.5 c 128,-1,32
 617 851 617 851 711 851 c 0,33,34
 806 851 806 851 842.5 910.5 c 128,-1,35
 879 970 879 970 879 1126 c 256,24,25
918 412 m 0,36,37
 918 598 918 598 871.5 667 c 128,-1,38
 825 736 825 736 711 736 c 256,39,40
 595 736 595 736 549 667 c 128,-1,41
 503 598 503 598 503 412 c 0,42,43
 503 230 503 230 550.5 159.5 c 128,-1,44
 598 89 598 89 711 89 c 256,45,46
 821 89 821 89 869.5 159.5 c 128,-1,47
 918 230 918 230 918 412 c 0,36,37
EndSplineSet
EndChar

StartChar: nine
Encoding: 26 57 28
Width: 1422
VWidth: 3198
Flags: W
HStem: -28 117<414.568 755.008> 31 263<189 322.343> 503 117<584.758 812.914> 1401 119<583.046 812.74>
VStem: 112 397<764.679 1241.71> 189 122<188.44 294> 889 406<571.384 1123.09>
LayerCount: 2
Fore
SplineSet
697 1401 m 256,0,1
 595 1401 595 1401 552 1314 c 128,-1,2
 509 1227 509 1227 509 1010 c 0,3,4
 509 796 509 796 552 708 c 128,-1,5
 595 620 595 620 697 620 c 256,6,7
 800 620 800 620 844.5 708 c 128,-1,8
 889 796 889 796 889 1010 c 0,9,10
 889 1227 889 1227 844.5 1314 c 128,-1,11
 800 1401 800 1401 697 1401 c 256,0,1
921 608 m 1,12,13
 854 553 854 553 773.5 528 c 128,-1,14
 693 503 693 503 601 503 c 0,15,16
 372 503 372 503 242 635.5 c 128,-1,17
 112 768 112 768 112 1004 c 0,18,19
 112 1251 112 1251 257.5 1385.5 c 128,-1,20
 403 1520 403 1520 675 1520 c 0,21,22
 982 1520 982 1520 1138.5 1335.5 c 128,-1,23
 1295 1151 1295 1151 1295 793 c 0,24,25
 1295 384 1295 384 1120.5 178 c 128,-1,26
 946 -28 946 -28 601 -28 c 0,27,28
 512 -28 512 -28 408.5 -14 c 128,-1,29
 305 0 305 0 189 31 c 1,30,-1
 189 294 l 1,31,-1
 311 294 l 1,32,33
 333 192 333 192 403 140.5 c 128,-1,34
 473 89 473 89 583 89 c 0,35,36
 757 89 757 89 837.5 211 c 128,-1,37
 918 333 918 333 921 608 c 1,12,13
EndSplineSet
EndChar

StartChar: colon
Encoding: 27 58 29
Width: 754
VWidth: 3198
Flags: W
HStem: -28 379<255.135 497.114> 623 381<255.135 495.305>
VStem: 189 376<39.9218 283.682 690.265 933.625>
LayerCount: 2
Fore
SplineSet
189 812 m 0,0,1
 189 892 189 892 243 948 c 128,-1,2
 297 1004 297 1004 378 1004 c 0,3,4
 454 1004 454 1004 509.5 946.5 c 128,-1,5
 565 889 565 889 565 812 c 256,6,7
 565 736 565 736 511.5 679.5 c 128,-1,8
 458 623 458 623 378 623 c 256,9,10
 297 623 297 623 243 679.5 c 128,-1,11
 189 736 189 736 189 812 c 0,0,1
189 162 m 128,-1,13
 189 241 189 241 243 296 c 128,-1,14
 297 351 297 351 378 351 c 0,15,16
 454 351 454 351 509.5 296 c 128,-1,17
 565 241 565 241 565 162 c 128,-1,18
 565 83 565 83 509.5 27.5 c 128,-1,19
 454 -28 454 -28 378 -28 c 0,20,21
 297 -28 297 -28 243 27.5 c 128,-1,12
 189 83 189 83 189 162 c 128,-1,13
EndSplineSet
EndChar

StartChar: semicolon
Encoding: 28 59 30
Width: 754
VWidth: 3198
Flags: W
HStem: 623 381<255.135 495.305>
VStem: 189 376<690.265 933.625> 256 284<48.4434 326>
LayerCount: 2
Fore
SplineSet
189 812 m 0,0,1
 189 892 189 892 243 948 c 128,-1,2
 297 1004 297 1004 378 1004 c 0,3,4
 454 1004 454 1004 509.5 946.5 c 128,-1,5
 565 889 565 889 565 812 c 256,6,7
 565 736 565 736 511.5 679.5 c 128,-1,8
 458 623 458 623 378 623 c 256,9,10
 297 623 297 623 243 679.5 c 128,-1,11
 189 736 189 736 189 812 c 0,0,1
55 -189 m 1,12,13
 156 -106 156 -106 206 -1.5 c 128,-1,14
 256 103 256 103 256 241 c 2,15,-1
 256 326 l 1,16,-1
 540 326 l 1,17,18
 540 103 540 103 447.5 -58.5 c 128,-1,19
 355 -220 355 -220 162 -330 c 1,20,-1
 55 -189 l 1,12,13
EndSplineSet
EndChar

StartChar: less
Encoding: 29 60 31
Width: 1713
VWidth: 3198
Flags: W
DStem2: 522 640 217 531 0.939342 -0.342981<0 1029.82>
LayerCount: 2
Fore
SplineSet
1496 979 m 1,0,-1
 522 640 l 1,1,-1
 1496 305 l 1,2,-1
 1496 64 l 1,3,-1
 217 531 l 1,4,-1
 217 754 l 1,5,-1
 1496 1218 l 1,6,-1
 1496 979 l 1,0,-1
EndSplineSet
EndChar

StartChar: equal
Encoding: 30 61 32
Width: 1713
VWidth: 3198
Flags: W
HStem: 301 227<217 1496> 754 228<217 1496>
LayerCount: 2
Fore
SplineSet
217 528 m 1,0,-1
 1496 528 l 1,1,-1
 1496 301 l 1,2,-1
 217 301 l 1,3,-1
 217 528 l 1,0,-1
217 982 m 1,4,-1
 1496 982 l 1,5,-1
 1496 754 l 1,6,-1
 217 754 l 1,7,-1
 217 982 l 1,4,-1
EndSplineSet
EndChar

StartChar: greater
Encoding: 31 62 33
Width: 1713
VWidth: 3198
Flags: W
DStem2: 217 1218 217 979 0.940051 -0.341035<81.5073 1117.43> 217 305 217 64 0.939342 0.342981<0 1034.51>
LayerCount: 2
Fore
SplineSet
217 979 m 1,0,-1
 217 1218 l 1,1,-1
 1496 754 l 1,2,-1
 1496 531 l 1,3,-1
 217 64 l 1,4,-1
 217 305 l 1,5,-1
 1196 640 l 1,6,-1
 217 979 l 1,0,-1
EndSplineSet
EndChar

StartChar: question
Encoding: 32 63 34
Width: 1199
VWidth: 3198
Flags: W
HStem: -28 379<410.501 654.463> 1407 113<345.929 641.076>
VStem: 134 119<1145 1307.2> 342 381<39.9218 283.682> 464 137<436 643.564> 732 375<903.386 1298.32>
LayerCount: 2
Fore
SplineSet
342 162 m 128,-1,1
 342 241 342 241 398 296 c 128,-1,2
 454 351 454 351 531 351 c 0,3,4
 611 351 611 351 667 296 c 128,-1,5
 723 241 723 241 723 162 c 128,-1,6
 723 83 723 83 667 27.5 c 128,-1,7
 611 -28 611 -28 531 -28 c 0,8,9
 454 -28 454 -28 398 27.5 c 128,-1,0
 342 83 342 83 342 162 c 128,-1,1
134 1452 m 1,10,11
 256 1487 256 1487 367.5 1503.5 c 128,-1,12
 479 1520 479 1520 586 1520 c 0,13,14
 839 1520 839 1520 973 1409 c 128,-1,15
 1107 1298 1107 1298 1107 1093 c 0,16,17
 1107 892 1107 892 977.5 775.5 c 128,-1,18
 848 659 848 659 601 640 c 1,19,-1
 601 436 l 1,20,-1
 464 436 l 1,21,-1
 464 736 l 1,22,23
 601 778 601 778 666.5 870 c 128,-1,24
 732 962 732 962 732 1117 c 0,25,26
 732 1260 732 1260 671.5 1333.5 c 128,-1,27
 611 1407 611 1407 492 1407 c 0,28,29
 384 1407 384 1407 323 1341.5 c 128,-1,30
 262 1276 262 1276 253 1145 c 1,31,-1
 134 1145 l 1,32,-1
 134 1452 l 1,10,11
EndSplineSet
EndChar

StartChar: at
Encoding: 33 64 35
Width: 2045
VWidth: 3198
Flags: W
HStem: -355 125<818.425 1328.79> 92 125<926.274 1168.91> 867 125<926.274 1168.91> 1312 128<813.809 1353.45>
VStem: 134 208<262.358 822.803> 586 242<334.244 751.859> 1270 220<230 241 319.188 763.551 845 970> 1788 116<443.902 915.704>
LayerCount: 2
Fore
SplineSet
1270 503 m 2,0,-1
 1270 579 l 2,1,2
 1270 707 1270 707 1209 787 c 128,-1,3
 1148 867 1148 867 1046 867 c 0,4,5
 946 867 946 867 887 778.5 c 128,-1,6
 828 690 828 690 828 543 c 256,7,8
 828 397 828 397 887 307 c 128,-1,9
 946 217 946 217 1046 217 c 0,10,11
 1148 217 1148 217 1209 296 c 128,-1,12
 1270 375 1270 375 1270 503 c 2,0,-1
1270 241 m 1,13,14
 1227 166 1227 166 1155.5 129 c 128,-1,15
 1084 92 1084 92 995 92 c 0,16,17
 806 92 806 92 696 212.5 c 128,-1,18
 586 333 586 333 586 543 c 256,19,20
 586 754 586 754 696 873 c 128,-1,21
 806 992 806 992 995 992 c 0,22,23
 1084 992 1084 992 1155.5 955 c 128,-1,24
 1227 918 1227 918 1270 845 c 1,25,-1
 1270 970 l 1,26,-1
 1490 970 l 1,27,-1
 1490 230 l 1,28,29
 1635 269 1635 269 1711.5 386 c 128,-1,30
 1788 503 1788 503 1788 678 c 0,31,32
 1788 821 1788 821 1733.5 938.5 c 128,-1,33
 1679 1056 1679 1056 1568 1151 c 0,34,35
 1474 1227 1474 1227 1349 1269.5 c 128,-1,36
 1224 1312 1224 1312 1087 1312 c 0,37,38
 956 1312 956 1312 842.5 1277 c 128,-1,39
 729 1242 729 1242 637 1174 c 0,40,41
 495 1065 495 1065 418.5 902 c 128,-1,42
 342 739 342 739 342 543 c 0,43,44
 342 387 342 387 390.5 249.5 c 128,-1,45
 439 112 439 112 528 12 c 0,46,47
 634 -106 634 -106 773 -168 c 128,-1,48
 912 -230 912 -230 1078 -230 c 0,49,50
 1196 -230 1196 -230 1311 -196 c 128,-1,51
 1426 -162 1426 -162 1529 -92 c 1,52,-1
 1587 -189 l 1,53,54
 1459 -272 1459 -272 1320 -313.5 c 128,-1,55
 1181 -355 1181 -355 1037 -355 c 0,56,57
 845 -355 845 -355 683.5 -292.5 c 128,-1,58
 522 -230 522 -230 394 -106 c 256,59,60
 265 19 265 19 199.5 183.5 c 128,-1,61
 134 348 134 348 134 543 c 0,62,63
 134 736 134 736 199.5 900.5 c 128,-1,64
 265 1065 265 1065 394 1190 c 0,65,66
 522 1318 522 1318 685 1379 c 128,-1,67
 848 1440 848 1440 1053 1440 c 0,68,69
 1231 1440 1231 1440 1377 1391.5 c 128,-1,70
 1523 1343 1523 1343 1638 1245 c 0,71,72
 1773 1135 1773 1135 1838.5 993 c 128,-1,73
 1904 851 1904 851 1904 675 c 0,74,75
 1904 400 1904 400 1745.5 246 c 128,-1,76
 1587 92 1587 92 1302 92 c 2,77,-1
 1270 92 l 1,78,-1
 1270 241 l 1,13,14
EndSplineSet
EndChar

StartChar: A
Encoding: 34 65 36
Width: 1588
VWidth: 3198
Flags: W
HStem: 0 122<-16 106 250 428 912 1059 1471 1612> 425 122<422 885> 1473 20G<659.802 917.198>
DStem2: 106 122 250 122 0.37929 0.925278<54.6177 382.388 513.099 1129.26> 909 1493 656 1117 0.37929 -0.925278<251.944 866.21 997.679 1325.45>
LayerCount: 2
Fore
SplineSet
-16 0 m 1,0,-1
 -16 122 l 1,1,-1
 106 122 l 1,2,-1
 668 1493 l 1,3,-1
 909 1493 l 1,4,-1
 1471 122 l 1,5,-1
 1612 122 l 1,6,-1
 1612 0 l 1,7,-1
 912 0 l 1,8,-1
 912 122 l 1,9,-1
 1059 122 l 1,10,-1
 934 425 l 1,11,-1
 375 425 l 1,12,-1
 250 122 l 1,13,-1
 428 122 l 1,14,-1
 428 0 l 1,15,-1
 -16 0 l 1,0,-1
422 547 m 1,16,-1
 885 547 l 1,17,-1
 656 1117 l 1,18,-1
 422 547 l 1,16,-1
EndSplineSet
EndChar

StartChar: B
Encoding: 35 66 37
Width: 1728
VWidth: 3198
Flags: W
HStem: 0 122<95 287 672 1042.14> 748 122<672 1029.44> 1373 120<95 287 672 1031.8>
VStem: 287 385<122 748 870 1373> 1138 388<970.609 1278> 1190 428<253.606 606.653>
LayerCount: 2
Fore
SplineSet
95 0 m 1,0,-1
 95 122 l 1,1,-1
 287 122 l 1,2,-1
 287 1373 l 1,3,-1
 95 1373 l 1,4,-1
 95 1493 l 1,5,-1
 982 1493 l 2,6,7
 1254 1493 1254 1493 1390 1401 c 128,-1,8
 1526 1309 1526 1309 1526 1123 c 0,9,10
 1526 992 1526 992 1433 914 c 128,-1,11
 1340 836 1340 836 1151 815 c 1,12,13
 1379 793 1379 793 1498.5 694 c 128,-1,14
 1618 595 1618 595 1618 431 c 0,15,16
 1618 211 1618 211 1450 105.5 c 128,-1,17
 1282 0 1282 0 925 0 c 2,18,-1
 95 0 l 1,0,-1
672 870 m 1,19,-1
 803 870 l 2,20,21
 976 870 976 870 1057 932.5 c 128,-1,22
 1138 995 1138 995 1138 1123 c 0,23,24
 1138 1254 1138 1254 1060 1313.5 c 128,-1,25
 982 1373 982 1373 803 1373 c 2,26,-1
 672 1373 l 1,27,-1
 672 870 l 1,19,-1
672 122 m 1,28,-1
 815 122 l 2,29,30
 1004 122 1004 122 1097 197 c 128,-1,31
 1190 272 1190 272 1190 431 c 256,32,33
 1190 592 1190 592 1097 670 c 128,-1,34
 1004 748 1004 748 815 748 c 2,35,-1
 672 748 l 1,36,-1
 672 122 l 1,28,-1
EndSplineSet
EndChar

StartChar: C
Encoding: 36 67 38
Width: 1627
VWidth: 3198
Flags: W
HStem: -28 120<747.388 1130.52> 1398 122<747.036 1144.24>
VStem: 86 429<457.903 1032.49> 1327 199<304.999 425> 1356 128<1023 1165.38>
LayerCount: 2
Fore
SplineSet
1526 425 m 1,0,1
 1465 195 1465 195 1312.5 83.5 c 128,-1,2
 1160 -28 1160 -28 903 -28 c 0,3,4
 525 -28 525 -28 305.5 179.5 c 128,-1,5
 86 387 86 387 86 745 c 256,6,7
 86 1104 86 1104 305.5 1312 c 128,-1,8
 525 1520 525 1520 903 1520 c 0,9,10
 1037 1520 1037 1520 1179 1488 c 128,-1,11
 1321 1456 1321 1456 1484 1391 c 1,12,-1
 1484 1023 l 1,13,-1
 1356 1023 l 1,14,15
 1318 1212 1318 1212 1215.5 1305 c 128,-1,16
 1113 1398 1113 1398 943 1398 c 0,17,18
 726 1398 726 1398 620.5 1238 c 128,-1,19
 515 1078 515 1078 515 745 c 256,20,21
 515 412 515 412 620.5 252 c 128,-1,22
 726 92 726 92 946 92 c 0,23,24
 1093 92 1093 92 1187.5 175.5 c 128,-1,25
 1282 259 1282 259 1327 425 c 1,26,-1
 1526 425 l 1,0,1
EndSplineSet
EndChar

StartChar: D
Encoding: 37 68 39
Width: 1774
VWidth: 3198
Flags: W
HStem: 0 122<95 287 672 1027.2> 1373 120<95 287 672 1024.12>
VStem: 287 385<122 1373> 1260 428<452.369 1041.85>
LayerCount: 2
Fore
SplineSet
672 122 m 1,0,-1
 809 122 l 2,1,2
 1043 122 1043 122 1151.5 272 c 128,-1,3
 1260 422 1260 422 1260 748 c 0,4,5
 1260 1071 1260 1071 1153 1222 c 128,-1,6
 1046 1373 1046 1373 809 1373 c 2,7,-1
 672 1373 l 1,8,-1
 672 122 l 1,0,-1
95 0 m 1,9,-1
 95 122 l 1,10,-1
 287 122 l 1,11,-1
 287 1373 l 1,12,-1
 95 1373 l 1,13,-1
 95 1493 l 1,14,-1
 860 1493 l 2,15,16
 1263 1493 1263 1493 1475.5 1301.5 c 128,-1,17
 1688 1110 1688 1110 1688 748 c 0,18,19
 1688 384 1688 384 1475.5 192 c 128,-1,20
 1263 0 1263 0 860 0 c 2,21,-1
 95 0 l 1,9,-1
EndSplineSet
EndChar

StartChar: E
Encoding: 38 69 40
Width: 1560
VWidth: 3198
Flags: W
HStem: 0 137<672 1318> 0 122<95 287> 742 134<672 1062> 1045 20G<1062 1199> 1356 137<672 1298> 1373 120<95 287>
VStem: 287 385<137 742 876 1356> 1062 137<550 742 876 1065> 1298 139<1138 1356> 1318 138<137 351>
LayerCount: 2
Fore
SplineSet
95 0 m 1,0,-1
 95 122 l 1,1,-1
 287 122 l 1,2,-1
 287 1373 l 1,3,-1
 95 1373 l 1,4,-1
 95 1493 l 1,5,-1
 1437 1493 l 1,6,-1
 1437 1138 l 1,7,-1
 1298 1138 l 1,8,-1
 1298 1356 l 1,9,-1
 672 1356 l 1,10,-1
 672 876 l 1,11,-1
 1062 876 l 1,12,-1
 1062 1065 l 1,13,-1
 1199 1065 l 1,14,-1
 1199 550 l 1,15,-1
 1062 550 l 1,16,-1
 1062 742 l 1,17,-1
 672 742 l 1,18,-1
 672 137 l 1,19,-1
 1318 137 l 1,20,-1
 1318 351 l 1,21,-1
 1456 351 l 1,22,-1
 1456 0 l 1,23,-1
 95 0 l 1,0,-1
EndSplineSet
EndChar

StartChar: F
Encoding: 39 70 41
Width: 1450
VWidth: 3198
Flags: W
HStem: 0 122<95 287 675 909> 742 134<675 1053> 1045 20G<1053 1190> 1356 137<675 1288> 1373 120<95 287>
VStem: 287 388<122 742 876 1356> 1053 137<550 742 876 1065> 1288 138<1138 1356>
LayerCount: 2
Fore
SplineSet
95 0 m 1,0,-1
 95 122 l 1,1,-1
 287 122 l 1,2,-1
 287 1373 l 1,3,-1
 95 1373 l 1,4,-1
 95 1493 l 1,5,-1
 1426 1493 l 1,6,-1
 1426 1138 l 1,7,-1
 1288 1138 l 1,8,-1
 1288 1356 l 1,9,-1
 675 1356 l 1,10,-1
 675 876 l 1,11,-1
 1053 876 l 1,12,-1
 1053 1065 l 1,13,-1
 1190 1065 l 1,14,-1
 1190 550 l 1,15,-1
 1053 550 l 1,16,-1
 1053 742 l 1,17,-1
 675 742 l 1,18,-1
 675 122 l 1,19,-1
 909 122 l 1,20,-1
 909 0 l 1,21,-1
 95 0 l 1,0,-1
EndSplineSet
EndChar

StartChar: G
Encoding: 40 71 42
Width: 1749
VWidth: 3198
Flags: W
HStem: -28 120<745.1 1172.97> 576 121<1049 1227> 1398 122<749.435 1185.54>
VStem: 86 429<456.084 1035.24> 1227 360<141.271 576> 1407 128<1023 1160.98>
LayerCount: 2
Fore
SplineSet
1407 1023 m 1,0,1
 1362 1221 1362 1221 1256.5 1309.5 c 128,-1,2
 1151 1398 1151 1398 962 1398 c 0,3,4
 729 1398 729 1398 622 1241 c 128,-1,5
 515 1084 515 1084 515 745 c 0,6,7
 515 409 515 409 619 250.5 c 128,-1,8
 723 92 723 92 940 92 c 0,9,10
 1026 92 1026 92 1097 110 c 128,-1,11
 1168 128 1168 128 1227 166 c 1,12,-1
 1227 576 l 1,13,-1
 1049 576 l 1,14,-1
 1049 697 l 1,15,-1
 1587 697 l 1,16,-1
 1587 125 l 1,17,18
 1420 48 1420 48 1252 10 c 128,-1,19
 1084 -28 1084 -28 909 -28 c 0,20,21
 525 -28 525 -28 305.5 178 c 128,-1,22
 86 384 86 384 86 745 c 256,23,24
 86 1107 86 1107 305.5 1313.5 c 128,-1,25
 525 1520 525 1520 909 1520 c 0,26,27
 1068 1520 1068 1520 1223.5 1488 c 128,-1,28
 1379 1456 1379 1456 1535 1391 c 1,29,-1
 1535 1023 l 1,30,-1
 1407 1023 l 1,0,1
EndSplineSet
EndChar

StartChar: H
Encoding: 41 72 43
Width: 1934
VWidth: 3198
Flags: W
HStem: 0 122<95 287 672 864 1074 1267 1651 1843> 732 138<672 1267> 1373 120<95 287 672 864 1074 1267 1651 1843>
VStem: 287 385<122 732 870 1373> 1267 384<122 732 870 1373>
LayerCount: 2
Fore
SplineSet
95 0 m 1,0,-1
 95 122 l 1,1,-1
 287 122 l 1,2,-1
 287 1373 l 1,3,-1
 95 1373 l 1,4,-1
 95 1493 l 1,5,-1
 864 1493 l 1,6,-1
 864 1373 l 1,7,-1
 672 1373 l 1,8,-1
 672 870 l 1,9,-1
 1267 870 l 1,10,-1
 1267 1373 l 1,11,-1
 1074 1373 l 1,12,-1
 1074 1493 l 1,13,-1
 1843 1493 l 1,14,-1
 1843 1373 l 1,15,-1
 1651 1373 l 1,16,-1
 1651 122 l 1,17,-1
 1843 122 l 1,18,-1
 1843 0 l 1,19,-1
 1074 0 l 1,20,-1
 1074 122 l 1,21,-1
 1267 122 l 1,22,-1
 1267 732 l 1,23,-1
 672 732 l 1,24,-1
 672 122 l 1,25,-1
 864 122 l 1,26,-1
 864 0 l 1,27,-1
 95 0 l 1,0,-1
EndSplineSet
EndChar

StartChar: I
Encoding: 42 73 44
Width: 958
VWidth: 3198
Flags: W
HStem: 0 122<95 287 672 864> 1373 120<95 287 672 864>
VStem: 287 385<122 1373>
LayerCount: 2
Fore
SplineSet
95 0 m 1,0,-1
 95 122 l 1,1,-1
 287 122 l 1,2,-1
 287 1373 l 1,3,-1
 95 1373 l 1,4,-1
 95 1493 l 1,5,-1
 864 1493 l 1,6,-1
 864 1373 l 1,7,-1
 672 1373 l 1,8,-1
 672 122 l 1,9,-1
 864 122 l 1,10,-1
 864 0 l 1,11,-1
 95 0 l 1,0,-1
EndSplineSet
EndChar

StartChar: J
Encoding: 43 74 45
Width: 968
VWidth: 3198
Flags: W
HStem: -425 120<26.7538 253.667> -358 236<-150 -13.5725> 1373 120<95 314 701 889>
VStem: -150 131<-259.613 -122> 314 387<-200.38 1373>
LayerCount: 2
Fore
SplineSet
-150 -358 m 1,0,-1
 -150 -122 l 1,1,-1
 -19 -122 l 1,2,3
 -12 -217 -12 -217 26 -261 c 128,-1,4
 64 -305 64 -305 141 -305 c 0,5,6
 237 -305 237 -305 275.5 -230.5 c 128,-1,7
 314 -156 314 -156 314 48 c 2,8,-1
 314 1373 l 1,9,-1
 95 1373 l 1,10,-1
 95 1493 l 1,11,-1
 889 1493 l 1,12,-1
 889 1373 l 1,13,-1
 701 1373 l 1,14,-1
 701 42 l 2,15,16
 701 -201 701 -201 577.5 -313 c 128,-1,17
 454 -425 454 -425 189 -425 c 0,18,19
 106 -425 106 -425 21 -407.5 c 128,-1,20
 -64 -390 -64 -390 -150 -358 c 1,0,-1
EndSplineSet
EndChar

StartChar: K
Encoding: 44 75 46
Width: 1777
VWidth: 3198
Flags: W
HStem: 0 122<95 287 672 864 1694 1843> 1373 120<95 287 672 864 1145 1306 1504 1702>
VStem: 287 385<122 726 828 1373>
DStem2: 672 828 965 912 0.758327 0.651874<276.947 836.051> 965 912 672 726 0.678164 -0.73491<0 922.515>
LayerCount: 2
Fore
SplineSet
95 0 m 1,0,-1
 95 122 l 1,1,-1
 287 122 l 1,2,-1
 287 1373 l 1,3,-1
 95 1373 l 1,4,-1
 95 1493 l 1,5,-1
 864 1493 l 1,6,-1
 864 1373 l 1,7,-1
 672 1373 l 1,8,-1
 672 828 l 1,9,-1
 1306 1373 l 1,10,-1
 1145 1373 l 1,11,-1
 1145 1493 l 1,12,-1
 1702 1493 l 1,13,-1
 1702 1373 l 1,14,-1
 1504 1373 l 1,15,-1
 965 912 l 1,16,-1
 1694 122 l 1,17,-1
 1843 122 l 1,18,-1
 1843 0 l 1,19,-1
 1337 0 l 1,20,-1
 672 726 l 1,21,-1
 672 122 l 1,22,-1
 864 122 l 1,23,-1
 864 0 l 1,24,-1
 95 0 l 1,0,-1
EndSplineSet
EndChar

StartChar: L
Encoding: 45 76 47
Width: 1438
VWidth: 3198
Flags: W
HStem: 0 137<672 1260> 0 122<95 287> 1373 120<95 287 672 864>
VStem: 287 385<137 1373> 1260 135<137 372>
LayerCount: 2
Fore
SplineSet
95 0 m 1,0,-1
 95 122 l 1,1,-1
 287 122 l 1,2,-1
 287 1373 l 1,3,-1
 95 1373 l 1,4,-1
 95 1493 l 1,5,-1
 864 1493 l 1,6,-1
 864 1373 l 1,7,-1
 672 1373 l 1,8,-1
 672 137 l 1,9,-1
 1260 137 l 1,10,-1
 1260 372 l 1,11,-1
 1395 372 l 1,12,-1
 1395 0 l 1,13,-1
 95 0 l 1,0,-1
EndSplineSet
EndChar

StartChar: M
Encoding: 46 77 48
Width: 2262
VWidth: 3198
Flags: W
HStem: 0 122<86 275 415 604 1401 1593 1980 2169> 1373 120<86 275 1980 2169>
VStem: 275 140<122 1260> 1593 387<122 1260>
DStem2: 704 1493 415 1260 0.404266 -0.914641<96.2785 1048.95> 1129 534 1129 217 0.406464 0.913667<0 851.921>
LayerCount: 2
Fore
SplineSet
86 0 m 1,0,-1
 86 122 l 1,1,-1
 275 122 l 1,2,-1
 275 1373 l 1,3,-1
 86 1373 l 1,4,-1
 86 1493 l 1,5,-1
 704 1493 l 1,6,-1
 1129 534 l 1,7,-1
 1554 1493 l 1,8,-1
 2169 1493 l 1,9,-1
 2169 1373 l 1,10,-1
 1980 1373 l 1,11,-1
 1980 122 l 1,12,-1
 2169 122 l 1,13,-1
 2169 0 l 1,14,-1
 1401 0 l 1,15,-1
 1401 122 l 1,16,-1
 1593 122 l 1,17,-1
 1593 1260 l 1,18,-1
 1129 217 l 1,19,-1
 876 217 l 1,20,-1
 415 1260 l 1,21,-1
 415 122 l 1,22,-1
 604 122 l 1,23,-1
 604 0 l 1,24,-1
 86 0 l 1,0,-1
EndSplineSet
EndChar

StartChar: N
Encoding: 47 78 49
Width: 1870
VWidth: 3198
Flags: W
HStem: 0 122<89 281 422 611> 1373 120<89 281 1267 1459 1599 1788>
VStem: 281 141<122 1078> 1459 140<436 1373>
DStem2: 556 1493 422 1078 0.647115 -0.762393<229.68 1390.19>
LayerCount: 2
Fore
SplineSet
89 0 m 1,0,-1
 89 122 l 1,1,-1
 281 122 l 1,2,-1
 281 1373 l 1,3,-1
 89 1373 l 1,4,-1
 89 1493 l 1,5,-1
 556 1493 l 1,6,-1
 1459 436 l 1,7,-1
 1459 1373 l 1,8,-1
 1267 1373 l 1,9,-1
 1267 1493 l 1,10,-1
 1788 1493 l 1,11,-1
 1788 1373 l 1,12,-1
 1599 1373 l 1,13,-1
 1599 0 l 1,14,-1
 1337 0 l 1,15,-1
 422 1078 l 1,16,-1
 422 122 l 1,17,-1
 611 122 l 1,18,-1
 611 0 l 1,19,-1
 89 0 l 1,0,-1
EndSplineSet
EndChar

StartChar: O
Encoding: 48 79 50
Width: 1780
VWidth: 3198
Flags: W
HStem: -28 120<721.416 1058.92> 1398 122<721.416 1058.92>
VStem: 86 429<450.842 1039.56> 1267 427<448.629 1041.77>
LayerCount: 2
Fore
SplineSet
889 92 m 0,0,1
 1081 92 1081 92 1174 252 c 128,-1,2
 1267 412 1267 412 1267 745 c 256,3,4
 1267 1078 1267 1078 1174 1238 c 128,-1,5
 1081 1398 1081 1398 889 1398 c 0,6,7
 701 1398 701 1398 608 1234.5 c 128,-1,8
 515 1071 515 1071 515 745 c 256,9,10
 515 419 515 419 608 255.5 c 128,-1,11
 701 92 701 92 889 92 c 0,0,1
889 -28 m 0,12,13
 515 -28 515 -28 300.5 178 c 128,-1,14
 86 384 86 384 86 745 c 256,15,16
 86 1107 86 1107 300.5 1313.5 c 128,-1,17
 515 1520 515 1520 889 1520 c 0,18,19
 1267 1520 1267 1520 1480.5 1313.5 c 128,-1,20
 1694 1107 1694 1107 1694 745 c 256,21,22
 1694 384 1694 384 1480.5 178 c 128,-1,23
 1267 -28 1267 -28 889 -28 c 0,12,13
EndSplineSet
EndChar

StartChar: P
Encoding: 49 80 51
Width: 1538
VWidth: 3198
Flags: W
HStem: 0 122<95 287 672 912> 617 122<672 942.17> 1373 120<95 287 672 944.158>
VStem: 287 385<122 617 739 1373> 1068 419<872.064 1240.73>
LayerCount: 2
Fore
SplineSet
95 0 m 1,0,-1
 95 122 l 1,1,-1
 287 122 l 1,2,-1
 287 1373 l 1,3,-1
 95 1373 l 1,4,-1
 95 1493 l 1,5,-1
 946 1493 l 2,6,7
 1193 1493 1193 1493 1340 1373.5 c 128,-1,8
 1487 1254 1487 1254 1487 1056 c 256,9,10
 1487 857 1487 857 1340 737 c 128,-1,11
 1193 617 1193 617 946 617 c 2,12,-1
 672 617 l 1,13,-1
 672 122 l 1,14,-1
 912 122 l 1,15,-1
 912 0 l 1,16,-1
 95 0 l 1,0,-1
672 739 m 1,17,-1
 784 739 l 2,18,19
 912 739 912 739 990 825.5 c 128,-1,20
 1068 912 1068 912 1068 1056 c 256,21,22
 1068 1199 1068 1199 991.5 1286 c 128,-1,23
 915 1373 915 1373 784 1373 c 2,24,-1
 672 1373 l 1,25,-1
 672 739 l 1,17,-1
EndSplineSet
EndChar

StartChar: Q
Encoding: 50 81 52
Width: 1780
VWidth: 3198
Flags: W
HStem: -369 247<1163.32 1440> -28 120<726.541 900.903> 1398 122<721.416 1058.92>
VStem: 86 429<451.15 1039.56> 1267 427<447.646 1041.77>
LayerCount: 2
Fore
SplineSet
882 -28 m 1,0,1
 509 -22 509 -22 297.5 181 c 128,-1,2
 86 384 86 384 86 745 c 256,3,4
 86 1107 86 1107 300.5 1313.5 c 128,-1,5
 515 1520 515 1520 889 1520 c 0,6,7
 1267 1520 1267 1520 1480.5 1313.5 c 128,-1,8
 1694 1107 1694 1107 1694 745 c 0,9,10
 1694 425 1694 425 1529.5 228 c 128,-1,11
 1365 31 1365 31 1062 -16 c 1,12,13
 1117 -73 1117 -73 1192 -97.5 c 128,-1,14
 1267 -122 1267 -122 1388 -122 c 2,15,-1
 1440 -122 l 1,16,-1
 1440 -369 l 1,17,-1
 1410 -369 l 2,18,19
 1218 -369 1218 -369 1091.5 -287 c 128,-1,20
 965 -205 965 -205 882 -28 c 1,0,1
889 92 m 0,21,22
 1081 92 1081 92 1174 252 c 128,-1,23
 1267 412 1267 412 1267 745 c 256,24,25
 1267 1078 1267 1078 1174 1238 c 128,-1,26
 1081 1398 1081 1398 889 1398 c 0,27,28
 701 1398 701 1398 608 1234.5 c 128,-1,29
 515 1071 515 1071 515 745 c 256,30,31
 515 419 515 419 608 255.5 c 128,-1,32
 701 92 701 92 889 92 c 0,21,22
EndSplineSet
EndChar

StartChar: R
Encoding: 51 82 53
Width: 1700
VWidth: 3198
Flags: W
HStem: 0 122<95 287 672 864 1560 1715> 668 119<672 864.975> 1373 120<95 287 672 970.387>
VStem: 287 385<122 668 787 1373> 1093 397<912.654 1256.78>
DStem2: 1560 122 985 451 0.46364 -0.886024<-657.283 -49.079>
LayerCount: 2
Fore
SplineSet
1087 729 m 1,0,1
 1174 717 1174 717 1236 670 c 128,-1,2
 1298 623 1298 623 1343 537 c 2,3,-1
 1560 122 l 1,4,-1
 1715 122 l 1,5,-1
 1715 0 l 1,6,-1
 1221 0 l 1,7,-1
 985 451 l 2,8,9
 915 592 915 592 866.5 630 c 128,-1,10
 818 668 818 668 732 668 c 2,11,-1
 672 668 l 1,12,-1
 672 122 l 1,13,-1
 864 122 l 1,14,-1
 864 0 l 1,15,-1
 95 0 l 1,16,-1
 95 122 l 1,17,-1
 287 122 l 1,18,-1
 287 1373 l 1,19,-1
 95 1373 l 1,20,-1
 95 1493 l 1,21,-1
 946 1493 l 2,22,23
 1209 1493 1209 1493 1349.5 1387.5 c 128,-1,24
 1490 1282 1490 1282 1490 1090 c 0,25,26
 1490 934 1490 934 1389 844 c 128,-1,27
 1288 754 1288 754 1087 729 c 1,0,1
672 787 m 1,28,-1
 803 787 l 2,29,30
 940 787 940 787 1016.5 863.5 c 128,-1,31
 1093 940 1093 940 1093 1081 c 256,32,33
 1093 1221 1093 1221 1016.5 1297 c 128,-1,34
 940 1373 940 1373 803 1373 c 2,35,-1
 672 1373 l 1,36,-1
 672 787 l 1,28,-1
EndSplineSet
EndChar

StartChar: S
Encoding: 52 83 54
Width: 1477
VWidth: 3198
Flags: W
HStem: -28 120<486.625 932.115> 1398 122<518.72 960.504>
VStem: 134 294<958 1264.46> 156 128<291.502 425> 1037 319<223.911 451.168> 1135 125<1101 1230.21>
DStem2: 736 953 531 611 0.967801 -0.251715<-287.15 359.697>
LayerCount: 2
Fore
SplineSet
156 70 m 1,0,-1
 156 425 l 1,1,-1
 284 425 l 1,2,3
 314 259 314 259 422.5 175.5 c 128,-1,4
 531 92 531 92 720 92 c 0,5,6
 876 92 876 92 956.5 151.5 c 128,-1,7
 1037 211 1037 211 1037 323 c 0,8,9
 1037 412 1037 412 982.5 463.5 c 128,-1,10
 928 515 928 515 754 556 c 2,11,-1
 531 611 l 2,12,13
 314 668 314 668 224 767.5 c 128,-1,14
 134 867 134 867 134 1049 c 0,15,16
 134 1273 134 1273 281 1396.5 c 128,-1,17
 428 1520 428 1520 697 1520 c 0,18,19
 828 1520 828 1520 969 1497 c 128,-1,20
 1110 1474 1110 1474 1260 1429 c 1,21,-1
 1260 1101 l 1,22,-1
 1135 1101 l 1,23,24
 1107 1254 1107 1254 1008 1326 c 128,-1,25
 909 1398 909 1398 729 1398 c 0,26,27
 583 1398 583 1398 505.5 1346.5 c 128,-1,28
 428 1295 428 1295 428 1193 c 0,29,30
 428 1101 428 1101 481 1052.5 c 128,-1,31
 534 1004 534 1004 736 953 c 2,32,-1
 959 895 l 2,33,34
 1168 845 1168 845 1262 734 c 128,-1,35
 1356 623 1356 623 1356 431 c 0,36,37
 1356 208 1356 208 1199.5 90 c 128,-1,38
 1043 -28 1043 -28 742 -28 c 0,39,40
 595 -28 595 -28 451.5 -4.5 c 128,-1,41
 308 19 308 19 156 70 c 1,0,-1
EndSplineSet
EndChar

StartChar: T
Encoding: 53 84 55
Width: 1521
VWidth: 3198
Flags: W
HStem: 0 122<372 570 956 1154> 1120 373<22 159 1370 1504> 1356 137<159 570 956 1370>
VStem: 22 137<1120 1356> 570 386<122 1356> 1370 134<1120 1356>
LayerCount: 2
Fore
SplineSet
372 0 m 1,0,-1
 372 122 l 1,1,-1
 570 122 l 1,2,-1
 570 1356 l 1,3,-1
 159 1356 l 1,4,-1
 159 1120 l 1,5,-1
 22 1120 l 1,6,-1
 22 1493 l 1,7,-1
 1504 1493 l 1,8,-1
 1504 1120 l 1,9,-1
 1370 1120 l 1,10,-1
 1370 1356 l 1,11,-1
 956 1356 l 1,12,-1
 956 122 l 1,13,-1
 1154 122 l 1,14,-1
 1154 0 l 1,15,-1
 372 0 l 1,0,-1
EndSplineSet
EndChar

StartChar: U
Encoding: 54 85 56
Width: 1783
VWidth: 3198
Flags: W
HStem: -28 150<819.309 1228.47> 1373 120<70 259 647 839 1218 1410 1548 1740>
VStem: 259 388<313.125 1373> 1410 138<311.377 1373>
LayerCount: 2
Fore
SplineSet
259 1373 m 1,0,-1
 70 1373 l 1,1,-1
 70 1493 l 1,2,-1
 839 1493 l 1,3,-1
 839 1373 l 1,4,-1
 647 1373 l 1,5,-1
 647 623 l 2,6,7
 647 345 647 345 734 233.5 c 128,-1,8
 821 122 821 122 1034 122 c 0,9,10
 1238 122 1238 122 1324 235 c 128,-1,11
 1410 348 1410 348 1410 623 c 2,12,-1
 1410 1373 l 1,13,-1
 1218 1373 l 1,14,-1
 1218 1493 l 1,15,-1
 1740 1493 l 1,16,-1
 1740 1373 l 1,17,-1
 1548 1373 l 1,18,-1
 1548 604 l 2,19,20
 1548 262 1548 262 1401 117 c 128,-1,21
 1254 -28 1254 -28 906 -28 c 256,22,23
 556 -28 556 -28 407.5 118.5 c 128,-1,24
 259 265 259 265 259 604 c 2,25,-1
 259 1373 l 1,0,-1
EndSplineSet
EndChar

StartChar: V
Encoding: 55 86 57
Width: 1588
VWidth: 3198
Flags: W
HStem: 0 21G<681.814 939.186> 1373 120<-12 128 543 687 1174 1349 1493 1618>
DStem2: 543 1373 128 1373 0.378817 -0.925472<0 1067.95> 946 384 931 0 0.378817 0.925472<0 1067.95>
LayerCount: 2
Fore
SplineSet
1618 1493 m 1,0,-1
 1618 1373 l 1,1,-1
 1493 1373 l 1,2,-1
 931 0 l 1,3,-1
 690 0 l 1,4,-1
 128 1373 l 1,5,-1
 -12 1373 l 1,6,-1
 -12 1493 l 1,7,-1
 687 1493 l 1,8,-1
 687 1373 l 1,9,-1
 543 1373 l 1,10,-1
 946 384 l 1,11,-1
 1349 1373 l 1,12,-1
 1174 1373 l 1,13,-1
 1174 1493 l 1,14,-1
 1618 1493 l 1,0,-1
EndSplineSet
EndChar

StartChar: W
Encoding: 56 87 58
Width: 2298
VWidth: 3198
Flags: W
HStem: 0 21G<546.809 815.237 1480.76 1749.21> 1373 120<-19 128 531 690 1862 2038 2169 2322>
DStem2: 531 1373 128 1373 0.295699 -0.955281<0 961.882> 815 454 809 0 0.297725 0.954652<0 703.437> 1420 1493 1148 1087 0.297725 -0.954652<306.607 1104.15> 1749 439 1743 0 0.296334 0.955085<0 977.689>
LayerCount: 2
Fore
SplineSet
1743 0 m 1,0,-1
 1487 0 l 1,1,-1
 1148 1087 l 1,2,-1
 809 0 l 1,3,-1
 553 0 l 1,4,-1
 128 1373 l 1,5,-1
 -19 1373 l 1,6,-1
 -19 1493 l 1,7,-1
 690 1493 l 1,8,-1
 690 1373 l 1,9,-1
 531 1373 l 1,10,-1
 815 454 l 1,11,-1
 1135 1493 l 1,12,-1
 1420 1493 l 1,13,-1
 1749 439 l 1,14,-1
 2038 1373 l 1,15,-1
 1862 1373 l 1,16,-1
 1862 1493 l 1,17,-1
 2322 1493 l 1,18,-1
 2322 1373 l 1,19,-1
 2169 1373 l 1,20,-1
 1743 0 l 1,0,-1
EndSplineSet
EndChar

StartChar: X
Encoding: 57 88 59
Width: 1588
VWidth: 3198
Flags: W
HStem: 0 122<39 220 384 565 842 1007 1446 1587> 1373 120<9 147 589 751 989 1163 1324 1510>
DStem2: 589 1373 147 1373 0.566501 -0.824061<0 508.691 715.693 1267.7> 220 122 384 122 0.569962 0.821671<93.4738 642.631> 876 953 956 836 0.565289 0.824893<0 508.693>
LayerCount: 2
Fore
SplineSet
693 576 m 1,0,-1
 384 122 l 1,1,-1
 565 122 l 1,2,-1
 565 0 l 1,3,-1
 39 0 l 1,4,-1
 39 122 l 1,5,-1
 220 122 l 1,6,-1
 614 690 l 1,7,-1
 147 1373 l 1,8,-1
 9 1373 l 1,9,-1
 9 1493 l 1,10,-1
 751 1493 l 1,11,-1
 751 1373 l 1,12,-1
 589 1373 l 1,13,-1
 876 953 l 1,14,-1
 1163 1373 l 1,15,-1
 989 1373 l 1,16,-1
 989 1493 l 1,17,-1
 1510 1493 l 1,18,-1
 1510 1373 l 1,19,-1
 1324 1373 l 1,20,-1
 956 836 l 1,21,-1
 1446 122 l 1,22,-1
 1587 122 l 1,23,-1
 1587 0 l 1,24,-1
 842 0 l 1,25,-1
 842 122 l 1,26,-1
 1007 122 l 1,27,-1
 693 576 l 1,0,-1
EndSplineSet
EndChar

StartChar: Y
Encoding: 58 89 60
Width: 1460
VWidth: 3198
Flags: W
HStem: 0 122<351 553 940 1138> 1373 120<-19 109 531 697 1053 1203 1352 1480>
VStem: 553 387<122 617>
DStem2: 531 1373 109 1373 0.506422 -0.862286<0 661.661> 867 803 940 668 0.504556 0.863379<0 661.657>
LayerCount: 2
Fore
SplineSet
351 0 m 1,0,-1
 351 122 l 1,1,-1
 553 122 l 1,2,-1
 553 617 l 1,3,-1
 109 1373 l 1,4,-1
 -19 1373 l 1,5,-1
 -19 1493 l 1,6,-1
 697 1493 l 1,7,-1
 697 1373 l 1,8,-1
 531 1373 l 1,9,-1
 867 803 l 1,10,-1
 1203 1373 l 1,11,-1
 1053 1373 l 1,12,-1
 1053 1493 l 1,13,-1
 1480 1493 l 1,14,-1
 1480 1373 l 1,15,-1
 1352 1373 l 1,16,-1
 940 668 l 1,17,-1
 940 122 l 1,18,-1
 1138 122 l 1,19,-1
 1138 0 l 1,20,-1
 351 0 l 1,0,-1
EndSplineSet
EndChar

StartChar: Z
Encoding: 59 90 61
Width: 1492
VWidth: 3198
Flags: W
HStem: 0 137<531 1282> 1356 137<253 965>
VStem: 116 137<1132 1356> 1282 138<137 345>
DStem2: 77 141 531 137 0.590067 0.807355<264.661 1504.91>
LayerCount: 2
Fore
SplineSet
77 0 m 1,0,-1
 77 141 l 1,1,-1
 965 1356 l 1,2,-1
 253 1356 l 1,3,-1
 253 1132 l 1,4,-1
 116 1132 l 1,5,-1
 116 1493 l 1,6,-1
 1410 1493 l 1,7,-1
 1410 1349 l 1,8,-1
 531 137 l 1,9,-1
 1282 137 l 1,10,-1
 1282 345 l 1,11,-1
 1420 345 l 1,12,-1
 1420 0 l 1,13,-1
 77 0 l 1,0,-1
EndSplineSet
EndChar

StartChar: bracketleft
Encoding: 60 91 62
Width: 968
VWidth: 3198
Flags: W
HStem: -269 119<611 821> 1437 117<611 821>
VStem: 256 355<-150 1437>
LayerCount: 2
Fore
SplineSet
256 1554 m 1,0,-1
 821 1554 l 1,1,-1
 821 1437 l 1,2,-1
 611 1437 l 1,3,-1
 611 -150 l 1,4,-1
 821 -150 l 1,5,-1
 821 -269 l 1,6,-1
 256 -269 l 1,7,-1
 256 1554 l 1,0,-1
EndSplineSet
EndChar

StartChar: backslash
Encoding: 61 92 63
Width: 748
VWidth: 3198
Flags: W
HStem: 1473 20G<0 226.267>
DStem2: 220 1493 0 1493 0.299017 -0.954248<0 1699.11>
LayerCount: 2
Fore
SplineSet
220 1493 m 1,0,-1
 748 -192 l 1,1,-1
 525 -192 l 1,2,-1
 0 1493 l 1,3,-1
 220 1493 l 1,0,-1
EndSplineSet
EndChar

StartChar: bracketright
Encoding: 62 93 64
Width: 968
VWidth: 3198
Flags: W
HStem: -269 119<144 358> 1437 117<144 358>
VStem: 358 356<-150 1437>
LayerCount: 2
Fore
SplineSet
714 1554 m 1,0,-1
 714 -269 l 1,1,-1
 144 -269 l 1,2,-1
 144 -150 l 1,3,-1
 358 -150 l 1,4,-1
 358 1437 l 1,5,-1
 144 1437 l 1,6,-1
 144 1554 l 1,7,-1
 714 1554 l 1,0,-1
EndSplineSet
EndChar

StartChar: asciicircum
Encoding: 63 94 65
Width: 1713
VWidth: 3198
Flags: W
HStem: 934 559
LayerCount: 2
Fore
SplineSet
973 1493 m 1,0,-1
 1510 934 l 1,1,-1
 1295 934 l 1,2,-1
 857 1251 l 1,3,-1
 419 934 l 1,4,-1
 208 934 l 1,5,-1
 748 1493 l 1,6,-1
 973 1493 l 1,0,-1
EndSplineSet
EndChar

StartChar: underscore
Encoding: 64 95 66
Width: 1022
VWidth: 3198
Flags: W
HStem: -483 189<0 1023>
LayerCount: 2
Fore
SplineSet
1023 -294 m 1,0,-1
 1023 -483 l 1,1,-1
 0 -483 l 1,2,-1
 0 -294 l 1,3,-1
 1023 -294 l 1,0,-1
EndSplineSet
EndChar

StartChar: grave
Encoding: 65 96 67
Width: 1022
VWidth: 3198
Flags: W
HStem: 1260 378
VStem: 141 537
LayerCount: 2
Fore
SplineSet
419 1638 m 1,0,-1
 678 1260 l 1,1,-1
 515 1260 l 1,2,-1
 141 1638 l 1,3,-1
 419 1638 l 1,0,-1
EndSplineSet
EndChar

StartChar: a
Encoding: 66 97 68
Width: 1325
VWidth: 3198
Flags: W
HStem: -28 165<340.5 626.154> 0 122<1129 1279> 547 118<505.768 775> 793 230<166 292.154> 982 108<362.657 693.199>
VStem: 83 353<184.477 481.646> 166 112<793 895.589> 775 354<122 134 198.996 547 665 874.038>
LayerCount: 2
Fore
SplineSet
1129 653 m 2,0,-1
 1129 122 l 1,1,-1
 1279 122 l 1,2,-1
 1279 0 l 1,3,-1
 775 0 l 1,4,-1
 775 134 l 1,5,6
 704 52 704 52 617.5 12 c 128,-1,7
 531 -28 531 -28 422 -28 c 0,8,9
 259 -28 259 -28 171 58 c 128,-1,10
 83 144 83 144 83 311 c 0,11,12
 83 486 83 486 209.5 575.5 c 128,-1,13
 336 665 336 665 589 665 c 2,14,-1
 775 665 l 1,15,-1
 775 729 l 2,16,17
 775 857 775 857 714 919.5 c 128,-1,18
 653 982 653 982 525 982 c 0,19,20
 419 982 419 982 362 938.5 c 128,-1,21
 305 895 305 895 278 793 c 1,22,-1
 166 793 l 1,23,-1
 166 1023 l 1,24,25
 259 1059 259 1059 361.5 1074.5 c 128,-1,26
 464 1090 464 1090 576 1090 c 0,27,28
 860 1090 860 1090 994.5 984.5 c 128,-1,29
 1129 879 1129 879 1129 653 c 2,0,-1
775 333 m 2,30,-1
 775 547 l 1,31,-1
 640 547 l 2,32,33
 543 547 543 547 489.5 493 c 128,-1,34
 436 439 436 439 436 339 c 0,35,36
 436 237 436 237 474 187 c 128,-1,37
 512 137 512 137 592 137 c 0,38,39
 675 137 675 137 725 192 c 128,-1,40
 775 247 775 247 775 333 c 2,30,-1
EndSplineSet
Substitution2: "Single Substitution lookup 22 subtable" uni0E38
Substitution2: "Single Substitution lookup 22 subtable" uni0E38
EndChar

StartChar: b
Encoding: 67 98 69
Width: 1428
VWidth: 3198
Flags: W
HStem: -28 156<665.228 873.87> 0 122<48 198> 934 156<665.228 874.865> 1437 117<48 198>
VStem: 198 355<122 134 216.287 847.302 928 1437> 953 396<265.767 797.536>
LayerCount: 2
Fore
SplineSet
198 122 m 1,0,-1
 198 1437 l 1,1,-1
 48 1437 l 1,2,-1
 48 1554 l 1,3,-1
 553 1554 l 1,4,-1
 553 928 l 1,5,6
 598 1010 598 1010 673 1050 c 128,-1,7
 748 1090 748 1090 860 1090 c 0,8,9
 1087 1090 1087 1090 1218 941.5 c 128,-1,10
 1349 793 1349 793 1349 531 c 256,11,12
 1349 269 1349 269 1218 120.5 c 128,-1,13
 1087 -28 1087 -28 860 -28 c 0,14,15
 748 -28 748 -28 673 12 c 128,-1,16
 598 52 598 52 553 134 c 1,17,-1
 553 0 l 1,18,-1
 48 0 l 1,19,-1
 48 122 l 1,20,-1
 198 122 l 1,0,-1
553 479 m 2,21,22
 553 294 553 294 600 211 c 128,-1,23
 647 128 647 128 754 128 c 0,24,25
 860 128 860 128 906.5 216.5 c 128,-1,26
 953 305 953 305 953 531 c 0,27,28
 953 761 953 761 906.5 847.5 c 128,-1,29
 860 934 860 934 754 934 c 0,30,31
 647 934 647 934 600 852.5 c 128,-1,32
 553 771 553 771 553 583 c 2,33,-1
 553 479 l 2,21,22
EndSplineSet
Substitution2: "Single Substitution lookup 22 subtable" uni0E39
Substitution2: "Single Substitution lookup 22 subtable" uni0E39
EndChar

StartChar: c
Encoding: 68 99 70
Width: 1246
VWidth: 3198
Flags: W
HStem: -28 111<592.125 885.876> 979 111<596.301 905.786>
VStem: 83 396<282.781 780.892> 989 165<199.826 333> 1007 113<714 868.572>
LayerCount: 2
Fore
SplineSet
1154 333 m 1,0,1
 1117 150 1117 150 999.5 61 c 128,-1,2
 882 -28 882 -28 678 -28 c 0,3,4
 397 -28 397 -28 240 118.5 c 128,-1,5
 83 265 83 265 83 531 c 256,6,7
 83 796 83 796 236.5 943 c 128,-1,8
 390 1090 390 1090 665 1090 c 0,9,10
 778 1090 778 1090 891 1069.5 c 128,-1,11
 1004 1049 1004 1049 1120 1007 c 1,12,-1
 1120 714 l 1,13,-1
 1007 714 l 1,14,15
 992 848 992 848 929.5 913.5 c 128,-1,16
 867 979 867 979 751 979 c 0,17,18
 604 979 604 979 541.5 878.5 c 128,-1,19
 479 778 479 778 479 531 c 0,20,21
 479 290 479 290 540 186.5 c 128,-1,22
 601 83 601 83 739 83 c 0,23,24
 845 83 845 83 910.5 148.5 c 128,-1,25
 976 214 976 214 989 333 c 1,26,-1
 1154 333 l 1,0,1
EndSplineSet
Substitution2: "Single Substitution lookup 22 subtable" uni0E3A
Substitution2: "Single Substitution lookup 22 subtable" uni0E3A
EndChar

StartChar: d
Encoding: 69 100 71
Width: 1428
VWidth: 3198
Flags: W
HStem: -28 156<556.435 762.835> 0 122<1231 1385> 934 156<553.785 762.835> 1437 117<726 879>
VStem: 83 396<263.898 797.536> 879 352<122 134 219.005 844.625 928 1437>
LayerCount: 2
Fore
SplineSet
879 479 m 2,0,-1
 879 583 l 2,1,2
 879 771 879 771 830 852.5 c 128,-1,3
 781 934 781 934 678 934 c 0,4,5
 565 934 565 934 522 847.5 c 128,-1,6
 479 761 479 761 479 531 c 0,7,8
 479 305 479 305 524.5 216.5 c 128,-1,9
 570 128 570 128 678 128 c 0,10,11
 781 128 781 128 830 211 c 128,-1,12
 879 294 879 294 879 479 c 2,0,-1
1231 122 m 1,13,-1
 1385 122 l 1,14,-1
 1385 0 l 1,15,-1
 879 0 l 1,16,-1
 879 134 l 1,17,18
 831 52 831 52 756 12 c 128,-1,19
 681 -28 681 -28 570 -28 c 0,20,21
 342 -28 342 -28 212.5 120.5 c 128,-1,22
 83 269 83 269 83 531 c 256,23,24
 83 793 83 793 212.5 941.5 c 128,-1,25
 342 1090 342 1090 570 1090 c 0,26,27
 681 1090 681 1090 756 1050 c 128,-1,28
 831 1010 831 1010 879 928 c 1,29,-1
 879 1437 l 1,30,-1
 726 1437 l 1,31,-1
 726 1554 l 1,32,-1
 1231 1554 l 1,33,-1
 1231 122 l 1,13,-1
EndSplineSet
EndChar

StartChar: e
Encoding: 70 101 72
Width: 1300
VWidth: 3198
Flags: W
HStem: -28 111<585.904 902.301> 479 122<479 821> 979 111<542.341 752.553>
VStem: 83 396<273.866 479 601 784.125> 1017 167<203.548 320>
LayerCount: 2
Fore
SplineSet
821 601 m 1,0,1
 821 809 821 809 781.5 894 c 128,-1,2
 742 979 742 979 650 979 c 256,3,4
 556 979 556 979 517.5 895.5 c 128,-1,5
 479 812 479 812 479 617 c 2,6,-1
 479 601 l 1,7,-1
 821 601 l 1,0,1
1209 479 m 1,8,-1
 479 479 l 1,9,-1
 479 473 l 2,10,11
 479 265 479 265 540 174 c 128,-1,12
 601 83 601 83 742 83 c 0,13,14
 857 83 857 83 927.5 145.5 c 128,-1,15
 998 208 998 208 1017 320 c 1,16,-1
 1184 320 l 1,17,18
 1138 141 1138 141 1010 56.5 c 128,-1,19
 882 -28 882 -28 656 -28 c 0,20,21
 378 -28 378 -28 230.5 117 c 128,-1,22
 83 262 83 262 83 531 c 0,23,24
 83 796 83 796 233.5 943 c 128,-1,25
 384 1090 384 1090 656 1090 c 0,26,27
 918 1090 918 1090 1058.5 935.5 c 128,-1,28
 1199 781 1199 781 1209 479 c 1,8,-1
EndSplineSet
EndChar

StartChar: f
Encoding: 71 102 73
Width: 879
VWidth: 3198
Flags: W
HStem: 0 122<70 220 576 781> 940 122<64 220 576 842> 1288 228<871.719 992> 1443 111<623.136 835.441>
VStem: 220 356<122 940 1062 1383.17> 879 113<1288 1405.35>
LayerCount: 2
Fore
SplineSet
992 1288 m 1,0,-1
 879 1288 l 1,1,2
 870 1370 870 1370 833 1406.5 c 128,-1,3
 796 1443 796 1443 726 1443 c 0,4,5
 647 1443 647 1443 611.5 1385 c 128,-1,6
 576 1327 576 1327 576 1199 c 2,7,-1
 576 1062 l 1,8,-1
 842 1062 l 1,9,-1
 842 940 l 1,10,-1
 576 940 l 1,11,-1
 576 122 l 1,12,-1
 781 122 l 1,13,-1
 781 0 l 1,14,-1
 70 0 l 1,15,-1
 70 122 l 1,16,-1
 220 122 l 1,17,-1
 220 940 l 1,18,-1
 64 940 l 1,19,-1
 64 1062 l 1,20,-1
 220 1062 l 1,21,-1
 220 1196 l 2,22,23
 220 1373 220 1373 334 1463.5 c 128,-1,24
 448 1554 448 1554 665 1554 c 0,25,26
 751 1554 751 1554 831.5 1544.5 c 128,-1,27
 912 1535 912 1535 992 1516 c 1,28,-1
 992 1288 l 1,0,-1
EndSplineSet
EndChar

StartChar: g
Encoding: 72 103 74
Width: 1428
VWidth: 3198
Flags: W
HStem: -454 112<389.467 768.869> -390 256<186 303.373> -28 156<556.435 762.835> 934 156<553.785 762.835> 940 122<1231 1385>
VStem: 83 396<263.898 797.536> 186 111<-252.276 -134> 879 352<-196.195 134 219.005 844.625 928 940>
LayerCount: 2
Fore
SplineSet
1231 940 m 1,0,-1
 1231 12 l 2,1,2
 1231 -211 1231 -211 1071.5 -332.5 c 128,-1,3
 912 -454 912 -454 623 -454 c 0,4,5
 515 -454 515 -454 406 -438 c 128,-1,6
 297 -422 297 -422 186 -390 c 1,7,-1
 186 -134 l 1,8,-1
 297 -134 l 1,9,10
 311 -241 311 -241 381 -291.5 c 128,-1,11
 451 -342 451 -342 579 -342 c 0,12,13
 742 -342 742 -342 810.5 -264 c 128,-1,14
 879 -186 879 -186 879 12 c 2,15,-1
 879 134 l 1,16,17
 831 52 831 52 756 12 c 128,-1,18
 681 -28 681 -28 570 -28 c 0,19,20
 342 -28 342 -28 212.5 120.5 c 128,-1,21
 83 269 83 269 83 531 c 256,22,23
 83 793 83 793 212.5 941.5 c 128,-1,24
 342 1090 342 1090 570 1090 c 0,25,26
 681 1090 681 1090 756 1050 c 128,-1,27
 831 1010 831 1010 879 928 c 1,28,-1
 879 1062 l 1,29,-1
 1385 1062 l 1,30,-1
 1385 940 l 1,31,-1
 1231 940 l 1,0,-1
879 583 m 2,32,33
 879 771 879 771 830 852.5 c 128,-1,34
 781 934 781 934 678 934 c 0,35,36
 565 934 565 934 522 847.5 c 128,-1,37
 479 761 479 761 479 531 c 0,38,39
 479 305 479 305 524.5 216.5 c 128,-1,40
 570 128 570 128 678 128 c 0,41,42
 781 128 781 128 830 211 c 128,-1,43
 879 294 879 294 879 479 c 2,44,-1
 879 583 l 2,32,33
EndSplineSet
EndChar

StartChar: h
Encoding: 73 104 75
Width: 1486
VWidth: 3198
Flags: W
HStem: 0 122<70 220 576 704 806 934 1288 1443> 925 165<715.612 1017.5> 1437 117<64 220>
VStem: 220 356<122 838.94 912 1437> 934 354<122 886.597>
LayerCount: 2
Fore
SplineSet
70 0 m 1,0,-1
 70 122 l 1,1,-1
 220 122 l 1,2,-1
 220 1437 l 1,3,-1
 64 1437 l 1,4,-1
 64 1554 l 1,5,-1
 576 1554 l 1,6,-1
 576 912 l 1,7,8
 640 1007 640 1007 721.5 1048.5 c 128,-1,9
 803 1090 803 1090 928 1090 c 0,10,11
 1107 1090 1107 1090 1197.5 984.5 c 128,-1,12
 1288 879 1288 879 1288 675 c 2,13,-1
 1288 122 l 1,14,-1
 1443 122 l 1,15,-1
 1443 0 l 1,16,-1
 806 0 l 1,17,-1
 806 122 l 1,18,-1
 934 122 l 1,19,-1
 934 684 l 2,20,21
 934 821 934 821 900.5 873 c 128,-1,22
 867 925 867 925 781 925 c 0,23,24
 675 925 675 925 625.5 846.5 c 128,-1,25
 576 768 576 768 576 598 c 2,26,-1
 576 122 l 1,27,-1
 704 122 l 1,28,-1
 704 0 l 1,29,-1
 70 0 l 1,0,-1
EndSplineSet
EndChar

StartChar: i
Encoding: 74 105 76
Width: 776
VWidth: 3198
Flags: W
HStem: 0 122<70 220 576 726> 940 122<70 220> 1174 380<253.389 506.289>
VStem: 189 384<1240.12 1487.83> 220 356<122 940>
LayerCount: 2
Fore
SplineSet
189 1362 m 0,0,1
 189 1446 189 1446 243 1500 c 128,-1,2
 297 1554 297 1554 381 1554 c 0,3,4
 461 1554 461 1554 517 1500 c 128,-1,5
 573 1446 573 1446 573 1362 c 0,6,7
 573 1282 573 1282 517 1228 c 128,-1,8
 461 1174 461 1174 381 1174 c 0,9,10
 297 1174 297 1174 243 1228 c 128,-1,11
 189 1282 189 1282 189 1362 c 0,0,1
576 122 m 1,12,-1
 726 122 l 1,13,-1
 726 0 l 1,14,-1
 70 0 l 1,15,-1
 70 122 l 1,16,-1
 220 122 l 1,17,-1
 220 940 l 1,18,-1
 70 940 l 1,19,-1
 70 1062 l 1,20,-1
 576 1062 l 1,21,-1
 576 122 l 1,12,-1
EndSplineSet
EndChar

StartChar: j
Encoding: 75 106 77
Width: 741
VWidth: 3198
Flags: W
HStem: -454 112<-10.3472 185.832> -415 223<-150 -39> 940 122<67 217> 1174 380<245.58 491.109>
VStem: -150 111<-304.349 -192> 180 379<1240.12 1486.03> 217 356<-292.997 940>
LayerCount: 2
Fore
SplineSet
180 1362 m 0,0,1
 180 1446 180 1446 233.5 1500 c 128,-1,2
 287 1554 287 1554 372 1554 c 0,3,4
 448 1554 448 1554 503.5 1498.5 c 128,-1,5
 559 1443 559 1443 559 1362 c 256,6,7
 559 1282 559 1282 505 1228 c 128,-1,8
 451 1174 451 1174 372 1174 c 256,9,10
 290 1174 290 1174 235 1228 c 128,-1,11
 180 1282 180 1282 180 1362 c 0,0,1
217 940 m 1,12,-1
 67 940 l 1,13,-1
 67 1062 l 1,14,-1
 573 1062 l 1,15,-1
 573 -125 l 2,16,17
 573 -287 573 -287 457.5 -370.5 c 128,-1,18
 342 -454 342 -454 116 -454 c 0,19,20
 58 -454 58 -454 -11 -445 c 128,-1,21
 -80 -436 -80 -436 -150 -415 c 1,22,-1
 -150 -192 l 1,23,-1
 -39 -192 l 1,24,25
 -39 -269 -39 -269 -8.5 -305.5 c 128,-1,26
 22 -342 22 -342 89 -342 c 0,27,28
 162 -342 162 -342 189.5 -294.5 c 128,-1,29
 217 -247 217 -247 217 -125 c 2,30,-1
 217 940 l 1,12,-1
EndSplineSet
EndChar

StartChar: k
Encoding: 76 107 78
Width: 1419
VWidth: 3198
Flags: W
HStem: 0 122<70 220 576 707 845 970 1340 1452> 940 122<876 1004 1163 1362> 1437 117<70 220>
VStem: 220 356<122 412 556 1437>
DStem2: 576 556 675 498 0.743483 0.668755<0 34.817 327.005 575.013> 889 697 675 498 0.617157 -0.78684<24.5097 502.423>
LayerCount: 2
Fore
SplineSet
707 0 m 1,0,-1
 70 0 l 1,1,-1
 70 122 l 1,2,-1
 220 122 l 1,3,-1
 220 1437 l 1,4,-1
 70 1437 l 1,5,-1
 70 1554 l 1,6,-1
 576 1554 l 1,7,-1
 576 556 l 1,8,-1
 1004 940 l 1,9,-1
 876 940 l 1,10,-1
 876 1062 l 1,11,-1
 1362 1062 l 1,12,-1
 1362 940 l 1,13,-1
 1163 940 l 1,14,-1
 889 697 l 1,15,-1
 1340 122 l 1,16,-1
 1452 122 l 1,17,-1
 1452 0 l 1,18,-1
 845 0 l 1,19,-1
 845 122 l 1,20,-1
 970 122 l 1,21,-1
 675 498 l 1,22,-1
 576 412 l 1,23,-1
 576 122 l 1,24,-1
 707 122 l 1,25,-1
 707 0 l 1,0,-1
EndSplineSet
EndChar

StartChar: l
Encoding: 77 108 79
Width: 776
VWidth: 3198
Flags: W
HStem: 0 122<70 220 576 726> 1437 117<70 220>
VStem: 220 356<122 1437>
LayerCount: 2
Fore
SplineSet
576 122 m 1,0,-1
 726 122 l 1,1,-1
 726 0 l 1,2,-1
 70 0 l 1,3,-1
 70 122 l 1,4,-1
 220 122 l 1,5,-1
 220 1437 l 1,6,-1
 70 1437 l 1,7,-1
 70 1554 l 1,8,-1
 576 1554 l 1,9,-1
 576 122 l 1,0,-1
EndSplineSet
EndChar

StartChar: m
Encoding: 78 109 80
Width: 2164
VWidth: 3198
Flags: W
HStem: 0 122<70 220 576 704 790 918 1270 1398 1487 1612 1968 2118> 925 165<713.884 973 1407.98 1695> 940 122<70 220>
VStem: 220 356<122 843.758 912 940> 918 352<122 840.605> 1612 356<122 889.033>
CounterMasks: 1 1c
LayerCount: 2
Fore
SplineSet
1242 889 m 1,0,1
 1318 995 1318 995 1402.5 1042.5 c 128,-1,2
 1487 1090 1487 1090 1602 1090 c 0,3,4
 1788 1090 1788 1090 1878 986 c 128,-1,5
 1968 882 1968 882 1968 675 c 2,6,-1
 1968 122 l 1,7,-1
 2118 122 l 1,8,-1
 2118 0 l 1,9,-1
 1487 0 l 1,10,-1
 1487 122 l 1,11,-1
 1612 122 l 1,12,-1
 1612 623 l 2,13,14
 1612 821 1612 821 1581.5 873 c 128,-1,15
 1551 925 1551 925 1471 925 c 0,16,17
 1376 925 1376 925 1323 853 c 128,-1,18
 1270 781 1270 781 1270 647 c 2,19,-1
 1270 122 l 1,20,-1
 1398 122 l 1,21,-1
 1398 0 l 1,22,-1
 790 0 l 1,23,-1
 790 122 l 1,24,-1
 918 122 l 1,25,-1
 918 623 l 2,26,27
 918 821 918 821 887.5 873 c 128,-1,28
 857 925 857 925 775 925 c 0,29,30
 678 925 678 925 627 853 c 128,-1,31
 576 781 576 781 576 647 c 2,32,-1
 576 122 l 1,33,-1
 704 122 l 1,34,-1
 704 0 l 1,35,-1
 70 0 l 1,36,-1
 70 122 l 1,37,-1
 220 122 l 1,38,-1
 220 940 l 1,39,-1
 70 940 l 1,40,-1
 70 1062 l 1,41,-1
 576 1062 l 1,42,-1
 576 912 l 1,43,44
 637 1004 637 1004 716.5 1047 c 128,-1,45
 796 1090 796 1090 909 1090 c 0,46,47
 1037 1090 1037 1090 1116.5 1041 c 128,-1,48
 1196 992 1196 992 1242 889 c 1,0,1
EndSplineSet
EndChar

StartChar: n
Encoding: 79 110 81
Width: 1486
VWidth: 3198
Flags: W
HStem: 0 122<70 220 576 704 806 934 1288 1443> 925 165<715.612 1017.5> 940 122<70 220>
VStem: 220 356<122 838.94 912 940> 934 354<122 886.597>
LayerCount: 2
Fore
SplineSet
70 0 m 1,0,-1
 70 122 l 1,1,-1
 220 122 l 1,2,-1
 220 940 l 1,3,-1
 70 940 l 1,4,-1
 70 1062 l 1,5,-1
 576 1062 l 1,6,-1
 576 912 l 1,7,8
 640 1007 640 1007 721.5 1048.5 c 128,-1,9
 803 1090 803 1090 928 1090 c 0,10,11
 1107 1090 1107 1090 1197.5 984.5 c 128,-1,12
 1288 879 1288 879 1288 675 c 2,13,-1
 1288 122 l 1,14,-1
 1443 122 l 1,15,-1
 1443 0 l 1,16,-1
 806 0 l 1,17,-1
 806 122 l 1,18,-1
 934 122 l 1,19,-1
 934 684 l 2,20,21
 934 821 934 821 900.5 873 c 128,-1,22
 867 925 867 925 781 925 c 0,23,24
 675 925 675 925 625.5 846.5 c 128,-1,25
 576 768 576 768 576 598 c 2,26,-1
 576 122 l 1,27,-1
 704 122 l 1,28,-1
 704 0 l 1,29,-1
 70 0 l 1,0,-1
EndSplineSet
EndChar

StartChar: o
Encoding: 80 111 82
Width: 1364
VWidth: 3198
Flags: W
HStem: -28 111<565.293 802.004> 979 111<565.293 802.553>
VStem: 83 396<288.185 772.267> 885 397<289.733 775.433>
LayerCount: 2
Fore
SplineSet
684 83 m 256,0,1
 796 83 796 83 840.5 179 c 128,-1,2
 885 275 885 275 885 531 c 256,3,4
 885 787 885 787 840.5 883 c 128,-1,5
 796 979 796 979 684 979 c 256,6,7
 573 979 573 979 526 883 c 128,-1,8
 479 787 479 787 479 531 c 0,9,10
 479 278 479 278 526 180.5 c 128,-1,11
 573 83 573 83 684 83 c 256,0,1
684 -28 m 0,12,13
 403 -28 403 -28 243 120.5 c 128,-1,14
 83 269 83 269 83 531 c 256,15,16
 83 793 83 793 243 941.5 c 128,-1,17
 403 1090 403 1090 684 1090 c 256,18,19
 965 1090 965 1090 1123.5 941.5 c 128,-1,20
 1282 793 1282 793 1282 531 c 256,21,22
 1282 269 1282 269 1122 120.5 c 128,-1,23
 962 -28 962 -28 684 -28 c 0,12,13
EndSplineSet
EndChar

StartChar: p
Encoding: 81 112 83
Width: 1428
VWidth: 3198
Flags: W
HStem: -425 120<48 198 553 717> -28 156<665.228 873.87> 934 156<665.228 874.865> 940 122<48 198>
VStem: 198 355<-305 134 216.287 847.302 928 940> 953 396<265.767 797.536>
LayerCount: 2
Fore
SplineSet
553 583 m 2,0,-1
 553 479 l 2,1,2
 553 294 553 294 600 211 c 128,-1,3
 647 128 647 128 754 128 c 0,4,5
 860 128 860 128 906.5 216.5 c 128,-1,6
 953 305 953 305 953 531 c 0,7,8
 953 761 953 761 906.5 847.5 c 128,-1,9
 860 934 860 934 754 934 c 0,10,11
 647 934 647 934 600 852.5 c 128,-1,12
 553 771 553 771 553 583 c 2,0,-1
198 940 m 1,13,-1
 48 940 l 1,14,-1
 48 1062 l 1,15,-1
 553 1062 l 1,16,-1
 553 928 l 1,17,18
 598 1010 598 1010 673 1050 c 128,-1,19
 748 1090 748 1090 860 1090 c 0,20,21
 1087 1090 1087 1090 1218 941.5 c 128,-1,22
 1349 793 1349 793 1349 531 c 256,23,24
 1349 269 1349 269 1218 120.5 c 128,-1,25
 1087 -28 1087 -28 860 -28 c 0,26,27
 748 -28 748 -28 673 12 c 128,-1,28
 598 52 598 52 553 134 c 1,29,-1
 553 -305 l 1,30,-1
 717 -305 l 1,31,-1
 717 -425 l 1,32,-1
 48 -425 l 1,33,-1
 48 -305 l 1,34,-1
 198 -305 l 1,35,-1
 198 940 l 1,13,-1
EndSplineSet
EndChar

StartChar: q
Encoding: 82 113 84
Width: 1428
VWidth: 3198
Flags: W
HStem: -425 120<714 879 1231 1385> -28 156<556.435 762.835> 934 156<553.785 762.835> 940 122<1231 1385>
VStem: 83 396<263.898 797.536> 879 352<-305 134 219.005 844.625 928 940>
LayerCount: 2
Fore
SplineSet
1231 940 m 1,0,-1
 1231 -305 l 1,1,-1
 1385 -305 l 1,2,-1
 1385 -425 l 1,3,-1
 714 -425 l 1,4,-1
 714 -305 l 1,5,-1
 879 -305 l 1,6,-1
 879 134 l 1,7,8
 831 52 831 52 756 12 c 128,-1,9
 681 -28 681 -28 570 -28 c 0,10,11
 342 -28 342 -28 212.5 120.5 c 128,-1,12
 83 269 83 269 83 531 c 256,13,14
 83 793 83 793 212.5 941.5 c 128,-1,15
 342 1090 342 1090 570 1090 c 0,16,17
 681 1090 681 1090 756 1050 c 128,-1,18
 831 1010 831 1010 879 928 c 1,19,-1
 879 1062 l 1,20,-1
 1385 1062 l 1,21,-1
 1385 940 l 1,22,-1
 1231 940 l 1,0,-1
879 583 m 2,23,24
 879 771 879 771 830 852.5 c 128,-1,25
 781 934 781 934 678 934 c 0,26,27
 565 934 565 934 522 847.5 c 128,-1,28
 479 761 479 761 479 531 c 0,29,30
 479 305 479 305 524.5 216.5 c 128,-1,31
 570 128 570 128 678 128 c 0,32,33
 781 128 781 128 830 211 c 128,-1,34
 879 294 879 294 879 479 c 2,35,-1
 879 583 l 2,23,24
EndSplineSet
EndChar

StartChar: r
Encoding: 83 114 85
Width: 1077
VWidth: 3198
Flags: W
HStem: 0 122<70 220 576 768> 925 165<727.822 944.042> 940 122<61 220>
VStem: 220 356<122 786.859 873 940> 985 116<757 883.738>
LayerCount: 2
Fore
SplineSet
1101 1074 m 1,0,-1
 1101 757 l 1,1,-1
 985 757 l 1,2,3
 982 845 982 845 942.5 885 c 128,-1,4
 903 925 903 925 825 925 c 0,5,6
 707 925 707 925 641.5 824 c 128,-1,7
 576 723 576 723 576 540 c 2,8,-1
 576 122 l 1,9,-1
 768 122 l 1,10,-1
 768 0 l 1,11,-1
 70 0 l 1,12,-1
 70 122 l 1,13,-1
 220 122 l 1,14,-1
 220 940 l 1,15,-1
 61 940 l 1,16,-1
 61 1062 l 1,17,-1
 576 1062 l 1,18,-1
 576 873 l 1,19,20
 626 985 626 985 713 1037.5 c 128,-1,21
 800 1090 800 1090 921 1090 c 0,22,23
 953 1090 953 1090 998 1087 c 128,-1,24
 1043 1084 1043 1084 1101 1074 c 1,0,-1
EndSplineSet
EndChar

StartChar: s
Encoding: 84 115 86
Width: 1150
VWidth: 3198
Flags: W
HStem: -28 111<322.31 669.877> 979 111<458.114 807.133>
VStem: 89 317<689.503 929.241> 95 113<197.59 326> 726 342<143.339 329.763> 903 111<757 884.991>
LayerCount: 2
Fore
SplineSet
95 31 m 1,0,-1
 95 326 l 1,1,-1
 208 326 l 1,2,3
 223 208 223 208 297.5 145.5 c 128,-1,4
 372 83 372 83 503 83 c 0,5,6
 611 83 611 83 668.5 121 c 128,-1,7
 726 159 726 159 726 230 c 0,8,9
 726 294 726 294 689.5 327.5 c 128,-1,10
 653 361 653 361 547 390 c 2,11,-1
 400 425 l 2,12,13
 237 467 237 467 163 543.5 c 128,-1,14
 89 620 89 620 89 748 c 0,15,16
 89 925 89 925 207.5 1007.5 c 128,-1,17
 326 1090 326 1090 576 1090 c 0,18,19
 672 1090 672 1090 777 1076 c 128,-1,20
 882 1062 882 1062 1014 1026 c 1,21,-1
 1014 757 l 1,22,-1
 903 757 l 1,23,24
 892 867 892 867 823 923 c 128,-1,25
 754 979 754 979 626 979 c 0,26,27
 518 979 518 979 462 944 c 128,-1,28
 406 909 406 909 406 845 c 0,29,30
 406 790 406 790 438 758 c 128,-1,31
 470 726 470 726 553 707 c 2,32,-1
 701 668 l 2,33,34
 909 617 909 617 988.5 539 c 128,-1,35
 1068 461 1068 461 1068 320 c 0,36,37
 1068 141 1068 141 938.5 56.5 c 128,-1,38
 809 -28 809 -28 540 -28 c 0,39,40
 442 -28 442 -28 329.5 -14 c 128,-1,41
 217 0 217 0 95 31 c 1,0,-1
EndSplineSet
EndChar

StartChar: t
Encoding: 85 116 87
Width: 946
VWidth: 3198
Flags: W
HStem: -28 111<467 753.489> 940 122<48 201 556 851>
VStem: 201 355<117.573 940 1062 1391> 787 147<127.87 259>
LayerCount: 2
Fore
SplineSet
201 940 m 1,0,-1
 48 940 l 1,1,-1
 48 1062 l 1,2,-1
 201 1062 l 1,3,-1
 201 1391 l 1,4,-1
 556 1391 l 1,5,-1
 556 1062 l 1,6,-1
 851 1062 l 1,7,-1
 851 940 l 1,8,-1
 556 940 l 1,9,-1
 556 290 l 2,10,11
 556 150 556 150 578.5 116.5 c 128,-1,12
 601 83 601 83 659 83 c 0,13,14
 723 83 723 83 753.5 126.5 c 128,-1,15
 784 170 784 170 787 259 c 1,16,-1
 934 259 l 1,17,18
 928 98 928 98 849.5 35 c 128,-1,19
 771 -28 771 -28 576 -28 c 0,20,21
 358 -28 358 -28 279.5 40.5 c 128,-1,22
 201 109 201 109 201 290 c 2,23,-1
 201 940 l 1,0,-1
EndSplineSet
EndChar

StartChar: u
Encoding: 86 117 88
Width: 1486
VWidth: 3198
Flags: W
HStem: -28 165<471.5 772.693> 0 122<1267 1420> 940 122<48 198 784 912>
VStem: 198 355<174.952 940> 912 355<122 150 225.682 940>
LayerCount: 2
Fore
SplineSet
1267 1062 m 1,0,-1
 1267 122 l 1,1,-1
 1420 122 l 1,2,-1
 1420 0 l 1,3,-1
 912 0 l 1,4,-1
 912 150 l 1,5,6
 851 55 851 55 767.5 13.5 c 128,-1,7
 684 -28 684 -28 559 -28 c 0,8,9
 384 -28 384 -28 291 77.5 c 128,-1,10
 198 183 198 183 198 387 c 2,11,-1
 198 940 l 1,12,-1
 48 940 l 1,13,-1
 48 1062 l 1,14,-1
 553 1062 l 1,15,-1
 553 442 l 2,16,17
 553 244 553 244 585 190.5 c 128,-1,18
 617 137 617 137 707 137 c 0,19,20
 812 137 812 137 862 215.5 c 128,-1,21
 912 294 912 294 912 467 c 2,22,-1
 912 940 l 1,23,-1
 784 940 l 1,24,-1
 784 1062 l 1,25,-1
 1267 1062 l 1,0,-1
EndSplineSet
EndChar

StartChar: v
Encoding: 87 118 89
Width: 1188
VWidth: 3198
Flags: W
HStem: 0 21G<449.957 749.979> 940 122<-39 80 445 573 842 982 1117 1242>
DStem2: 445 940 80 940 0.373092 -0.927794<0 722.912> 714 269 742 0 0.370539 0.928817<0 722.541>
LayerCount: 2
Fore
SplineSet
458 0 m 1,0,-1
 80 940 l 1,1,-1
 -39 940 l 1,2,-1
 -39 1062 l 1,3,-1
 573 1062 l 1,4,-1
 573 940 l 1,5,-1
 445 940 l 1,6,-1
 714 269 l 1,7,-1
 982 940 l 1,8,-1
 842 940 l 1,9,-1
 842 1062 l 1,10,-1
 1242 1062 l 1,11,-1
 1242 940 l 1,12,-1
 1117 940 l 1,13,-1
 742 0 l 1,14,-1
 458 0 l 1,0,-1
EndSplineSet
EndChar

StartChar: w
Encoding: 88 119 90
Width: 1761
VWidth: 3198
Flags: W
HStem: 0 21G<412.17 668.827 1106.26 1362.87> 940 122<-19 98 458 583 1407 1545 1679 1804>
DStem2: 458 940 98 940 0.323166 -0.946342<0 604.348> 656 369 662 0 0.322368 0.946614<0 355.31> 1343 355 1356 0 0.324967 0.945725<0 618.893>
LayerCount: 2
Fore
SplineSet
1104 1062 m 1,0,-1
 1343 355 l 1,1,-1
 1545 940 l 1,2,-1
 1407 940 l 1,3,-1
 1407 1062 l 1,4,-1
 1804 1062 l 1,5,-1
 1804 940 l 1,6,-1
 1679 940 l 1,7,-1
 1356 0 l 1,8,-1
 1113 0 l 1,9,-1
 889 665 l 1,10,-1
 662 0 l 1,11,-1
 419 0 l 1,12,-1
 98 940 l 1,13,-1
 -19 940 l 1,14,-1
 -19 1062 l 1,15,-1
 583 1062 l 1,16,-1
 583 940 l 1,17,-1
 458 940 l 1,18,-1
 656 369 l 1,19,-1
 892 1062 l 1,20,-1
 1104 1062 l 1,0,-1
EndSplineSet
EndChar

StartChar: x
Encoding: 89 120 91
Width: 1218
VWidth: 3198
Flags: W
HStem: 0 122<0 150 294 439 559 697 1093 1235> 940 122<9 128 531 659 778 909 1049 1190>
DStem2: 531 940 128 940 0.571035 -0.820926<0 292.182 451.356 766.309> 150 122 294 122 0.585491 0.810679<84.3106 427.363> 720 678 778 562 0.582661 0.812715<0 323.054>
LayerCount: 2
Fore
SplineSet
720 678 m 1,0,-1
 909 940 l 1,1,-1
 778 940 l 1,2,-1
 778 1062 l 1,3,-1
 1190 1062 l 1,4,-1
 1190 940 l 1,5,-1
 1049 940 l 1,6,-1
 778 562 l 1,7,-1
 1093 122 l 1,8,-1
 1235 122 l 1,9,-1
 1235 0 l 1,10,-1
 559 0 l 1,11,-1
 559 122 l 1,12,-1
 697 122 l 1,13,-1
 495 400 l 1,14,-1
 294 122 l 1,15,-1
 439 122 l 1,16,-1
 439 0 l 1,17,-1
 0 0 l 1,18,-1
 0 122 l 1,19,-1
 150 122 l 1,20,-1
 436 518 l 1,21,-1
 128 940 l 1,22,-1
 9 940 l 1,23,-1
 9 1062 l 1,24,-1
 659 1062 l 1,25,-1
 659 940 l 1,26,-1
 531 940 l 1,27,-1
 720 678 l 1,0,-1
EndSplineSet
EndChar

StartChar: y
Encoding: 90 121 92
Width: 1188
VWidth: 3198
Flags: W
HStem: -454 112<244.854 457.909> -412 220<98 214> 940 122<-25 89 458 586 839 982 1110 1238>
VStem: 98 116<-304.349 -192>
DStem2: 458 940 89 940 0.394436 -0.918924<0 682.138> 550 -134 640 -241 0.369762 0.929126<-192.937 0 482.436 1157.62>
LayerCount: 2
Fore
SplineSet
640 -241 m 2,0,1
 592 -355 592 -355 523 -404.5 c 128,-1,2
 454 -454 454 -454 339 -454 c 0,3,4
 290 -454 290 -454 230 -442.5 c 128,-1,5
 170 -431 170 -431 98 -412 c 1,6,-1
 98 -192 l 1,7,-1
 214 -192 l 1,8,9
 214 -269 214 -269 247.5 -305.5 c 128,-1,10
 281 -342 281 -342 348 -342 c 256,11,12
 415 -342 415 -342 455 -305.5 c 128,-1,13
 495 -269 495 -269 534 -173 c 2,14,-1
 550 -134 l 1,15,-1
 89 940 l 1,16,-1
 -25 940 l 1,17,-1
 -25 1062 l 1,18,-1
 586 1062 l 1,19,-1
 586 940 l 1,20,-1
 458 940 l 1,21,-1
 729 314 l 1,22,-1
 982 940 l 1,23,-1
 839 940 l 1,24,-1
 839 1062 l 1,25,-1
 1238 1062 l 1,26,-1
 1238 940 l 1,27,-1
 1110 940 l 1,28,-1
 640 -241 l 2,0,1
EndSplineSet
EndChar

StartChar: z
Encoding: 91 122 93
Width: 1163
VWidth: 3198
Flags: W
HStem: 0 119<483 976> 946 116<223 681>
VStem: 106 117<764 946> 976 117<119 311>
DStem2: 70 122 483 119 0.595624 0.803264<243.583 1025.82>
LayerCount: 2
Fore
SplineSet
70 0 m 1,0,-1
 70 122 l 1,1,-1
 681 946 l 1,2,-1
 223 946 l 1,3,-1
 223 764 l 1,4,-1
 106 764 l 1,5,-1
 106 1062 l 1,6,-1
 1093 1062 l 1,7,-1
 1093 943 l 1,8,-1
 483 119 l 1,9,-1
 976 119 l 1,10,-1
 976 311 l 1,11,-1
 1093 311 l 1,12,-1
 1093 0 l 1,13,-1
 70 0 l 1,0,-1
EndSplineSet
EndChar

StartChar: braceleft
Encoding: 92 123 94
Width: 1316
VWidth: 3198
Flags: W
HStem: -333 119<882.476 1132> 550 122<173 412.609> 1437 117<882.476 1132>
VStem: 479 357<-169.914 483.514 739.049 1392.71>
LayerCount: 2
Fore
SplineSet
1132 -214 m 1,0,-1
 1132 -333 l 1,1,-1
 985 -333 l 2,2,3
 748 -333 748 -333 667 -308.5 c 128,-1,4
 586 -284 586 -284 534 -223 c 0,5,6
 506 -186 506 -186 492.5 -131.5 c 128,-1,7
 479 -77 479 -77 479 36 c 2,8,-1
 479 284 l 2,9,10
 479 436 479 436 427 493 c 128,-1,11
 375 550 375 550 234 550 c 2,12,-1
 173 550 l 1,13,-1
 173 672 l 1,14,-1
 234 672 l 2,15,16
 375 672 375 672 427 729.5 c 128,-1,17
 479 787 479 787 479 937 c 2,18,-1
 479 1187 l 2,19,20
 479 1298 479 1298 492.5 1352.5 c 128,-1,21
 506 1407 506 1407 534 1446 c 0,22,23
 586 1507 586 1507 667 1530.5 c 128,-1,24
 748 1554 748 1554 985 1554 c 2,25,-1
 1132 1554 l 1,26,-1
 1132 1437 l 1,27,-1
 1029 1437 l 2,28,29
 918 1437 918 1437 877 1388.5 c 128,-1,30
 836 1340 836 1340 836 1206 c 2,31,-1
 836 934 l 2,32,33
 836 778 836 778 786 709 c 128,-1,34
 736 640 736 640 608 611 c 1,35,36
 739 576 739 576 787.5 512 c 128,-1,37
 836 448 836 448 836 287 c 2,38,-1
 836 16 l 2,39,40
 836 -119 836 -119 877 -166.5 c 128,-1,41
 918 -214 918 -214 1029 -214 c 2,42,-1
 1132 -214 l 1,0,-1
EndSplineSet
EndChar

StartChar: bar
Encoding: 93 124 95
Width: 744
VWidth: 3198
Flags: W
VStem: 265 214<-483 1563>
LayerCount: 2
Fore
SplineSet
479 1563 m 1,0,-1
 479 -483 l 1,1,-1
 265 -483 l 1,2,-1
 265 1563 l 1,3,-1
 479 1563 l 1,0,-1
EndSplineSet
EndChar

StartChar: braceright
Encoding: 94 125 96
Width: 1316
VWidth: 3198
Flags: W
HStem: -333 119<186 433.51> 550 122<902.438 1145> 1437 117<186 433.51>
VStem: 479 357<-169.914 482.686 739.049 1392.71>
LayerCount: 2
Fore
SplineSet
186 -214 m 1,0,-1
 287 -214 l 2,1,2
 397 -214 397 -214 438 -166.5 c 128,-1,3
 479 -119 479 -119 479 16 c 2,4,-1
 479 287 l 2,5,6
 479 445 479 445 529 510.5 c 128,-1,7
 579 576 579 576 711 611 c 1,8,9
 583 640 583 640 531 709 c 128,-1,10
 479 778 479 778 479 934 c 2,11,-1
 479 1206 l 2,12,13
 479 1340 479 1340 438 1388.5 c 128,-1,14
 397 1437 397 1437 287 1437 c 2,15,-1
 186 1437 l 1,16,-1
 186 1554 l 1,17,-1
 333 1554 l 2,18,19
 565 1554 565 1554 647 1530.5 c 128,-1,20
 729 1507 729 1507 781 1446 c 0,21,22
 809 1407 809 1407 822.5 1352.5 c 128,-1,23
 836 1298 836 1298 836 1187 c 2,24,-1
 836 937 l 2,25,26
 836 787 836 787 888 729.5 c 128,-1,27
 940 672 940 672 1084 672 c 2,28,-1
 1145 672 l 1,29,-1
 1145 550 l 1,30,-1
 1084 550 l 2,31,32
 940 550 940 550 888 493 c 128,-1,33
 836 436 836 436 836 284 c 2,34,-1
 836 36 l 2,35,36
 836 -77 836 -77 822.5 -131.5 c 128,-1,37
 809 -186 809 -186 781 -223 c 0,38,39
 729 -284 729 -284 647 -308.5 c 128,-1,40
 565 -333 565 -333 333 -333 c 2,41,-1
 186 -333 l 1,42,-1
 186 -214 l 1,0,-1
EndSplineSet
EndChar

StartChar: asciitilde
Encoding: 95 126 97
Width: 1713
VWidth: 3198
Flags: W
HStem: 458 226<951.021 1324.45> 598 230<399.661 762.966>
LayerCount: 2
Fore
SplineSet
1496 831 m 1,0,-1
 1496 623 l 1,1,2
 1407 537 1407 537 1312.5 497.5 c 128,-1,3
 1218 458 1218 458 1117 458 c 0,4,5
 1023 458 1023 458 870 515 c 0,6,7
 854 522 854 522 845 525 c 1,8,9
 839 525 839 525 825 531 c 0,10,11
 653 598 653 598 556 598 c 0,12,13
 479 598 479 598 396.5 561.5 c 128,-1,14
 314 525 314 525 217 451 c 1,15,-1
 217 659 l 1,16,17
 314 745 314 745 406 786.5 c 128,-1,18
 498 828 498 828 598 828 c 0,19,20
 690 828 690 828 845 771 c 0,21,22
 860 764 860 764 870 757 c 1,23,-1
 882 754 l 2,24,25
 1059 684 1059 684 1157 684 c 0,26,27
 1238 684 1238 684 1319.5 720.5 c 128,-1,28
 1401 757 1401 757 1496 831 c 1,0,-1
EndSplineSet
EndChar

StartChar: nounicode-3-1-45
Encoding: 376 -1 98
Width: 0
VWidth: 3198
Flags: W
HStem: 0 21G<-959 0>
VStem: -959 959<0 1919>
LayerCount: 2
Fore
SplineSet
-959 1919 m 1,0,-1
 0 1919 l 1,1,-1
 0 0 l 1,2,-1
 -959 0 l 1,3,-1
 -959 1919 l 1,0,-1
EndSplineSet
EndChar

StartChar: uni0E10.descless
Encoding: 338 63232 99
Width: 1352
VWidth: 3198
Flags: W
HStem: 348 80<364.361 484.209> 668 86<358.086 485.49> 851 114<326 843.903> 1132 103<408.625 614.999>
VStem: 183 156<444.35 645.296> 940 287<409.916 777.983>
DStem2: 876 259 1184 415 0.220574 0.97537<5.23601 395.273>
LayerCount: 2
Fore
SplineSet
98 1020 m 0,0,1
 183 1142 183 1142 291.5 1188.5 c 128,-1,2
 400 1235 400 1235 543 1235 c 1,3,-1
 995 1145 l 1,4,5
 1074 1145 1074 1145 1158 1164.5 c 128,-1,6
 1242 1184 1242 1184 1306 1227 c 1,7,-1
 1306 976 l 1,8,9
 1257 962 1257 962 1196 962 c 0,10,11
 1090 962 1090 962 984.5 978.5 c 128,-1,12
 879 995 879 995 781 1040 c 0,13,14
 720 1065 720 1065 660.5 1098.5 c 128,-1,15
 601 1132 601 1132 534 1132 c 0,16,17
 454 1132 454 1132 402.5 1084.5 c 128,-1,18
 351 1037 351 1037 326 965 c 1,19,-1
 355 965 l 2,20,21
 439 965 439 965 564.5 962 c 128,-1,22
 690 959 690 959 816.5 943.5 c 128,-1,23
 943 928 943 928 1047 892.5 c 128,-1,24
 1151 857 1151 857 1193 790 c 0,25,26
 1218 751 1218 751 1222.5 719 c 128,-1,27
 1227 687 1227 687 1227 643 c 0,28,29
 1227 586 1227 586 1213 528 c 128,-1,30
 1199 470 1199 470 1184 415 c 0,31,32
 1126 217 1126 217 1096 3 c 1,33,-1
 768 3 l 1,34,-1
 576 406 l 1,35,36
 540 381 540 381 502 364.5 c 128,-1,37
 464 348 464 348 419 348 c 0,38,39
 323 348 323 348 253 396.5 c 128,-1,40
 183 445 183 445 183 550 c 0,41,42
 183 608 183 608 206.5 647.5 c 128,-1,43
 230 687 230 687 269 711.5 c 128,-1,44
 308 736 308 736 355.5 745 c 128,-1,45
 403 754 403 754 454 754 c 256,46,47
 506 754 506 754 546 745 c 128,-1,48
 586 736 586 736 626 704 c 0,49,50
 659 681 659 681 694 621.5 c 128,-1,51
 729 562 729 562 762.5 495 c 128,-1,52
 796 428 796 428 826.5 362.5 c 128,-1,53
 857 297 857 297 876 259 c 1,54,55
 898 355 898 355 919 452.5 c 128,-1,56
 940 550 940 550 940 653 c 0,57,58
 940 697 940 697 929 729 c 128,-1,59
 918 761 918 761 882 790 c 0,60,61
 864 806 864 806 785.5 818.5 c 128,-1,62
 707 831 707 831 605 839.5 c 128,-1,63
 503 848 503 848 389 851 c 128,-1,64
 275 854 275 854 183 854 c 0,65,66
 131 854 131 854 91.5 854 c 128,-1,67
 52 854 52 854 25 851 c 1,68,69
 45 940 45 940 98 1020 c 0,0,1
506 550 m 256,70,71
 506 586 506 586 485 627 c 128,-1,72
 464 668 464 668 425 668 c 0,73,74
 381 668 381 668 360 634.5 c 128,-1,75
 339 601 339 601 339 562 c 0,76,77
 339 543 339 543 343.5 520.5 c 128,-1,78
 348 498 348 498 358.5 478 c 128,-1,79
 369 458 369 458 384.5 443 c 128,-1,80
 400 428 400 428 422 428 c 0,81,82
 467 428 467 428 486.5 471.5 c 128,-1,83
 506 515 506 515 506 550 c 256,70,71
EndSplineSet
EndChar

StartChar: uni0E34.left
Encoding: 339 63233 100
Width: 0
VWidth: 3198
Flags: W
HStem: 1794 86<-1197.29 -904.743>
DStem2: -1009 1630 -1009 1529 0.98975 -0.14281<-288.82 292.607>
LayerCount: 2
Fore
SplineSet
-1557 1563 m 1,0,1
 -1480 1712 -1480 1712 -1371.5 1796 c 128,-1,2
 -1263 1880 -1263 1880 -1090 1880 c 0,3,4
 -965 1880 -965 1880 -871.5 1853 c 128,-1,5
 -778 1826 -778 1826 -703.5 1773.5 c 128,-1,6
 -629 1721 -629 1721 -572 1640.5 c 128,-1,7
 -515 1560 -515 1560 -464 1452 c 1,8,9
 -467 1452 -467 1452 -510 1457 c 128,-1,10
 -553 1462 -553 1462 -615.5 1471 c 128,-1,11
 -678 1480 -678 1480 -751.5 1492 c 128,-1,12
 -825 1504 -825 1504 -892 1513.5 c 128,-1,13
 -959 1523 -959 1523 -1009 1529 c 128,-1,14
 -1059 1535 -1059 1535 -1074 1535 c 2,15,-1
 -1557 1563 l 1,0,1
-720 1584 m 1,16,17
 -787 1663 -787 1663 -870 1728.5 c 128,-1,18
 -953 1794 -953 1794 -1065 1794 c 0,19,20
 -1142 1794 -1142 1794 -1198 1751 c 128,-1,21
 -1254 1708 -1254 1708 -1302 1654 c 1,22,23
 -1154 1648 -1154 1648 -1009 1630 c 128,-1,24
 -864 1612 -864 1612 -720 1584 c 1,16,17
EndSplineSet
EndChar

StartChar: uni0E35.left
Encoding: 340 63234 101
Width: 0
VWidth: 3198
Flags: W
HStem: 1580.5 81<-1274.8 -942.938> 1798 98<-1177.99 -856.457>
VStem: -726 262<1810 1941>
DStem2: -849.5 1628 -864.5 1530.5 0.983135 -0.18288<-178.056 184.84>
LayerCount: 2
Fore
SplineSet
-1046 1557 m 0,0,1
 -1120 1568 -1120 1568 -1204 1572.5 c 128,-1,2
 -1288 1577 -1288 1577 -1364 1580.5 c 128,-1,3
 -1440 1584 -1440 1584 -1489 1587 c 128,-1,4
 -1538 1590 -1538 1590 -1541 1590 c 1,5,6
 -1493 1669 -1493 1669 -1445.5 1727 c 128,-1,7
 -1398 1785 -1398 1785 -1340 1823.5 c 128,-1,8
 -1282 1862 -1282 1862 -1210 1879 c 128,-1,9
 -1138 1896 -1138 1896 -1043 1896 c 0,10,11
 -870 1896 -870 1896 -726 1810 c 1,12,-1
 -726 1941 l 1,13,-1
 -464 1941 l 1,14,-1
 -464 1456 l 1,15,16
 -570 1477 -570 1477 -675 1496 c 0,17,18
 -764 1513 -764 1513 -864.5 1530.5 c 128,-1,19
 -965 1548 -965 1548 -1046 1557 c 0,0,1
-668 1593 m 1,20,21
 -742 1679 -742 1679 -830 1738.5 c 128,-1,22
 -918 1798 -918 1798 -1037 1798 c 0,23,24
 -1107 1798 -1107 1798 -1169 1759.5 c 128,-1,25
 -1231 1721 -1231 1721 -1276 1673 c 1,26,-1
 -1199 1669 l 2,27,28
 -1157 1663 -1157 1663 -1117.5 1661.5 c 128,-1,29
 -1078 1660 -1078 1660 -1029 1654 c 0,30,31
 -928 1641 -928 1641 -849.5 1628 c 128,-1,32
 -771 1615 -771 1615 -668 1593 c 1,20,21
EndSplineSet
EndChar

StartChar: uni0E36.left
Encoding: 341 63235 102
Width: 0
VWidth: 3198
Flags: W
HStem: 1426 279<-674.667 -555.755> 1779 111<-1144.37 -848.798> 1916 58<-660.185 -553.711>
VStem: -531 137<1726.26 1894.13>
DStem2: -1235 1660 -1297 1561 0.992941 -0.118611<0 559.544>
LayerCount: 2
Fore
SplineSet
-394 1798 m 0,0,1
 -394 1721 -394 1721 -432 1686 c 128,-1,2
 -470 1651 -470 1651 -543 1638 c 1,3,4
 -509 1593 -509 1593 -492.5 1536.5 c 128,-1,5
 -476 1480 -476 1480 -467 1426 c 1,6,7
 -573 1426 -573 1426 -713.5 1465 c 128,-1,8
 -854 1504 -854 1504 -1004 1526 c 0,9,10
 -1020 1529 -1020 1529 -1031.5 1529 c 128,-1,11
 -1043 1529 -1043 1529 -1056 1532 c 2,12,-1
 -1120 1541 l 2,13,14
 -1126 1541 -1126 1541 -1130.5 1543 c 128,-1,15
 -1135 1545 -1135 1545 -1142 1545 c 2,16,-1
 -1168 1548 l 2,17,18
 -1235 1554 -1235 1554 -1297 1561 c 128,-1,19
 -1359 1568 -1359 1568 -1462 1568 c 2,20,-1
 -1554 1568 l 1,21,22
 -1526 1635 -1526 1635 -1473 1692 c 128,-1,23
 -1420 1749 -1420 1749 -1352.5 1794.5 c 128,-1,24
 -1285 1840 -1285 1840 -1210 1865 c 128,-1,25
 -1135 1890 -1135 1890 -1062 1890 c 0,26,27
 -998 1890 -998 1890 -940 1877.5 c 128,-1,28
 -882 1865 -882 1865 -828 1843 c 1,29,30
 -821 1913 -821 1913 -762.5 1943.5 c 128,-1,31
 -704 1974 -704 1974 -643 1974 c 0,32,33
 -601 1974 -601 1974 -556.5 1965.5 c 128,-1,34
 -512 1957 -512 1957 -475.5 1938 c 128,-1,35
 -439 1919 -439 1919 -416.5 1885.5 c 128,-1,36
 -394 1852 -394 1852 -394 1798 c 0,0,1
-531 1810 m 0,37,38
 -531 1849 -531 1849 -550.5 1882.5 c 128,-1,39
 -570 1916 -570 1916 -614 1916 c 0,40,41
 -650 1916 -650 1916 -668.5 1871 c 128,-1,42
 -687 1826 -687 1826 -687 1798 c 256,43,44
 -687 1769 -687 1769 -673 1737 c 128,-1,45
 -659 1705 -659 1705 -623 1705 c 0,46,47
 -579 1705 -579 1705 -555 1735 c 128,-1,48
 -531 1765 -531 1765 -531 1810 c 0,37,38
-678 1568 m 1,49,50
 -736 1660 -736 1660 -824 1719.5 c 128,-1,51
 -912 1779 -912 1779 -1023 1779 c 0,52,53
 -1078 1779 -1078 1779 -1142 1736.5 c 128,-1,54
 -1206 1694 -1206 1694 -1235 1660 c 1,55,56
 -1093 1644 -1093 1644 -955.5 1618.5 c 128,-1,57
 -818 1593 -818 1593 -678 1568 c 1,49,50
EndSplineSet
EndChar

StartChar: uni0E37.left
Encoding: 342 63236 103
Width: 0
VWidth: 3198
Flags: W
HStem: 1798 98<-1194.26 -1017.4>
VStem: -726 265<1810 1960>
DStem2: -1302 1666 -1350 1577.5 0.990188 -0.139741<0 321.455 475.086 673.463>
LayerCount: 2
Fore
SplineSet
-995 1541 m 0,0,1
 -1065 1551 -1065 1551 -1162.5 1561 c 128,-1,2
 -1260 1571 -1260 1571 -1350 1577.5 c 128,-1,3
 -1440 1584 -1440 1584 -1500 1588.5 c 128,-1,4
 -1560 1593 -1560 1593 -1563 1593 c 1,5,6
 -1501 1727 -1501 1727 -1398 1811.5 c 128,-1,7
 -1295 1896 -1295 1896 -1142 1896 c 0,8,9
 -1117 1896 -1117 1896 -1100.5 1894.5 c 128,-1,10
 -1084 1893 -1084 1893 -1059 1887 c 1,11,-1
 -1049 1887 l 1,12,-1
 -1017 1880 l 1,13,-1
 -1017 1960 l 1,14,-1
 -778 1960 l 1,15,-1
 -778 1837 l 1,16,-1
 -726 1810 l 1,17,-1
 -726 1960 l 1,18,-1
 -461 1960 l 1,19,-1
 -461 1462 l 1,20,21
 -573 1480 -573 1480 -675 1493 c 0,22,23
 -761 1507 -761 1507 -852 1521 c 128,-1,24
 -943 1535 -943 1535 -995 1541 c 0,0,1
-634 1580 m 1,25,26
 -662 1627 -662 1627 -708 1667.5 c 128,-1,27
 -754 1708 -754 1708 -810.5 1736.5 c 128,-1,28
 -867 1765 -867 1765 -928 1781.5 c 128,-1,29
 -989 1798 -989 1798 -1043 1798 c 0,30,31
 -1071 1798 -1071 1798 -1109.5 1787 c 128,-1,32
 -1148 1776 -1148 1776 -1186 1758 c 128,-1,33
 -1224 1740 -1224 1740 -1256 1715.5 c 128,-1,34
 -1288 1691 -1288 1691 -1302 1666 c 1,35,-1
 -989 1635 l 2,36,37
 -898 1624 -898 1624 -810.5 1610 c 128,-1,38
 -723 1596 -723 1596 -634 1580 c 1,25,26
EndSplineSet
EndChar

StartChar: ellipsis
Encoding: 316 8230 104
Width: 2045
VWidth: 3198
Flags: W
HStem: -28 379<234.501 479.054 901.311 1145.28 1568.92 1812.09>
VStem: 166 381<39.9218 283.682> 831 384<41.7422 281.875> 1501 379<39.9218 283.682>
LayerCount: 2
Fore
SplineSet
1501 162 m 128,-1,1
 1501 241 1501 241 1556.5 296 c 128,-1,2
 1612 351 1612 351 1691 351 c 0,3,4
 1769 351 1769 351 1824.5 296 c 128,-1,5
 1880 241 1880 241 1880 162 c 128,-1,6
 1880 83 1880 83 1824.5 27.5 c 128,-1,7
 1769 -28 1769 -28 1691 -28 c 0,8,9
 1612 -28 1612 -28 1556.5 27.5 c 128,-1,0
 1501 83 1501 83 1501 162 c 128,-1,1
831 162 m 128,-1,11
 831 241 831 241 888.5 296 c 128,-1,12
 946 351 946 351 1023 351 c 256,13,14
 1101 351 1101 351 1158 296 c 128,-1,15
 1215 241 1215 241 1215 162 c 128,-1,16
 1215 83 1215 83 1158 27.5 c 128,-1,17
 1101 -28 1101 -28 1023 -28 c 256,18,19
 946 -28 946 -28 888.5 27.5 c 128,-1,10
 831 83 831 83 831 162 c 128,-1,11
166 162 m 128,-1,21
 166 241 166 241 222 296 c 128,-1,22
 278 351 278 351 355 351 c 0,23,24
 436 351 436 351 491.5 296 c 128,-1,25
 547 241 547 241 547 162 c 128,-1,26
 547 83 547 83 491.5 27.5 c 128,-1,27
 436 -28 436 -28 355 -28 c 0,28,29
 278 -28 278 -28 222 27.5 c 128,-1,20
 166 83 166 83 166 162 c 128,-1,21
EndSplineSet
EndChar

StartChar: uni0E48.low_left
Encoding: 343 63237 105
Width: 0
VWidth: 3198
Flags: W
HStem: 1465 467<-796 -515>
VStem: -796 281<1465 1927.5>
LayerCount: 2
Fore
SplineSet
-796 1932 m 1,0,1
 -726 1926 -726 1926 -656 1927.5 c 128,-1,2
 -586 1929 -586 1929 -515 1929 c 1,3,-1
 -515 1465 l 1,4,-1
 -796 1465 l 1,5,-1
 -796 1932 l 1,0,1
EndSplineSet
Substitution2: "Single Substitution lookup 22 subtable" uni0E48.left
Substitution2: "Single Substitution lookup 22 subtable" uni0E48.left
EndChar

StartChar: uni0E49.low_left
Encoding: 344 63238 106
Width: 0
VWidth: 3198
Flags: W
HStem: 1462 109<-1123 -1068> 1663 77<-1021.07 -954.446> 1951 67<-1023.5 -899.526>
VStem: -1215 172<1753.41 1943.56> -879 162<1760.29 1930.42>
LayerCount: 2
Fore
SplineSet
-1123 1571 m 1,0,-1
 -1068 1580 l 2,1,2
 -1053 1584 -1053 1584 -1036.5 1584 c 128,-1,3
 -1020 1584 -1020 1584 -1004.5 1591.5 c 128,-1,4
 -989 1599 -989 1599 -975.5 1614.5 c 128,-1,5
 -962 1630 -962 1630 -953 1663 c 1,6,7
 -995 1663 -995 1663 -1041 1671 c 128,-1,8
 -1087 1679 -1087 1679 -1125 1700 c 128,-1,9
 -1163 1721 -1163 1721 -1189 1756 c 128,-1,10
 -1215 1791 -1215 1791 -1215 1843 c 256,11,12
 -1215 1893 -1215 1893 -1189 1926.5 c 128,-1,13
 -1163 1960 -1163 1960 -1125 1981 c 128,-1,14
 -1087 2002 -1087 2002 -1042.5 2010 c 128,-1,15
 -998 2018 -998 2018 -956 2018 c 0,16,17
 -854 2018 -854 2018 -785.5 1975 c 128,-1,18
 -717 1932 -717 1932 -717 1819 c 0,19,20
 -717 1765 -717 1765 -735.5 1717 c 128,-1,21
 -754 1669 -754 1669 -784 1627 c 1,22,23
 -668 1682 -668 1682 -605.5 1802 c 128,-1,24
 -543 1922 -543 1922 -537 2044 c 1,25,-1
 -223 2044 l 1,26,27
 -230 2005 -230 2005 -243 1970 c 128,-1,28
 -256 1935 -256 1935 -272 1901 c 0,29,30
 -290 1855 -290 1855 -313 1815.5 c 128,-1,31
 -336 1776 -336 1776 -369 1740 c 0,32,33
 -415 1685 -415 1685 -477.5 1640.5 c 128,-1,34
 -540 1596 -540 1596 -623.5 1561 c 128,-1,35
 -707 1526 -707 1526 -817.5 1501.5 c 128,-1,36
 -928 1477 -928 1477 -1074 1465 c 2,37,-1
 -1123 1462 l 1,38,-1
 -1123 1571 l 1,0,-1
-879 1849 m 256,39,40
 -879 1890 -879 1890 -900 1920.5 c 128,-1,41
 -921 1951 -921 1951 -965 1951 c 0,42,43
 -1007 1951 -1007 1951 -1025 1915.5 c 128,-1,44
 -1043 1880 -1043 1880 -1043 1846 c 256,45,46
 -1043 1810 -1043 1810 -1019 1775 c 128,-1,47
 -995 1740 -995 1740 -956 1740 c 0,48,49
 -906 1740 -906 1740 -892.5 1773.5 c 128,-1,50
 -879 1807 -879 1807 -879 1849 c 256,39,40
EndSplineSet
Substitution2: "Single Substitution lookup 22 subtable" uni0E49.left
Substitution2: "Single Substitution lookup 22 subtable" uni0E49.left
EndChar

StartChar: uni0E4A.low_left
Encoding: 345 63239 107
Width: 0
VWidth: 3198
Flags: W
HStem: 1465 247<-1122.14 -961.689>
VStem: -1352 171<1644.37 1821.94> -771 124<1651.83 1832.7>
LayerCount: 2
Fore
SplineSet
-1181 1733 m 0,0,1
 -1181 1708 -1181 1708 -1172 1688.5 c 128,-1,2
 -1163 1669 -1163 1669 -1151 1648 c 1,3,4
 -1148 1644 l 1,5,6
 -1123 1669 -1123 1669 -1091 1690.5 c 128,-1,7
 -1059 1712 -1059 1712 -1023 1712 c 0,8,9
 -959 1712 -959 1712 -932.5 1684.5 c 128,-1,10
 -906 1657 -906 1657 -906 1593 c 0,11,12
 -906 1523 -906 1523 -960 1494 c 128,-1,13
 -1014 1465 -1014 1465 -1074 1465 c 0,14,15
 -1126 1465 -1126 1465 -1175 1479 c 128,-1,16
 -1224 1493 -1224 1493 -1265 1522 c 128,-1,17
 -1306 1551 -1306 1551 -1329 1593 c 128,-1,18
 -1352 1635 -1352 1635 -1352 1691 c 256,19,20
 -1352 1749 -1352 1749 -1330.5 1789 c 128,-1,21
 -1309 1829 -1309 1829 -1273.5 1858 c 128,-1,22
 -1238 1887 -1238 1887 -1193 1908 c 128,-1,23
 -1148 1929 -1148 1929 -1101 1944 c 1,24,-1
 -1026 1944 l 1,25,-1
 -925 1862 l 1,26,27
 -903 1883 -903 1883 -867 1910.5 c 128,-1,28
 -831 1938 -831 1938 -800 1938 c 0,29,30
 -707 1938 -707 1938 -677 1877 c 128,-1,31
 -647 1816 -647 1816 -647 1737 c 0,32,33
 -647 1698 -647 1698 -662 1651 c 1,34,35
 -598 1708 -598 1708 -585.5 1780 c 128,-1,36
 -573 1852 -573 1852 -573 1932 c 0,37,38
 -573 1941 -573 1941 -573 1952 c 128,-1,39
 -573 1963 -573 1963 -576 1974 c 1,40,-1
 -333 1974 l 1,41,42
 -342 1896 -342 1896 -353 1816.5 c 128,-1,43
 -364 1737 -364 1737 -409 1673 c 0,44,45
 -470 1590 -470 1590 -558.5 1548.5 c 128,-1,46
 -647 1507 -647 1507 -732 1487 c 0,47,48
 -736 1487 -736 1487 -766 1480.5 c 128,-1,49
 -796 1474 -796 1474 -812 1471 c 256,50,51
 -828 1468 -828 1468 -839.5 1468 c 128,-1,52
 -851 1468 -851 1468 -854 1468 c 1,53,-1
 -854 1568 l 1,54,55
 -845 1577 -845 1577 -818 1590 c 1,56,57
 -787 1612 -787 1612 -779 1650 c 128,-1,58
 -771 1688 -771 1688 -771 1724 c 0,59,60
 -771 1749 -771 1749 -779 1782.5 c 128,-1,61
 -787 1816 -787 1816 -812 1833 c 1,62,63
 -842 1810 -842 1810 -874 1776.5 c 128,-1,64
 -906 1743 -906 1743 -943 1743 c 0,65,66
 -962 1743 -962 1743 -986 1761 c 128,-1,67
 -1010 1779 -1010 1779 -1034 1801 c 2,68,-1
 -1087 1855 l 1,69,70
 -1117 1843 -1117 1843 -1135 1823 c 0,71,72
 -1151 1807 -1151 1807 -1166 1784.5 c 128,-1,73
 -1181 1762 -1181 1762 -1181 1733 c 0,0,1
EndSplineSet
Substitution2: "Single Substitution lookup 22 subtable" uni0E4A.left
Substitution2: "Single Substitution lookup 22 subtable" uni0E4A.left
EndChar

StartChar: uni0E4B.low_left
Encoding: 346 63240 108
Width: 0
VWidth: 3198
Flags: W
HStem: 1471 497<-921 -614> 1663 122<-1087 -921 -614 -454>
VStem: -921 307<1471 1663 1785 1968>
LayerCount: 2
Fore
SplineSet
-614 1471 m 1,0,-1
 -921 1471 l 1,1,-1
 -921 1663 l 1,2,-1
 -1087 1663 l 1,3,-1
 -1087 1785 l 1,4,-1
 -921 1785 l 1,5,-1
 -921 1968 l 1,6,-1
 -614 1968 l 1,7,-1
 -614 1785 l 1,8,-1
 -454 1785 l 1,9,-1
 -454 1663 l 1,10,-1
 -614 1663 l 1,11,-1
 -614 1471 l 1,0,-1
EndSplineSet
Substitution2: "Single Substitution lookup 22 subtable" uni0E4B.left
Substitution2: "Single Substitution lookup 22 subtable" uni0E4B.left
EndChar

StartChar: uni0E4C.low_left
Encoding: 347 63241 109
Width: 0
VWidth: 3198
Flags: W
HStem: 1465 70<-817.469 -692.863>
VStem: -1023 178<1550.13 1773.45> -672 169<1560.06 1758.03> -525 284<1957.8 2091>
LayerCount: 2
Fore
SplineSet
-241 2091 m 1,0,1
 -250 2021 -250 2021 -284 1960 c 0,2,3
 -314 1907 -314 1907 -375 1854 c 128,-1,4
 -436 1801 -436 1801 -540 1776 c 1,5,6
 -503 1727 -503 1727 -503 1660 c 0,7,8
 -503 1609 -503 1609 -526.5 1570.5 c 128,-1,9
 -550 1532 -550 1532 -586.5 1509.5 c 128,-1,10
 -623 1487 -623 1487 -670 1476 c 128,-1,11
 -717 1465 -717 1465 -761 1465 c 256,12,13
 -806 1465 -806 1465 -852 1476 c 128,-1,14
 -898 1487 -898 1487 -937 1509.5 c 128,-1,15
 -976 1532 -976 1532 -999.5 1570.5 c 128,-1,16
 -1023 1609 -1023 1609 -1023 1660 c 0,17,18
 -1023 1730 -1023 1730 -973 1782 c 0,19,20
 -918 1833 -918 1833 -841 1849 c 128,-1,21
 -764 1865 -764 1865 -693.5 1884.5 c 128,-1,22
 -623 1904 -623 1904 -574 1945 c 128,-1,23
 -525 1986 -525 1986 -525 2091 c 1,24,-1
 -241 2091 l 1,0,1
-672 1654 m 0,25,26
 -672 1698 -672 1698 -688 1743 c 128,-1,27
 -704 1788 -704 1788 -757 1788 c 0,28,29
 -803 1788 -803 1788 -824 1741 c 128,-1,30
 -845 1694 -845 1694 -845 1657 c 0,31,32
 -845 1621 -845 1621 -822.5 1578 c 128,-1,33
 -800 1535 -800 1535 -754 1535 c 0,34,35
 -707 1535 -707 1535 -689.5 1575 c 128,-1,36
 -672 1615 -672 1615 -672 1654 c 0,25,26
EndSplineSet
Substitution2: "Single Substitution lookup 22 subtable" uni0E4C.left
Substitution2: "Single Substitution lookup 22 subtable" uni0E4C.left
EndChar

StartChar: uni0E48.low
Encoding: 348 63242 110
Width: 0
VWidth: 3198
Flags: W
HStem: 1468 464<-419 -141>
VStem: -419 278<1468 1932>
LayerCount: 2
Fore
SplineSet
-419 1932 m 1,0,-1
 -141 1932 l 1,1,-1
 -141 1468 l 1,2,-1
 -419 1468 l 1,3,-1
 -419 1932 l 1,0,-1
EndSplineSet
Substitution2: "Single Substitution lookup 21 subtable" uni0E48.left
Substitution2: "Single Substitution lookup 20 subtable" uni0E48
Substitution2: "Single Substitution lookup 22 subtable" uni0E48.low_left
Substitution2: "Single Substitution lookup 21 subtable" uni0E48.left
Substitution2: "Single Substitution lookup 20 subtable" uni0E48
Substitution2: "Single Substitution lookup 22 subtable" uni0E48.low_left
EndChar

StartChar: uni0E49.low
Encoding: 349 63243 111
Width: 0
VWidth: 3198
Flags: W
HStem: 1456 107<-889 -836> 1657 76<-786.005 -721.416> 1944 67<-790.898 -667.711>
VStem: -982 173<1746.47 1922.66> -647 164<1752.94 1923.8>
LayerCount: 2
Fore
SplineSet
-889 1563 m 1,0,-1
 -836 1574 l 2,1,2
 -818 1577 -818 1577 -802.5 1577 c 128,-1,3
 -787 1577 -787 1577 -770.5 1585 c 128,-1,4
 -754 1593 -754 1593 -741.5 1608.5 c 128,-1,5
 -729 1624 -729 1624 -720 1657 c 1,6,7
 -761 1657 -761 1657 -807.5 1665 c 128,-1,8
 -854 1673 -854 1673 -892.5 1694 c 128,-1,9
 -931 1715 -931 1715 -956.5 1750 c 128,-1,10
 -982 1785 -982 1785 -982 1837 c 256,11,12
 -982 1887 -982 1887 -956.5 1920.5 c 128,-1,13
 -931 1954 -931 1954 -892.5 1975 c 128,-1,14
 -854 1996 -854 1996 -809 2003.5 c 128,-1,15
 -764 2011 -764 2011 -723 2011 c 0,16,17
 -620 2011 -620 2011 -551.5 1968.5 c 128,-1,18
 -483 1926 -483 1926 -483 1813 c 0,19,20
 -483 1758 -483 1758 -502.5 1710.5 c 128,-1,21
 -522 1663 -522 1663 -550 1621 c 1,22,23
 -436 1676 -436 1676 -373.5 1796 c 128,-1,24
 -311 1916 -311 1916 -305 2038 c 1,25,-1
 9 2038 l 1,26,27
 3 1999 3 1999 -9.5 1964 c 128,-1,28
 -22 1929 -22 1929 -39 1893 c 0,29,30
 -58 1849 -58 1849 -80.5 1809 c 128,-1,31
 -103 1769 -103 1769 -134 1733 c 0,32,33
 -183 1679 -183 1679 -245.5 1634.5 c 128,-1,34
 -308 1590 -308 1590 -390.5 1555 c 128,-1,35
 -473 1520 -473 1520 -583 1495.5 c 128,-1,36
 -693 1471 -693 1471 -842 1459 c 2,37,-1
 -889 1456 l 1,38,-1
 -889 1563 l 1,0,-1
-647 1843 m 256,39,40
 -647 1883 -647 1883 -667 1913.5 c 128,-1,41
 -687 1944 -687 1944 -732 1944 c 0,42,43
 -775 1944 -775 1944 -792 1909 c 128,-1,44
 -809 1874 -809 1874 -809 1840 c 256,45,46
 -809 1804 -809 1804 -785 1768.5 c 128,-1,47
 -761 1733 -761 1733 -723 1733 c 0,48,49
 -672 1733 -672 1733 -659.5 1767 c 128,-1,50
 -647 1801 -647 1801 -647 1843 c 256,39,40
EndSplineSet
Substitution2: "Single Substitution lookup 21 subtable" uni0E49.left
Substitution2: "Single Substitution lookup 20 subtable" uni0E49
Substitution2: "Single Substitution lookup 22 subtable" uni0E49.low_left
Substitution2: "Single Substitution lookup 21 subtable" uni0E49.left
Substitution2: "Single Substitution lookup 20 subtable" uni0E49
Substitution2: "Single Substitution lookup 22 subtable" uni0E49.low_left
EndChar

StartChar: uni0E4A.low
Encoding: 350 63244 112
Width: 0
VWidth: 3198
Flags: W
HStem: 1465 247<-795.139 -634.689>
VStem: -1026 172<1644.37 1822.99> -445 125<1651.83 1832.7>
LayerCount: 2
Fore
SplineSet
-854 1733 m 0,0,1
 -854 1708 -854 1708 -846.5 1688.5 c 128,-1,2
 -839 1669 -839 1669 -825 1648 c 1,3,4
 -821 1644 l 1,5,6
 -796 1669 -796 1669 -764 1690.5 c 128,-1,7
 -732 1712 -732 1712 -697 1712 c 0,8,9
 -634 1712 -634 1712 -606.5 1684.5 c 128,-1,10
 -579 1657 -579 1657 -579 1593 c 0,11,12
 -579 1523 -579 1523 -633 1494 c 128,-1,13
 -687 1465 -687 1465 -748 1465 c 0,14,15
 -800 1465 -800 1465 -849 1479 c 128,-1,16
 -898 1493 -898 1493 -938.5 1522 c 128,-1,17
 -979 1551 -979 1551 -1002.5 1593 c 128,-1,18
 -1026 1635 -1026 1635 -1026 1691 c 256,19,20
 -1026 1749 -1026 1749 -1004 1789 c 128,-1,21
 -982 1829 -982 1829 -947 1858 c 128,-1,22
 -912 1887 -912 1887 -866.5 1908 c 128,-1,23
 -821 1929 -821 1929 -775 1944 c 1,24,-1
 -701 1944 l 1,25,-1
 -598 1862 l 1,26,27
 -576 1883 -576 1883 -541 1910.5 c 128,-1,28
 -506 1938 -506 1938 -473 1938 c 0,29,30
 -381 1938 -381 1938 -350.5 1877 c 128,-1,31
 -320 1816 -320 1816 -320 1737 c 0,32,33
 -320 1698 -320 1698 -336 1651 c 1,34,35
 -272 1708 -272 1708 -259.5 1780 c 128,-1,36
 -247 1852 -247 1852 -247 1932 c 0,37,38
 -247 1941 -247 1941 -247 1952 c 128,-1,39
 -247 1963 -247 1963 -250 1974 c 1,40,-1
 -6 1974 l 1,41,42
 -16 1896 -16 1896 -27.5 1816.5 c 128,-1,43
 -39 1737 -39 1737 -83 1673 c 0,44,45
 -144 1590 -144 1590 -232 1548.5 c 128,-1,46
 -320 1507 -320 1507 -406 1487 c 0,47,48
 -409 1487 -409 1487 -439.5 1480.5 c 128,-1,49
 -470 1474 -470 1474 -486 1471 c 256,50,51
 -503 1468 -503 1468 -514 1468 c 128,-1,52
 -525 1468 -525 1468 -528 1468 c 1,53,-1
 -528 1568 l 1,54,55
 -518 1577 -518 1577 -492 1590 c 1,56,57
 -461 1612 -461 1612 -453 1650 c 128,-1,58
 -445 1688 -445 1688 -445 1724 c 0,59,60
 -445 1749 -445 1749 -453 1782.5 c 128,-1,61
 -461 1816 -461 1816 -486 1833 c 1,62,63
 -515 1810 -515 1810 -547 1776.5 c 128,-1,64
 -579 1743 -579 1743 -617 1743 c 0,65,66
 -637 1743 -637 1743 -660.5 1761 c 128,-1,67
 -684 1779 -684 1779 -707 1801 c 2,68,-1
 -761 1855 l 1,69,70
 -790 1843 -790 1843 -809 1823 c 0,71,72
 -825 1807 -825 1807 -839.5 1784.5 c 128,-1,73
 -854 1762 -854 1762 -854 1733 c 0,0,1
EndSplineSet
Substitution2: "Single Substitution lookup 21 subtable" uni0E4A.left
Substitution2: "Single Substitution lookup 20 subtable" uni0E4A
Substitution2: "Single Substitution lookup 22 subtable" uni0E4A.low_left
Substitution2: "Single Substitution lookup 21 subtable" uni0E4A.left
Substitution2: "Single Substitution lookup 20 subtable" uni0E4A
Substitution2: "Single Substitution lookup 22 subtable" uni0E4A.low_left
EndChar

StartChar: uni0E4B.low
Encoding: 351 63245 113
Width: 0
VWidth: 3198
Flags: W
HStem: 1474 497<-448 -141> 1666 122<-604 -448 -141 9>
VStem: -448 307<1474 1666 1788 1971>
LayerCount: 2
Fore
SplineSet
-141 1474 m 1,0,-1
 -448 1474 l 1,1,-1
 -448 1666 l 1,2,-1
 -604 1666 l 1,3,-1
 -604 1788 l 1,4,-1
 -448 1788 l 1,5,-1
 -448 1971 l 1,6,-1
 -141 1971 l 1,7,-1
 -141 1788 l 1,8,-1
 9 1788 l 1,9,-1
 9 1666 l 1,10,-1
 -141 1666 l 1,11,-1
 -141 1474 l 1,0,-1
EndSplineSet
Substitution2: "Single Substitution lookup 21 subtable" uni0E4B.left
Substitution2: "Single Substitution lookup 20 subtable" uni0E4B
Substitution2: "Single Substitution lookup 22 subtable" uni0E4B.low_left
Substitution2: "Single Substitution lookup 21 subtable" uni0E4B.left
Substitution2: "Single Substitution lookup 20 subtable" uni0E4B
Substitution2: "Single Substitution lookup 22 subtable" uni0E4B.low_left
EndChar

StartChar: uni0E4C.low
Encoding: 352 63246 114
Width: 0
VWidth: 3198
Flags: W
HStem: 1465 70<-560.629 -436.249>
VStem: -768 179<1551.07 1773.85> -415 168<1560.57 1758.03> -269 285<1959.38 2091>
LayerCount: 2
Fore
SplineSet
16 2091 m 1,0,1
 6 2021 6 2021 -28 1960 c 0,2,3
 -58 1907 -58 1907 -119 1854 c 128,-1,4
 -180 1801 -180 1801 -284 1776 c 1,5,6
 -247 1727 -247 1727 -247 1660 c 0,7,8
 -247 1609 -247 1609 -270.5 1570.5 c 128,-1,9
 -294 1532 -294 1532 -331.5 1509.5 c 128,-1,10
 -369 1487 -369 1487 -415 1476 c 128,-1,11
 -461 1465 -461 1465 -506 1465 c 256,12,13
 -550 1465 -550 1465 -596.5 1476 c 128,-1,14
 -643 1487 -643 1487 -681.5 1509.5 c 128,-1,15
 -720 1532 -720 1532 -744 1570.5 c 128,-1,16
 -768 1609 -768 1609 -768 1660 c 0,17,18
 -768 1730 -768 1730 -717 1782 c 0,19,20
 -662 1833 -662 1833 -585.5 1849 c 128,-1,21
 -509 1865 -509 1865 -439 1884.5 c 128,-1,22
 -369 1904 -369 1904 -319 1945 c 128,-1,23
 -269 1986 -269 1986 -269 2091 c 1,24,-1
 16 2091 l 1,0,1
-415 1654 m 0,25,26
 -415 1698 -415 1698 -431.5 1743 c 128,-1,27
 -448 1788 -448 1788 -503 1788 c 0,28,29
 -547 1788 -547 1788 -568 1741 c 128,-1,30
 -589 1694 -589 1694 -589 1657 c 0,31,32
 -589 1621 -589 1621 -566 1578 c 128,-1,33
 -543 1535 -543 1535 -498 1535 c 0,34,35
 -451 1535 -451 1535 -433 1575 c 128,-1,36
 -415 1615 -415 1615 -415 1654 c 0,25,26
EndSplineSet
Substitution2: "Single Substitution lookup 21 subtable" uni0E4C.left
Substitution2: "Single Substitution lookup 20 subtable" uni0E4C
Substitution2: "Single Substitution lookup 22 subtable" uni0E4C.low_left
Substitution2: "Single Substitution lookup 21 subtable" uni0E4C.left
Substitution2: "Single Substitution lookup 20 subtable" uni0E4C
Substitution2: "Single Substitution lookup 22 subtable" uni0E4C.low_left
EndChar

StartChar: uni0E0D.descless
Encoding: 353 63247 115
Width: 1956
VWidth: 3198
Flags: W
HStem: -9 82<413.285 550.071> 0 128<1215 1501> 323 116<419.671 548.535> 854 108<195 259 470.951 583> 1117 121<384.336 792.003> 1201 20G<1631.35 1826>
VStem: 103 316<409 747.5> 103 287<107.528 315.703> 573 144<103.571 298.158> 892 323<128 988.965> 1501 325<128 1110>
LayerCount: 2
Fore
SplineSet
1826 119 m 1,0,1
 1826 70 1826 70 1779.5 35 c 128,-1,2
 1733 0 1733 0 1688 0 c 2,3,-1
 892 0 l 1,4,-1
 892 793 l 2,5,6
 892 864 892 864 881 923 c 128,-1,7
 870 982 870 982 839.5 1025 c 128,-1,8
 809 1068 809 1068 758 1092.5 c 128,-1,9
 707 1117 707 1117 626 1117 c 0,10,11
 518 1117 518 1117 396.5 1077 c 128,-1,12
 275 1037 275 1037 195 962 c 1,13,-1
 583 962 l 1,14,-1
 583 867 l 1,15,16
 506 845 506 845 462.5 801 c 128,-1,17
 419 757 419 757 419 675 c 2,18,-1
 419 409 l 1,19,20
 442 422 442 422 467 430.5 c 128,-1,21
 492 439 492 439 518 439 c 0,22,23
 614 439 614 439 665.5 378 c 128,-1,24
 717 317 717 317 717 223 c 0,25,26
 717 156 717 156 694.5 110 c 128,-1,27
 672 64 672 64 633.5 38 c 128,-1,28
 595 12 595 12 542 1.5 c 128,-1,29
 489 -9 489 -9 428 -9 c 0,30,31
 378 -9 378 -9 320 5 c 128,-1,32
 262 19 262 19 214 49.5 c 128,-1,33
 166 80 166 80 134.5 125 c 128,-1,34
 103 170 103 170 103 230 c 2,35,-1
 103 614 l 2,36,37
 103 687 103 687 150.5 752.5 c 128,-1,38
 198 818 198 818 259 854 c 1,39,-1
 45 854 l 1,40,-1
 45 1017 l 1,41,42
 189 1104 189 1104 329.5 1171 c 128,-1,43
 470 1238 470 1238 647 1238 c 0,44,45
 754 1238 754 1238 856.5 1214 c 128,-1,46
 959 1190 959 1190 1039.5 1135.5 c 128,-1,47
 1120 1081 1120 1081 1167.5 995 c 128,-1,48
 1215 909 1215 909 1215 784 c 2,49,-1
 1215 128 l 1,50,-1
 1501 128 l 1,51,-1
 1501 1110 l 1,52,-1
 1660 1221 l 1,53,-1
 1826 1221 l 1,54,-1
 1826 119 l 1,0,1
573 211 m 256,55,56
 573 259 573 259 545.5 291 c 128,-1,57
 518 323 518 323 467 323 c 0,58,59
 422 323 422 323 406 282 c 128,-1,60
 390 241 390 241 390 205 c 256,61,62
 390 170 390 170 409 121.5 c 128,-1,63
 428 73 428 73 473 73 c 0,64,65
 531 73 531 73 552 117.5 c 128,-1,66
 573 162 573 162 573 211 c 256,55,56
EndSplineSet
EndChar

StartChar: quoteleft
Encoding: 307 8216 116
Width: 702
VWidth: 3198
Flags: W
HStem: 742 329<306.837 488.023>
VStem: 156 125<949.5 1197.86>
LayerCount: 2
Fore
SplineSet
509 1429 m 1,0,-1
 509 1385 l 1,1,2
 281 1285 281 1285 281 1084 c 0,3,4
 281 1056 281 1056 305 1049 c 1,5,6
 364 1074 364 1074 397 1071 c 0,7,8
 467 1071 467 1071 507 1020.5 c 128,-1,9
 547 970 547 970 547 915 c 0,10,11
 547 836 547 836 491.5 789 c 128,-1,12
 436 742 436 742 372 742 c 0,13,14
 265 742 265 742 210.5 820 c 128,-1,15
 156 898 156 898 156 1001 c 0,16,17
 156 1321 156 1321 509 1429 c 1,0,-1
EndSplineSet
EndChar

StartChar: quoteright
Encoding: 308 8217 117
Width: 702
VWidth: 3198
Flags: W
HStem: 1126 303<261.525 421.472>
VStem: 422 125<974.921 1223.5>
LayerCount: 2
Fore
SplineSet
195 742 m 1,0,-1
 195 790 l 1,1,2
 422 885 422 885 422 1090 c 0,3,4
 422 1126 422 1126 400 1126 c 0,5,6
 387 1126 387 1126 360 1113.5 c 128,-1,7
 333 1101 333 1101 308 1101 c 0,8,9
 244 1101 244 1101 200 1148.5 c 128,-1,10
 156 1196 156 1196 156 1260 c 0,11,12
 156 1337 156 1337 212.5 1383 c 128,-1,13
 269 1429 269 1429 333 1429 c 0,14,15
 439 1429 439 1429 493 1351 c 128,-1,16
 547 1273 547 1273 547 1174 c 0,17,18
 547 851 547 851 195 742 c 1,0,-1
EndSplineSet
EndChar

StartChar: quotedblleft
Encoding: 310 8220 118
Width: 1054
VWidth: 3198
Flags: W
VStem: 83 128<949.5 1188.96> 579 128<946.5 1190.33>
LayerCount: 2
Fore
SplineSet
934 1429 m 1,0,-1
 934 1379 l 1,1,2
 831 1340 831 1340 769 1259 c 128,-1,3
 707 1178 707 1178 707 1081 c 0,4,5
 707 1046 707 1046 723 1046 c 1,6,-1
 754 1062 l 2,7,8
 784 1078 784 1078 821 1078 c 0,9,10
 882 1078 882 1078 926 1028.5 c 128,-1,11
 970 979 970 979 970 915 c 0,12,13
 970 836 970 836 913.5 789 c 128,-1,14
 857 742 857 742 793 742 c 0,15,16
 697 742 697 742 638 817 c 128,-1,17
 579 892 579 892 579 1001 c 0,18,19
 579 1302 579 1302 934 1429 c 1,0,-1
439 1429 m 1,20,-1
 439 1379 l 1,21,22
 336 1340 336 1340 273.5 1259 c 128,-1,23
 211 1178 211 1178 211 1081 c 0,24,25
 211 1046 211 1046 226 1046 c 1,26,-1
 259 1062 l 2,27,28
 287 1078 287 1078 326 1078 c 0,29,30
 387 1078 387 1078 430 1028.5 c 128,-1,31
 473 979 473 979 473 915 c 0,32,33
 473 845 473 845 421 793.5 c 128,-1,34
 369 742 369 742 297 742 c 0,35,36
 195 742 195 742 139 820 c 128,-1,37
 83 898 83 898 83 1001 c 0,38,39
 83 1302 83 1302 439 1429 c 1,20,-1
EndSplineSet
EndChar

StartChar: quotedblright
Encoding: 311 8221 119
Width: 1054
VWidth: 3198
Flags: W
VStem: 348 128<982.632 1219> 845 128<981.806 1223.5>
LayerCount: 2
Fore
SplineSet
122 742 m 1,0,-1
 122 793 l 1,1,2
 211 825 211 825 279.5 903.5 c 128,-1,3
 348 982 348 982 348 1090 c 0,4,5
 348 1126 348 1126 333 1126 c 1,6,-1
 301 1110 l 2,7,8
 272 1093 272 1093 234 1093 c 0,9,10
 173 1093 173 1093 129.5 1141.5 c 128,-1,11
 86 1190 86 1190 86 1257 c 0,12,13
 86 1331 86 1331 139 1380 c 128,-1,14
 192 1429 192 1429 265 1429 c 0,15,16
 364 1429 364 1429 420 1349.5 c 128,-1,17
 476 1270 476 1270 476 1168 c 0,18,19
 476 873 476 873 122 742 c 1,0,-1
617 742 m 1,20,-1
 617 793 l 1,21,22
 717 831 717 831 781 913 c 128,-1,23
 845 995 845 995 845 1090 c 0,24,25
 845 1126 845 1126 831 1126 c 1,26,-1
 796 1110 l 2,27,28
 768 1093 768 1093 732 1093 c 0,29,30
 668 1093 668 1093 625.5 1141.5 c 128,-1,31
 583 1190 583 1190 583 1257 c 0,32,33
 583 1331 583 1331 635 1380 c 128,-1,34
 687 1429 687 1429 761 1429 c 0,35,36
 854 1429 854 1429 913.5 1354 c 128,-1,37
 973 1279 973 1279 973 1168 c 0,38,39
 973 873 973 873 617 742 c 1,20,-1
EndSplineSet
EndChar

StartChar: bullet
Encoding: 315 8226 120
Width: 1307
VWidth: 3198
Flags: W
HStem: 400 720<481.917 827.276>
VStem: 294 720<585.882 933.567>
LayerCount: 2
Fore
SplineSet
294 761 m 256,0,1
 294 836 294 836 321 900.5 c 128,-1,2
 348 965 348 965 400 1014 c 0,3,4
 451 1065 451 1065 517 1092.5 c 128,-1,5
 583 1120 583 1120 656 1120 c 0,6,7
 726 1120 726 1120 791.5 1092.5 c 128,-1,8
 857 1065 857 1065 909 1014 c 256,9,10
 959 962 959 962 986.5 899 c 128,-1,11
 1014 836 1014 836 1014 761 c 256,12,13
 1014 687 1014 687 986.5 621.5 c 128,-1,14
 959 556 959 556 909 506 c 256,15,16
 857 454 857 454 791.5 427 c 128,-1,17
 726 400 726 400 653 400 c 256,18,19
 579 400 579 400 515 427 c 128,-1,20
 451 454 451 454 400 506 c 256,21,22
 348 556 348 556 321 621.5 c 128,-1,23
 294 687 294 687 294 761 c 256,0,1
EndSplineSet
EndChar

StartChar: endash
Encoding: 305 8211 121
Width: 1022
VWidth: 3198
Flags: W
HStem: 422 240<0 1023>
LayerCount: 2
Fore
SplineSet
0 662 m 1,0,-1
 1023 662 l 1,1,-1
 1023 422 l 1,2,-1
 0 422 l 1,3,-1
 0 662 l 1,0,-1
EndSplineSet
EndChar

StartChar: emdash
Encoding: 306 8212 122
Width: 2045
VWidth: 3198
Flags: W
HStem: 422 240<0 2047>
LayerCount: 2
Fore
SplineSet
0 662 m 1,0,-1
 2047 662 l 1,1,-1
 2047 422 l 1,2,-1
 0 422 l 1,3,-1
 0 662 l 1,0,-1
EndSplineSet
EndChar

StartChar: uni0E31.left
Encoding: 354 63248 123
Width: 0
VWidth: 3198
Flags: W
HStem: 1504 108<-921 -735.14> 1862 79<-1180.21 -1015.93>
VStem: -1382 173<1670.72 1836.88> -989 164<1655.94 1838.43>
LayerCount: 2
Fore
SplineSet
-201 1910 m 1,0,1
 -323 1708 -323 1708 -488 1606 c 128,-1,2
 -653 1504 -653 1504 -889 1504 c 0,3,4
 -950 1504 -950 1504 -1035 1513.5 c 128,-1,5
 -1120 1523 -1120 1523 -1196.5 1551.5 c 128,-1,6
 -1273 1580 -1273 1580 -1327.5 1631 c 128,-1,7
 -1382 1682 -1382 1682 -1382 1762 c 0,8,9
 -1382 1819 -1382 1819 -1356.5 1854.5 c 128,-1,10
 -1331 1890 -1331 1890 -1291 1909.5 c 128,-1,11
 -1251 1929 -1251 1929 -1202.5 1935 c 128,-1,12
 -1154 1941 -1154 1941 -1110 1941 c 0,13,14
 -1068 1941 -1068 1941 -1019 1935 c 128,-1,15
 -970 1929 -970 1929 -926 1909.5 c 128,-1,16
 -882 1890 -882 1890 -853.5 1856.5 c 128,-1,17
 -825 1823 -825 1823 -825 1769 c 0,18,19
 -825 1663 -825 1663 -921 1612 c 1,20,-1
 -873 1612 l 2,21,22
 -815 1612 -815 1612 -761 1640.5 c 128,-1,23
 -707 1669 -707 1669 -660.5 1713.5 c 128,-1,24
 -614 1758 -614 1758 -577 1810 c 128,-1,25
 -540 1862 -540 1862 -515 1910 c 1,26,-1
 -201 1910 l 1,0,1
-989 1758 m 0,27,28
 -989 1807 -989 1807 -1021 1834.5 c 128,-1,29
 -1053 1862 -1053 1862 -1096 1862 c 256,30,31
 -1142 1862 -1142 1862 -1175.5 1833 c 128,-1,32
 -1209 1804 -1209 1804 -1209 1758 c 128,-1,33
 -1209 1712 -1209 1712 -1178.5 1676.5 c 128,-1,34
 -1148 1641 -1148 1641 -1096 1641 c 0,35,36
 -989 1641 -989 1641 -989 1758 c 0,27,28
EndSplineSet
EndChar

StartChar: uni0E4D.left
Encoding: 355 63249 124
Width: 0
VWidth: 3198
Flags: W
HStem: 1382 70<-845.134 -691.127> 1758 68<-846.491 -704.386>
VStem: -1068 179<1484.92 1722.21> -653 155<1492.12 1716.45>
LayerCount: 2
Fore
SplineSet
-498 1609 m 0,0,1
 -498 1554 -498 1554 -524 1511 c 128,-1,2
 -550 1468 -550 1468 -589.5 1439 c 128,-1,3
 -629 1410 -629 1410 -679 1396 c 128,-1,4
 -729 1382 -729 1382 -778 1382 c 0,5,6
 -828 1382 -828 1382 -881 1394.5 c 128,-1,7
 -934 1407 -934 1407 -975.5 1433 c 128,-1,8
 -1017 1459 -1017 1459 -1042.5 1500 c 128,-1,9
 -1068 1541 -1068 1541 -1068 1602 c 0,10,11
 -1068 1657 -1068 1657 -1041 1698.5 c 128,-1,12
 -1014 1740 -1014 1740 -972.5 1769 c 128,-1,13
 -931 1798 -931 1798 -879.5 1812 c 128,-1,14
 -828 1826 -828 1826 -781 1826 c 256,15,16
 -732 1826 -732 1826 -680.5 1813.5 c 128,-1,17
 -629 1801 -629 1801 -589.5 1773.5 c 128,-1,18
 -550 1746 -550 1746 -524 1706 c 128,-1,19
 -498 1666 -498 1666 -498 1609 c 0,0,1
-653 1599 m 0,20,21
 -653 1648 -653 1648 -688 1703 c 128,-1,22
 -723 1758 -723 1758 -778 1758 c 0,23,24
 -806 1758 -806 1758 -827 1742.5 c 128,-1,25
 -848 1727 -848 1727 -862 1703 c 128,-1,26
 -876 1679 -876 1679 -882.5 1650 c 128,-1,27
 -889 1621 -889 1621 -889 1599 c 0,28,29
 -889 1551 -889 1551 -857 1501.5 c 128,-1,30
 -825 1452 -825 1452 -771 1452 c 0,31,32
 -711 1452 -711 1452 -682 1498.5 c 128,-1,33
 -653 1545 -653 1545 -653 1599 c 0,20,21
EndSplineSet
EndChar

StartChar: uni0E47.left
Encoding: 356 63250 125
Width: 0
VWidth: 3198
Flags: W
HStem: 1471 320<-772.988 -547.954> 1819 116<-1169.55 -748.287>
VStem: -1407 220<1622.56 1800.67> -806 323<1617.59 1750.36> -714 295<1969.48 2124>
LayerCount: 2
Fore
SplineSet
-419 2124 m 1,0,1
 -419 2102 -419 2102 -425 2075 c 0,2,3
 -436 2027 -436 2027 -454 1986 c 0,4,5
 -479 1941 -479 1941 -509.5 1906 c 128,-1,6
 -540 1871 -540 1871 -592 1852 c 256,7,8
 -643 1833 -643 1833 -700 1826 c 128,-1,9
 -757 1819 -757 1819 -818 1819 c 2,10,-1
 -1020 1819 l 2,11,12
 -1053 1819 -1053 1819 -1083 1817.5 c 128,-1,13
 -1113 1816 -1113 1816 -1135 1805 c 128,-1,14
 -1157 1794 -1157 1794 -1172 1771.5 c 128,-1,15
 -1187 1749 -1187 1749 -1187 1708 c 256,16,17
 -1187 1666 -1187 1666 -1160 1621 c 1,18,19
 -1126 1641 -1126 1641 -1087.5 1676.5 c 128,-1,20
 -1049 1712 -1049 1712 -1007 1712 c 0,21,22
 -950 1712 -950 1712 -894.5 1681.5 c 128,-1,23
 -839 1651 -839 1651 -793 1615 c 1,24,25
 -796 1621 -796 1621 -801 1639 c 128,-1,26
 -806 1657 -806 1657 -806 1663 c 2,27,-1
 -806 1679 l 2,28,29
 -806 1730 -806 1730 -774 1760.5 c 128,-1,30
 -742 1791 -742 1791 -659 1791 c 0,31,32
 -598 1791 -598 1791 -540.5 1759 c 128,-1,33
 -483 1727 -483 1727 -483 1654 c 0,34,35
 -483 1551 -483 1551 -554.5 1511 c 128,-1,36
 -626 1471 -626 1471 -717 1471 c 0,37,38
 -809 1471 -809 1471 -870 1501.5 c 128,-1,39
 -931 1532 -931 1532 -998 1596 c 1,40,41
 -1029 1541 -1029 1541 -1077.5 1501.5 c 128,-1,42
 -1126 1462 -1126 1462 -1193 1462 c 0,43,44
 -1288 1462 -1288 1462 -1347.5 1530.5 c 128,-1,45
 -1407 1599 -1407 1599 -1407 1691 c 0,46,47
 -1407 1755 -1407 1755 -1370 1807 c 0,48,49
 -1337 1852 -1337 1852 -1289.5 1878 c 128,-1,50
 -1242 1904 -1242 1904 -1185.5 1916.5 c 128,-1,51
 -1129 1929 -1129 1929 -1069.5 1933.5 c 128,-1,52
 -1010 1938 -1010 1938 -956 1938 c 0,53,54
 -912 1938 -912 1938 -874 1936.5 c 128,-1,55
 -836 1935 -836 1935 -809 1935 c 2,56,-1
 -796 1935 l 2,57,58
 -771 1938 -771 1938 -755 1967 c 128,-1,59
 -739 1996 -739 1996 -729 2030 c 0,60,61
 -717 2072 -717 2072 -714 2124 c 1,62,-1
 -419 2124 l 1,0,1
EndSplineSet
EndChar

StartChar: uni0E48.left
Encoding: 357 63251 126
Width: 0
VWidth: 3198
Flags: W
HStem: 2069 369<-726 -464>
VStem: -726 262<2069 2438>
LayerCount: 2
Fore
SplineSet
-726 2438 m 1,0,-1
 -464 2438 l 1,1,-1
 -464 2069 l 1,2,-1
 -726 2069 l 1,3,-1
 -726 2438 l 1,0,-1
EndSplineSet
EndChar

StartChar: uni0E49.left
Encoding: 358 63252 127
Width: 0
VWidth: 3198
Flags: W
HStem: 2021 94<-1016.9 -895.923> 2197 71<-929.579 -873> 2453 61<-929.914 -822.442>
VStem: -1104 158<2273.94 2435.48> -803 144<2285.56 2435.57>
LayerCount: 2
Fore
SplineSet
-223 2536 m 1,0,1
 -230 2488 -230 2488 -247.5 2445 c 128,-1,2
 -265 2402 -265 2402 -290 2360 c 0,3,4
 -326 2304 -326 2304 -361.5 2260 c 128,-1,5
 -397 2216 -397 2216 -451 2179 c 0,6,7
 -570 2094 -570 2094 -715 2057.5 c 128,-1,8
 -860 2021 -860 2021 -1004 2021 c 0,9,10
 -1014 2021 -1014 2021 -1017 2024 c 1,11,-1
 -1017 2115 l 1,12,13
 -992 2124 -992 2124 -969 2124 c 128,-1,14
 -946 2124 -946 2124 -927.5 2127 c 128,-1,15
 -909 2130 -909 2130 -895.5 2144 c 128,-1,16
 -882 2158 -882 2158 -873 2197 c 1,17,18
 -912 2197 -912 2197 -952 2205 c 128,-1,19
 -992 2213 -992 2213 -1025.5 2232.5 c 128,-1,20
 -1059 2252 -1059 2252 -1081.5 2282.5 c 128,-1,21
 -1104 2313 -1104 2313 -1104 2357 c 256,22,23
 -1104 2402 -1104 2402 -1081.5 2431 c 128,-1,24
 -1059 2460 -1059 2460 -1025.5 2478.5 c 128,-1,25
 -992 2497 -992 2497 -952 2505.5 c 128,-1,26
 -912 2514 -912 2514 -876 2514 c 0,27,28
 -790 2514 -790 2514 -724.5 2474.5 c 128,-1,29
 -659 2435 -659 2435 -659 2338 c 0,30,31
 -659 2293 -659 2293 -676 2248.5 c 128,-1,32
 -693 2204 -693 2204 -720 2169 c 1,33,34
 -617 2216 -617 2216 -563 2320 c 128,-1,35
 -509 2424 -509 2424 -503 2536 c 1,36,-1
 -223 2536 l 1,0,1
-803 2363 m 256,37,38
 -803 2399 -803 2399 -822.5 2426 c 128,-1,39
 -842 2453 -842 2453 -879 2453 c 0,40,41
 -915 2453 -915 2453 -930.5 2423 c 128,-1,42
 -946 2393 -946 2393 -946 2360 c 256,43,44
 -946 2328 -946 2328 -927.5 2298 c 128,-1,45
 -909 2268 -909 2268 -873 2268 c 0,46,47
 -828 2268 -828 2268 -815.5 2298 c 128,-1,48
 -803 2328 -803 2328 -803 2363 c 256,37,38
EndSplineSet
EndChar

StartChar: uni0E4A.left
Encoding: 359 63253 128
Width: 0
VWidth: 3198
Flags: W
HStem: 2051 229<-892.717 -720.229> 2057 98<-639.812 -579.765>
VStem: -1090 153<2213.69 2387.35> -562 111<2223.31 2395.68>
LayerCount: 2
Fore
SplineSet
-851 2418 m 1,0,1
 -882 2402 -882 2402 -909.5 2371.5 c 128,-1,2
 -937 2341 -937 2341 -937 2304 c 0,3,4
 -937 2255 -937 2255 -906 2213 c 1,5,6
 -889 2249 -889 2249 -858.5 2264.5 c 128,-1,7
 -828 2280 -828 2280 -793 2280 c 0,8,9
 -732 2280 -732 2280 -709.5 2245 c 128,-1,10
 -687 2210 -687 2210 -687 2161 c 256,11,12
 -687 2115 -687 2115 -737 2083 c 128,-1,13
 -787 2051 -787 2051 -842 2051 c 0,14,15
 -940 2051 -940 2051 -1015 2103 c 128,-1,16
 -1090 2155 -1090 2155 -1090 2264 c 0,17,18
 -1090 2313 -1090 2313 -1068 2353 c 128,-1,19
 -1046 2393 -1046 2393 -1012.5 2423 c 128,-1,20
 -979 2453 -979 2453 -935.5 2473.5 c 128,-1,21
 -892 2494 -892 2494 -851 2508 c 1,22,-1
 -796 2508 l 1,23,-1
 -704 2427 l 1,24,25
 -684 2453 -684 2453 -652 2473.5 c 128,-1,26
 -620 2494 -620 2494 -592 2494 c 0,27,28
 -576 2494 -576 2494 -556.5 2488 c 128,-1,29
 -537 2482 -537 2482 -522 2475 c 0,30,31
 -473 2453 -473 2453 -462 2401.5 c 128,-1,32
 -451 2350 -451 2350 -451 2307 c 128,-1,33
 -451 2264 -451 2264 -467 2222 c 1,34,35
 -419 2264 -419 2264 -400 2334.5 c 128,-1,36
 -381 2405 -381 2405 -381 2466 c 0,37,38
 -381 2482 -381 2482 -382.5 2496.5 c 128,-1,39
 -384 2511 -384 2511 -387 2527 c 1,40,-1
 -166 2527 l 1,41,42
 -173 2478 -173 2478 -176.5 2429 c 128,-1,43
 -180 2380 -180 2380 -195 2335 c 0,44,45
 -241 2213 -241 2213 -351 2142.5 c 128,-1,46
 -461 2072 -461 2072 -592 2057 c 2,47,-1
 -640 2057 l 1,48,-1
 -640 2146 l 1,49,50
 -634 2152 -634 2152 -624 2155 c 128,-1,51
 -614 2158 -614 2158 -608 2165 c 0,52,53
 -579 2188 -579 2188 -570.5 2221.5 c 128,-1,54
 -562 2255 -562 2255 -562 2289 c 0,55,56
 -562 2316 -562 2316 -567.5 2351 c 128,-1,57
 -573 2386 -573 2386 -598 2396 c 1,58,59
 -626 2380 -626 2380 -655 2346.5 c 128,-1,60
 -684 2313 -684 2313 -720 2313 c 256,61,62
 -754 2313 -754 2313 -795 2351 c 128,-1,63
 -836 2389 -836 2389 -851 2418 c 1,0,1
EndSplineSet
EndChar

StartChar: uni0E4B.left
Encoding: 360 63254 129
Width: 0
VWidth: 3198
Flags: W
HStem: 2075 394<-729 -464> 2222 110<-876 -729 -464 -311>
VStem: -729 265<2075 2222 2332 2469>
LayerCount: 2
Fore
SplineSet
-464 2075 m 1,0,-1
 -729 2075 l 1,1,-1
 -729 2222 l 1,2,-1
 -876 2222 l 1,3,-1
 -876 2332 l 1,4,-1
 -729 2332 l 1,5,-1
 -729 2469 l 1,6,-1
 -464 2469 l 1,7,-1
 -464 2332 l 1,8,-1
 -311 2332 l 1,9,-1
 -311 2222 l 1,10,-1
 -464 2222 l 1,11,-1
 -464 2075 l 1,0,-1
EndSplineSet
EndChar

StartChar: uni0E4C.left
Encoding: 361 63255 130
Width: 0
VWidth: 3198
Flags: W
HStem: 1890 70<-574.987 -459.394>
VStem: -768 167<1972.77 2198.92> -442 161<1966.22 2202.19>
LayerCount: 2
Fore
SplineSet
-317 2430 m 0,0,1
 -314 2441 -314 2441 -314 2453.5 c 128,-1,2
 -314 2466 -314 2466 -311 2482 c 256,3,4
 -308 2497 -308 2497 -308 2517 c 1,5,-1
 -39 2517 l 1,6,7
 -55 2399 -55 2399 -128 2312 c 128,-1,8
 -201 2225 -201 2225 -320 2200 c 1,9,10
 -305 2175 -305 2175 -293 2146.5 c 128,-1,11
 -281 2118 -281 2118 -281 2085 c 0,12,13
 -281 1980 -281 1980 -356 1935 c 128,-1,14
 -431 1890 -431 1890 -525 1890 c 0,15,16
 -614 1890 -614 1890 -691 1938 c 128,-1,17
 -768 1986 -768 1986 -768 2085 c 0,18,19
 -768 2102 -768 2102 -759.5 2131.5 c 128,-1,20
 -751 2161 -751 2161 -729 2191.5 c 128,-1,21
 -707 2222 -707 2222 -665 2248 c 128,-1,22
 -623 2274 -623 2274 -556 2283 c 0,23,24
 -479 2293 -479 2293 -434.5 2310.5 c 128,-1,25
 -390 2328 -390 2328 -366 2349.5 c 128,-1,26
 -342 2371 -342 2371 -332.5 2391 c 128,-1,27
 -323 2411 -323 2411 -317 2430 c 0,0,1
-442 2079 m 0,28,29
 -442 2118 -442 2118 -456 2165.5 c 128,-1,30
 -470 2213 -470 2213 -522 2213 c 0,31,32
 -562 2213 -562 2213 -581.5 2165.5 c 128,-1,33
 -601 2118 -601 2118 -601 2082 c 0,34,35
 -601 2044 -601 2044 -580 2002 c 128,-1,36
 -559 1960 -559 1960 -515 1960 c 256,37,38
 -470 1960 -470 1960 -456 2002 c 128,-1,39
 -442 2044 -442 2044 -442 2079 c 0,28,29
EndSplineSet
EndChar

StartChar: uni0E01
Encoding: 213 3585 132
Width: 1460
VWidth: 3198
Flags: W
HStem: 0 21G<106 428 998 1201.99> 845 111<211 269> 1129 116<409.902 855.876>
VStem: 106 322<0 743.521> 998 329<159 980.959>
LayerCount: 2
Fore
SplineSet
1327 159 m 1,0,-1
 1184 0 l 1,1,-1
 998 0 l 1,2,-1
 998 828 l 2,3,4
 998 965 998 965 908 1047 c 128,-1,5
 818 1129 818 1129 684 1129 c 0,6,7
 547 1129 547 1129 429 1091 c 128,-1,8
 311 1053 311 1053 211 956 c 1,9,-1
 583 956 l 1,10,-1
 583 870 l 1,11,12
 509 831 509 831 468.5 789.5 c 128,-1,13
 428 748 428 748 428 656 c 2,14,-1
 428 0 l 1,15,-1
 106 0 l 1,16,-1
 106 656 l 2,17,18
 106 681 106 681 123.5 708.5 c 128,-1,19
 141 736 141 736 168 761.5 c 128,-1,20
 195 787 195 787 222.5 809 c 128,-1,21
 250 831 250 831 269 845 c 1,22,-1
 19 845 l 1,23,-1
 19 995 l 1,24,25
 141 1107 141 1107 315 1176 c 128,-1,26
 489 1245 489 1245 687 1245 c 0,27,28
 842 1245 842 1245 950.5 1216 c 128,-1,29
 1059 1187 1059 1187 1129 1144 c 128,-1,30
 1199 1101 1199 1101 1239 1048 c 128,-1,31
 1279 995 1279 995 1298.5 949 c 128,-1,32
 1318 903 1318 903 1322.5 865.5 c 128,-1,33
 1327 828 1327 828 1327 815 c 2,34,-1
 1327 809 l 1,35,-1
 1327 159 l 1,0,-1
EndSplineSet
EndChar

StartChar: uni0E02
Encoding: 214 3586 133
Width: 1450
VWidth: 3198
Flags: W
HStem: 0 128<186 317 647 982> 701 67<226.455 351.802> 992 76<234.896 351.158> 1151 87<284.648 567.996>
VStem: 16 179<798.052 969.448> 317 330<128 534.59> 372 162<775.154 979.524> 640 278<815.521 1071.42> 982 330<130.17 1074>
LayerCount: 2
Fore
SplineSet
1312 217 m 1,0,1
 1312 95 1312 95 1240 47.5 c 128,-1,2
 1168 0 1168 0 1056 0 c 2,3,-1
 186 0 l 1,4,-1
 186 128 l 1,5,-1
 317 128 l 1,6,-1
 317 415 l 2,7,8
 317 483 317 483 368 542 c 128,-1,9
 419 601 419 601 478 662 c 128,-1,10
 537 723 537 723 588.5 790 c 128,-1,11
 640 857 640 857 640 943 c 0,12,13
 640 1037 640 1037 584 1094 c 128,-1,14
 528 1151 528 1151 436 1151 c 0,15,16
 375 1151 375 1151 322 1129 c 128,-1,17
 269 1107 269 1107 234 1056 c 1,18,19
 275 1068 275 1068 330 1068 c 0,20,21
 406 1068 406 1068 470 1026.5 c 128,-1,22
 534 985 534 985 534 898 c 0,23,24
 534 784 534 784 459 742.5 c 128,-1,25
 384 701 384 701 281 701 c 0,26,27
 234 701 234 701 187.5 712 c 128,-1,28
 141 723 141 723 102.5 747 c 128,-1,29
 64 771 64 771 40 809.5 c 128,-1,30
 16 848 16 848 16 903 c 0,31,32
 16 989 16 989 52.5 1051 c 128,-1,33
 89 1113 89 1113 150 1154.5 c 128,-1,34
 211 1196 211 1196 284.5 1217 c 128,-1,35
 358 1238 358 1238 436 1238 c 0,36,37
 506 1238 506 1238 589 1223.5 c 128,-1,38
 672 1209 672 1209 745 1173.5 c 128,-1,39
 818 1138 818 1138 868 1079 c 128,-1,40
 918 1020 918 1020 918 934 c 0,41,42
 918 873 918 873 874.5 817 c 128,-1,43
 831 761 831 761 781.5 704 c 128,-1,44
 732 647 732 647 689.5 586 c 128,-1,45
 647 525 647 525 647 454 c 2,46,-1
 647 128 l 1,47,-1
 982 128 l 1,48,-1
 982 1074 l 1,49,-1
 1135 1224 l 1,50,-1
 1312 1224 l 1,51,-1
 1312 217 l 1,0,1
372 892 m 256,52,53
 372 928 372 928 347.5 960 c 128,-1,54
 323 992 323 992 284 992 c 0,55,56
 244 992 244 992 219.5 961.5 c 128,-1,57
 195 931 195 931 195 892 c 0,58,59
 195 848 195 848 221 808 c 128,-1,60
 247 768 247 768 297 768 c 0,61,62
 342 768 342 768 357 812.5 c 128,-1,63
 372 857 372 857 372 892 c 256,52,53
EndSplineSet
EndChar

StartChar: uni0E03
Encoding: 215 3587 134
Width: 1325
VWidth: 3198
Flags: W
HStem: 0 128<150 284 611 925> 656 67<220.921 335.348> 925 76<218.026 340.907> 1040 191<278.207 354.059 473.086 566.943>
VStem: 9 164<940.501 1125.22> 284 327<128 510.701> 355 121<730.231 908.935> 668 208<872.246 1114.1> 925 323<128.674 1129>
LayerCount: 2
Fore
SplineSet
150 0 m 1,0,-1
 150 128 l 1,1,-1
 284 128 l 1,2,-1
 284 397 l 2,3,4
 284 458 284 458 345 531 c 128,-1,5
 406 604 406 604 478 684 c 128,-1,6
 550 764 550 764 609 849 c 128,-1,7
 668 934 668 934 668 1017 c 0,8,9
 668 1059 668 1059 655.5 1077.5 c 128,-1,10
 643 1096 643 1096 614 1123 c 1,11,12
 531 1040 531 1040 406 1040 c 0,13,14
 348 1040 348 1040 300.5 1070.5 c 128,-1,15
 253 1101 253 1101 205 1126 c 1,16,17
 186 1101 186 1101 179.5 1072 c 128,-1,18
 173 1043 173 1043 173 1010 c 0,19,20
 173 995 173 995 174.5 975.5 c 128,-1,21
 176 956 176 956 180 940 c 1,22,23
 195 976 195 976 238 988.5 c 128,-1,24
 281 1001 281 1001 317 1001 c 0,25,26
 390 1001 390 1001 433 961 c 128,-1,27
 476 921 476 921 476 848 c 0,28,29
 476 751 476 751 417 703.5 c 128,-1,30
 358 656 358 656 265 656 c 0,31,32
 119 656 119 656 64 743.5 c 128,-1,33
 9 831 9 831 9 962 c 0,34,35
 9 1010 9 1010 20 1058.5 c 128,-1,36
 31 1107 31 1107 55.5 1145.5 c 128,-1,37
 80 1184 80 1184 118 1207.5 c 128,-1,38
 156 1231 156 1231 214 1231 c 256,39,40
 272 1231 272 1231 322 1204.5 c 128,-1,41
 372 1178 372 1178 415 1142 c 1,42,43
 461 1181 461 1181 508.5 1209.5 c 128,-1,44
 556 1238 556 1238 617 1238 c 0,45,46
 665 1238 665 1238 711 1218.5 c 128,-1,47
 757 1199 757 1199 794 1165.5 c 128,-1,48
 831 1132 831 1132 853.5 1087.5 c 128,-1,49
 876 1043 876 1043 876 995 c 0,50,51
 876 906 876 906 834.5 835 c 128,-1,52
 793 764 793 764 743 700.5 c 128,-1,53
 693 637 693 637 652 576 c 128,-1,54
 611 515 611 515 611 445 c 2,55,-1
 611 128 l 1,56,-1
 925 128 l 1,57,-1
 925 1129 l 1,58,-1
 1101 1224 l 1,59,-1
 1248 1224 l 1,60,-1
 1248 159 l 2,61,62
 1248 131 1248 131 1217.5 104 c 128,-1,63
 1187 77 1187 77 1141.5 52.5 c 128,-1,64
 1096 28 1096 28 1045.5 14 c 128,-1,65
 995 0 995 0 953 0 c 2,66,-1
 150 0 l 1,0,-1
355 839 m 256,67,68
 355 873 355 873 339 899 c 128,-1,69
 323 925 323 925 284 925 c 0,70,71
 250 925 250 925 225.5 897.5 c 128,-1,72
 201 870 201 870 201 836 c 256,73,74
 201 800 201 800 217.5 761.5 c 128,-1,75
 234 723 234 723 278 723 c 256,76,77
 323 723 323 723 339 763 c 128,-1,78
 355 803 355 803 355 839 c 256,67,68
EndSplineSet
EndChar

StartChar: uni0E04
Encoding: 216 3588 135
Width: 1386
VWidth: 3198
Flags: W
HStem: 0 21G<943 1153> 454 93<428.521 566.189> 803 95<408.571 560.068> 1135 100<404.817 816.451>
VStem: 36 159<663.104 960.909> 159 269<3 460.936> 583 146<574.934 785.111> 943 327<86.1948 992.624>
LayerCount: 2
Fore
SplineSet
1270 128 m 1,0,1
 1235 95 1235 95 1203 65.5 c 128,-1,2
 1171 36 1171 36 1135 0 c 1,3,-1
 943 0 l 1,4,-1
 943 831 l 2,5,6
 943 976 943 976 862 1055.5 c 128,-1,7
 781 1135 781 1135 637 1135 c 0,8,9
 559 1135 559 1135 481 1115.5 c 128,-1,10
 403 1096 403 1096 339 1056.5 c 128,-1,11
 275 1017 275 1017 235 954.5 c 128,-1,12
 195 892 195 892 195 803 c 0,13,14
 195 768 195 768 204.5 732.5 c 128,-1,15
 214 697 214 697 230 662 c 1,16,17
 250 754 250 754 318.5 826 c 128,-1,18
 387 898 387 898 489 898 c 0,19,20
 583 898 583 898 656 842.5 c 128,-1,21
 729 787 729 787 729 687 c 0,22,23
 729 576 729 576 663.5 515 c 128,-1,24
 598 454 598 454 486 454 c 0,25,26
 470 454 470 454 457.5 456 c 128,-1,27
 445 458 445 458 428 461 c 1,28,-1
 428 3 l 1,29,-1
 159 3 l 1,30,-1
 159 364 l 2,31,32
 159 415 159 415 141 464 c 0,33,34
 112 547 112 547 74 622 c 128,-1,35
 36 697 36 697 36 790 c 0,36,37
 36 915 36 915 90 1001 c 128,-1,38
 144 1087 144 1087 230.5 1138.5 c 128,-1,39
 317 1190 317 1190 425.5 1212.5 c 128,-1,40
 534 1235 534 1235 640 1235 c 0,41,42
 736 1235 736 1235 846 1214 c 128,-1,43
 956 1193 956 1193 1050.5 1144.5 c 128,-1,44
 1145 1096 1145 1096 1207.5 1018 c 128,-1,45
 1270 940 1270 940 1270 821 c 2,46,-1
 1270 128 l 1,0,1
583 684 m 0,47,48
 583 726 583 726 557 764.5 c 128,-1,49
 531 803 531 803 486 803 c 0,50,51
 431 803 431 803 407.5 758.5 c 128,-1,52
 384 714 384 714 384 665 c 0,53,54
 384 620 384 620 411.5 583.5 c 128,-1,55
 439 547 439 547 486 547 c 0,56,57
 550 547 550 547 566.5 590.5 c 128,-1,58
 583 634 583 634 583 684 c 0,47,48
EndSplineSet
EndChar

StartChar: uni0E05
Encoding: 217 3589 136
Width: 1407
VWidth: 3198
Flags: W
HStem: 0 21G<156 425> 412 91<430.992 588.418> 757 97<431.103 583.012> 982 119<558.268 732.484> 1120 118<265.832 449.618>
VStem: 39 147<621.621 1020.81> 156 269<0 427.601> 250 156<579.135 713.17> 604 138<530.141 740.768> 970 325<128 1034.75>
DStem2: 461.5 1217 416 1099 0.802178 -0.597085<-29.8932 211.796>
LayerCount: 2
Fore
SplineSet
970 3 m 1,0,-1
 970 879 l 2,1,2
 970 898 970 898 967.5 934 c 128,-1,3
 965 970 965 970 959 1003.5 c 128,-1,4
 953 1037 953 1037 937 1062 c 128,-1,5
 921 1087 921 1087 892 1087 c 0,6,7
 860 1087 860 1087 831.5 1071.5 c 128,-1,8
 803 1056 803 1056 772.5 1035 c 128,-1,9
 742 1014 742 1014 711.5 998 c 128,-1,10
 681 982 681 982 643 982 c 0,11,12
 595 982 595 982 555 1002.5 c 128,-1,13
 515 1023 515 1023 481.5 1050.5 c 128,-1,14
 448 1078 448 1078 416 1099 c 128,-1,15
 384 1120 384 1120 351 1120 c 0,16,17
 305 1120 305 1120 273 1084.5 c 128,-1,18
 241 1049 241 1049 221 999.5 c 128,-1,19
 201 950 201 950 193.5 897.5 c 128,-1,20
 186 845 186 845 186 809 c 0,21,22
 186 748 186 748 204.5 691 c 128,-1,23
 223 634 223 634 250 579 c 1,24,25
 250 697 250 697 318.5 775.5 c 128,-1,26
 387 854 387 854 509 854 c 0,27,28
 611 854 611 854 676.5 795 c 128,-1,29
 742 736 742 736 742 634 c 256,30,31
 742 531 742 531 671.5 471.5 c 128,-1,32
 601 412 601 412 503 412 c 0,33,34
 467 412 467 412 425 428 c 1,35,-1
 425 0 l 1,36,-1
 156 0 l 1,37,-1
 156 333 l 2,38,39
 156 387 156 387 137 439 c 0,40,41
 109 522 109 522 74 598.5 c 128,-1,42
 39 675 39 675 39 764 c 0,43,44
 39 848 39 848 54.5 932.5 c 128,-1,45
 70 1017 70 1017 108.5 1084 c 128,-1,46
 147 1151 147 1151 212.5 1194.5 c 128,-1,47
 278 1238 278 1238 378 1238 c 0,48,49
 425 1238 425 1238 461.5 1217 c 128,-1,50
 498 1196 498 1196 530 1169 c 128,-1,51
 562 1142 562 1142 588 1121.5 c 128,-1,52
 614 1101 614 1101 640 1101 c 0,53,54
 668 1101 668 1101 700 1123 c 128,-1,55
 732 1145 732 1145 766 1170.5 c 128,-1,56
 800 1196 800 1196 838 1219 c 128,-1,57
 876 1242 876 1242 918 1242 c 0,58,59
 995 1242 995 1242 1063.5 1211.5 c 128,-1,60
 1132 1181 1132 1181 1183.5 1127.5 c 128,-1,61
 1235 1074 1235 1074 1265 1005.5 c 128,-1,62
 1295 937 1295 937 1295 860 c 2,63,-1
 1295 128 l 1,64,-1
 1145 3 l 1,65,-1
 970 3 l 1,0,-1
604 640 m 0,66,67
 604 678 604 678 580 717.5 c 128,-1,68
 556 757 556 757 512 757 c 0,69,70
 454 757 454 757 430 714.5 c 128,-1,71
 406 672 406 672 406 620 c 0,72,73
 406 576 406 576 433.5 539.5 c 128,-1,74
 461 503 461 503 509 503 c 0,75,76
 573 503 573 503 588.5 546 c 128,-1,77
 604 589 604 589 604 640 c 0,66,67
EndSplineSet
EndChar

StartChar: uni0E06
Encoding: 218 3590 137
Width: 1502
VWidth: 3198
Flags: W
HStem: 0 21G<314 451.5 1060.5 1306> 678 70<212.86 329.933> 950 67<215.024 333.592> 1034 201<293.637 378.858> 1123 108<576.592 707.556>
VStem: 25 170<773.35 1116.16> 92 180<113.737 356.813> 348 122<755.29 934.653> 364 289<83.6991 311 499.645 634.062> 711 223<908.485 1122.1> 1065 326<244 1151.57>
DStem2: 537 759 718 693 0.720735 0.693211<-35.577 270.664> 662 489 653 311 0.854485 -0.519476<84.7764 471.603>
LayerCount: 2
Fore
SplineSet
1391 103 m 1,0,1
 1391 67 1391 67 1359 33.5 c 128,-1,2
 1327 0 1327 0 1285 0 c 2,3,-1
 1117 0 l 1,4,5
 1004 86 1004 86 887.5 161.5 c 128,-1,6
 771 237 771 237 653 311 c 1,7,-1
 653 262 l 2,8,9
 653 109 653 109 590.5 51.5 c 128,-1,10
 528 -6 528 -6 375 -6 c 0,11,12
 253 -6 253 -6 172.5 51.5 c 128,-1,13
 92 109 92 109 92 244 c 0,14,15
 92 294 92 294 118 339 c 128,-1,16
 144 384 144 384 183.5 419 c 128,-1,17
 223 454 223 454 271.5 478.5 c 128,-1,18
 320 503 320 503 364 512 c 1,19,-1
 364 547 l 2,20,21
 364 592 364 592 418.5 644.5 c 128,-1,22
 473 697 473 697 537 759 c 128,-1,23
 601 821 601 821 656 893 c 128,-1,24
 711 965 711 965 711 1046 c 0,25,26
 711 1062 711 1062 706 1092.5 c 128,-1,27
 701 1123 701 1123 675 1123 c 0,28,29
 665 1123 665 1123 638 1108 c 128,-1,30
 611 1093 611 1093 575.5 1077.5 c 128,-1,31
 540 1062 540 1062 503.5 1048 c 128,-1,32
 467 1034 467 1034 431 1034 c 0,33,34
 384 1034 384 1034 326.5 1062 c 128,-1,35
 269 1090 269 1090 226 1117 c 1,36,37
 208 1090 208 1090 208 1063.5 c 128,-1,38
 208 1037 208 1037 201 1004 c 1,39,40
 241 1017 241 1017 287 1017 c 0,41,42
 369 1017 369 1017 419.5 977 c 128,-1,43
 470 937 470 937 470 854 c 0,44,45
 470 761 470 761 404.5 719.5 c 128,-1,46
 339 678 339 678 256 678 c 0,47,48
 147 678 147 678 86 740.5 c 128,-1,49
 25 803 25 803 25 912 c 0,50,51
 25 976 25 976 30.5 1033 c 128,-1,52
 36 1090 36 1090 58 1135.5 c 128,-1,53
 80 1181 80 1181 125 1208 c 128,-1,54
 170 1235 170 1235 250 1235 c 0,55,56
 265 1235 265 1235 294 1225 c 128,-1,57
 323 1215 323 1215 352 1202.5 c 128,-1,58
 381 1190 381 1190 408.5 1175 c 128,-1,59
 436 1160 436 1160 448 1148 c 1,60,61
 495 1184 495 1184 551.5 1207.5 c 128,-1,62
 608 1231 608 1231 672 1231 c 0,63,64
 787 1231 787 1231 860.5 1180 c 128,-1,65
 934 1129 934 1129 934 1004 c 0,66,67
 934 943 934 943 895.5 889.5 c 128,-1,68
 857 836 857 836 809 787.5 c 128,-1,69
 761 739 761 739 718 693 c 128,-1,70
 675 647 675 647 665 601 c 0,71,72
 662 589 662 589 662 562 c 2,73,-1
 662 489 l 1,74,75
 764 425 764 425 864.5 366.5 c 128,-1,76
 965 308 965 308 1065 244 c 1,77,-1
 1065 1113 l 1,78,79
 1101 1148 1101 1148 1137.5 1172 c 128,-1,80
 1174 1196 1174 1196 1212 1221 c 1,81,-1
 1391 1221 l 1,82,-1
 1391 103 l 1,0,1
348 864 m 256,83,84
 348 898 348 898 332.5 924 c 128,-1,85
 317 950 317 950 278 950 c 0,86,87
 244 950 244 950 219.5 922.5 c 128,-1,88
 195 895 195 895 195 860 c 256,89,90
 195 825 195 825 210.5 786.5 c 128,-1,91
 226 748 226 748 272 748 c 256,92,93
 317 748 317 748 332.5 788 c 128,-1,94
 348 828 348 828 348 864 c 256,83,84
364 390 m 1,95,96
 320 372 320 372 296 326.5 c 128,-1,97
 272 281 272 281 272 234 c 0,98,99
 272 189 272 189 296 143.5 c 128,-1,100
 320 98 320 98 364 83 c 1,101,-1
 364 390 l 1,95,96
EndSplineSet
EndChar

StartChar: uni0E07
Encoding: 219 3591 138
Width: 1032
VWidth: 3198
Flags: W
HStem: 0 21G<557.924 806> 768 86<506.332 600.334> 1157 81<510.449 653.829>
VStem: 294 182<894.35 1129.25> 601 327<256 768> 678 250<872.602 1123.98>
DStem2: 244 634 3 634 0.670515 -0.741896<0 519.811>
LayerCount: 2
Fore
SplineSet
928 125 m 1,0,1
 928 112 928 112 913 91 c 128,-1,2
 898 70 898 70 877.5 49 c 128,-1,3
 857 28 857 28 834.5 14 c 128,-1,4
 812 0 812 0 800 0 c 2,5,-1
 576 0 l 1,6,-1
 3 634 l 1,7,-1
 244 634 l 1,8,-1
 601 256 l 1,9,-1
 601 768 l 1,10,11
 543 768 543 768 487 780.5 c 128,-1,12
 431 793 431 793 388 822 c 128,-1,13
 345 851 345 851 319.5 897 c 128,-1,14
 294 943 294 943 294 1010 c 0,15,16
 294 1074 294 1074 319.5 1118.5 c 128,-1,17
 345 1163 345 1163 386.5 1189 c 128,-1,18
 428 1215 428 1215 481 1226.5 c 128,-1,19
 534 1238 534 1238 592 1238 c 256,20,21
 650 1238 650 1238 709 1225 c 128,-1,22
 768 1212 768 1212 816 1183 c 128,-1,23
 864 1154 864 1154 896 1108 c 128,-1,24
 928 1062 928 1062 928 995 c 2,25,-1
 928 125 l 1,0,1
678 1014 m 0,26,27
 678 1053 678 1053 659 1105 c 128,-1,28
 640 1157 640 1157 589 1157 c 0,29,30
 534 1157 534 1157 505 1109.5 c 128,-1,31
 476 1062 476 1062 476 1014 c 0,32,33
 476 962 476 962 500.5 908 c 128,-1,34
 525 854 525 854 589 854 c 0,35,36
 614 854 614 854 632 871.5 c 128,-1,37
 650 889 650 889 659 914.5 c 128,-1,38
 668 940 668 940 673 967.5 c 128,-1,39
 678 995 678 995 678 1014 c 0,26,27
EndSplineSet
EndChar

StartChar: uni0E08
Encoding: 220 3592 139
Width: 1194
VWidth: 3198
Flags: W
HStem: 0 21G<567.976 1050.63> 403 95<304.743 439.622> 757 85<306.913 431.712> 1142 96<372.605 726.753>
VStem: 25 73<778 850> 119 162<516.479 740.366>
DStem2: 693 479 467 422 0.243617 -0.969872<0.225231 336.385> 790 150 1049 0 0.0810539 0.99671<0 676.102>
LayerCount: 2
Fore
SplineSet
573 0 m 1,0,-1
 467 422 l 1,1,2
 438 412 l 0,3,4
 409 403 409 403 390 403 c 0,5,6
 284 403 284 403 201.5 447.5 c 128,-1,7
 119 492 119 492 119 614 c 0,8,9
 119 723 119 723 194 782.5 c 128,-1,10
 269 842 269 842 372 842 c 0,11,12
 464 842 464 842 520 813 c 128,-1,13
 576 784 576 784 609.5 735.5 c 128,-1,14
 643 687 643 687 660.5 621.5 c 128,-1,15
 678 556 678 556 693 479 c 2,16,-1
 764 150 l 1,17,-1
 790 150 l 1,18,-1
 831 784 l 1,19,-1
 831 825 l 2,20,21
 831 985 831 985 766 1063.5 c 128,-1,22
 701 1142 701 1142 534 1142 c 0,23,24
 461 1142 461 1142 392 1108 c 128,-1,25
 323 1074 323 1074 267 1022 c 128,-1,26
 211 970 211 970 168 906 c 128,-1,27
 125 842 125 842 98 778 c 1,28,-1
 25 778 l 1,29,-1
 25 1049 l 2,30,31
 25 1056 25 1056 40 1068.5 c 128,-1,32
 55 1081 55 1081 61 1087 c 0,33,34
 162 1174 162 1174 281 1206 c 128,-1,35
 400 1238 400 1238 534 1238 c 0,36,37
 614 1238 614 1238 696 1232.5 c 128,-1,38
 778 1227 778 1227 849.5 1204 c 128,-1,39
 921 1181 921 1181 980.5 1131 c 128,-1,40
 1040 1081 1040 1081 1071 995 c 0,41,42
 1113 898 1113 898 1113 787 c 2,43,-1
 1049 0 l 1,44,-1
 573 0 l 1,0,-1
458 623 m 0,45,46
 458 643 458 643 453 665 c 128,-1,47
 448 687 448 687 436.5 708 c 128,-1,48
 425 729 425 729 409.5 743 c 128,-1,49
 394 757 394 757 372 757 c 0,50,51
 326 757 326 757 303.5 709.5 c 128,-1,52
 281 662 281 662 281 623 c 0,53,54
 281 583 281 583 305.5 540.5 c 128,-1,55
 330 498 330 498 378 498 c 0,56,57
 422 498 422 498 440 543.5 c 128,-1,58
 458 589 458 589 458 623 c 0,45,46
EndSplineSet
EndChar

StartChar: uni0E09
Encoding: 221 3593 140
Width: 1393
VWidth: 3198
Flags: W
HStem: -9 86<1030.62 1147.43> 369 92<229.925 319.269> 693 85<233.936 368.079> 1135 100<470.057 848.305>
VStem: 45 166<475.07 665.652> 381 245<470.448 678.156> 825 189<83.8494 222.569> 956 323<419.9 1018.54> 1160 183<100.791 293.921>
LayerCount: 2
Fore
SplineSet
653 1235 m 0,0,1
 768 1235 768 1235 880 1222 c 128,-1,2
 992 1209 992 1209 1081.5 1164.5 c 128,-1,3
 1171 1120 1171 1120 1225 1035 c 128,-1,4
 1279 950 1279 950 1279 806 c 2,5,-1
 1279 515 l 2,6,7
 1279 473 1279 473 1250 438 c 128,-1,8
 1221 403 1221 403 1193 375 c 2,9,-1
 1187 369 l 1,10,11
 1254 348 1254 348 1298.5 303.5 c 128,-1,12
 1343 259 1343 259 1343 186 c 0,13,14
 1343 122 1343 122 1322.5 83.5 c 128,-1,15
 1302 45 1302 45 1268.5 24 c 128,-1,16
 1235 3 1235 3 1188.5 -3 c 128,-1,17
 1142 -9 1142 -9 1087 -9 c 0,18,19
 1046 -9 1046 -9 999.5 -3 c 128,-1,20
 953 3 953 3 914.5 22.5 c 128,-1,21
 876 42 876 42 850.5 75.5 c 128,-1,22
 825 109 825 109 825 162 c 0,23,24
 825 180 825 180 832 194 c 128,-1,25
 839 208 839 208 845 223 c 1,26,27
 757 183 757 183 702 128 c 128,-1,28
 647 73 647 73 589 0 c 1,29,-1
 320 0 l 1,30,-1
 320 375 l 1,31,32
 305 372 305 372 293 370.5 c 128,-1,33
 281 369 281 369 265 369 c 0,34,35
 176 369 176 369 110.5 411.5 c 128,-1,36
 45 454 45 454 45 553 c 0,37,38
 45 678 45 678 128 728 c 128,-1,39
 211 778 211 778 323 778 c 0,40,41
 415 778 415 778 474.5 758.5 c 128,-1,42
 534 739 534 739 567.5 697.5 c 128,-1,43
 601 656 601 656 613.5 593.5 c 128,-1,44
 626 531 626 531 626 448 c 2,45,-1
 626 247 l 1,46,47
 697 287 697 287 757 320 c 0,48,49
 811 344 l 0,50,51
 864 369 864 369 892.5 390.5 c 128,-1,52
 921 412 921 412 938.5 442.5 c 128,-1,53
 956 473 956 473 956 518 c 2,54,-1
 956 812 l 2,55,56
 956 965 956 965 892 1050 c 128,-1,57
 828 1135 828 1135 665 1135 c 0,58,59
 583 1135 583 1135 501 1103 c 128,-1,60
 419 1071 419 1071 345.5 1022 c 128,-1,61
 272 973 272 973 208 910.5 c 128,-1,62
 144 848 144 848 95 784 c 1,63,-1
 25 784 l 1,64,-1
 25 1040 l 1,65,66
 112 1087 112 1087 182.5 1123.5 c 128,-1,67
 253 1160 253 1160 323.5 1184.5 c 128,-1,68
 394 1209 394 1209 472 1222 c 128,-1,69
 550 1235 550 1235 653 1235 c 0,0,1
1160 201 m 0,70,71
 1160 230 1160 230 1138.5 267.5 c 128,-1,72
 1117 305 1117 305 1081 305 c 0,73,74
 1043 305 1043 305 1028.5 261 c 128,-1,75
 1014 217 1014 217 1014 186 c 0,76,77
 1014 156 1014 156 1031.5 116.5 c 128,-1,78
 1049 77 1049 77 1084 77 c 0,79,80
 1135 77 1135 77 1147.5 118 c 128,-1,81
 1160 159 1160 159 1160 201 c 0,70,71
381 583 m 256,82,83
 381 617 381 617 368 655 c 128,-1,84
 355 693 355 693 311 693 c 0,85,86
 256 693 256 693 233.5 655 c 128,-1,87
 211 617 211 617 211 570 c 0,88,89
 211 534 211 534 235 497.5 c 128,-1,90
 259 461 259 461 301 461 c 0,91,92
 345 461 345 461 363 504 c 128,-1,93
 381 547 381 547 381 583 c 256,82,83
EndSplineSet
EndChar

StartChar: uni0E0A
Encoding: 222 3594 141
Width: 1346
VWidth: 3198
Flags: W
HStem: 0 128<170 305 617 925> 668 77<215.262 336.192> 946 103<223.346 333.853> 1145 86<286.979 553.71>
VStem: 25 170<755.501 927.214> 305 312<128 485.787> 355 151<767.879 929.208> 925 323<128.439 798.25>
LayerCount: 2
Fore
SplineSet
1376 1276 m 1,0,1
 1302 1168 1302 1168 1215.5 1078.5 c 128,-1,2
 1129 989 1129 989 1004 940 c 1,3,4
 1046 925 1046 925 1089 899 c 128,-1,5
 1132 873 1132 873 1167.5 839.5 c 128,-1,6
 1203 806 1203 806 1225.5 763 c 128,-1,7
 1248 720 1248 720 1248 672 c 2,8,-1
 1248 173 l 2,9,10
 1248 131 1248 131 1219 97.5 c 128,-1,11
 1190 64 1190 64 1150 43 c 128,-1,12
 1110 22 1110 22 1063.5 11 c 128,-1,13
 1017 0 1017 0 982 0 c 2,14,-1
 170 0 l 1,15,-1
 170 128 l 1,16,-1
 305 128 l 1,17,-1
 305 394 l 2,18,19
 305 431 305 431 355.5 493.5 c 128,-1,20
 406 556 406 556 465.5 631.5 c 128,-1,21
 525 707 525 707 575.5 788.5 c 128,-1,22
 626 870 626 870 626 950 c 0,23,24
 626 1034 626 1034 569 1089.5 c 128,-1,25
 512 1145 512 1145 428 1145 c 0,26,27
 364 1145 364 1145 308.5 1116 c 128,-1,28
 253 1087 253 1087 223 1023 c 1,29,30
 234 1029 234 1029 256 1039 c 128,-1,31
 278 1049 278 1049 290 1049 c 2,32,-1
 311 1049 l 2,33,34
 384 1049 384 1049 445 1007 c 128,-1,35
 506 965 506 965 506 864 c 0,36,37
 506 757 506 757 442 712.5 c 128,-1,38
 378 668 378 668 278 668 c 0,39,40
 159 668 159 668 92 729 c 128,-1,41
 25 790 25 790 25 912 c 0,42,43
 25 995 25 995 58.5 1056 c 128,-1,44
 92 1117 92 1117 146.5 1155 c 128,-1,45
 201 1193 201 1193 271.5 1212 c 128,-1,46
 342 1231 342 1231 415 1231 c 0,47,48
 476 1231 476 1231 546.5 1220 c 128,-1,49
 617 1209 617 1209 679.5 1181.5 c 128,-1,50
 742 1154 742 1154 790.5 1108 c 128,-1,51
 839 1062 839 1062 851 992 c 1,52,53
 915 1026 915 1026 950 1073 c 128,-1,54
 985 1120 985 1120 1029 1187 c 2,55,-1
 1078 1276 l 1,56,-1
 1376 1276 l 1,0,1
925 672 m 1,57,58
 925 736 925 736 914 786 c 128,-1,59
 903 836 903 836 842 870 c 1,60,61
 818 809 818 809 780 751 c 128,-1,62
 742 693 742 693 707 636 c 128,-1,63
 672 579 672 579 644.5 518.5 c 128,-1,64
 617 458 617 458 617 390 c 2,65,-1
 617 128 l 1,66,-1
 925 128 l 1,67,-1
 925 672 l 1,57,58
355 851 m 0,68,69
 355 895 355 895 334.5 920.5 c 128,-1,70
 314 946 314 946 269 946 c 0,71,72
 230 946 230 946 212.5 915.5 c 128,-1,73
 195 885 195 885 195 851 c 0,74,75
 195 818 195 818 216 781.5 c 128,-1,76
 237 745 237 745 272 745 c 0,77,78
 317 745 317 745 336 780 c 128,-1,79
 355 815 355 815 355 851 c 0,68,69
EndSplineSet
EndChar

StartChar: uni0E0B
Encoding: 223 3595 142
Width: 1425
VWidth: 3198
Flags: W
HStem: 0 128<211 369 684 995> 653 67<265.494 380.331> 921 74<267.533 386.35> 1207 20G<212.5 304 653 732.5>
VStem: 28 186<946 1122.4> 369 315<128 518.15> 400 125<726.887 905.444> 704 205<989.512 1109> 995 323<128.789 807.807>
LayerCount: 2
Fore
SplineSet
1449 1279 m 1,0,1
 1376 1160 1376 1160 1287.5 1088.5 c 128,-1,2
 1199 1017 1199 1017 1078 953 c 1,3,4
 1120 934 1120 934 1163 908 c 128,-1,5
 1206 882 1206 882 1239.5 848.5 c 128,-1,6
 1273 815 1273 815 1295.5 772 c 128,-1,7
 1318 729 1318 729 1318 678 c 2,8,-1
 1318 162 l 2,9,10
 1318 134 1318 134 1289 103.5 c 128,-1,11
 1260 73 1260 73 1222 50.5 c 128,-1,12
 1184 28 1184 28 1144 14 c 128,-1,13
 1104 0 1104 0 1078 0 c 2,14,-1
 211 0 l 1,15,-1
 211 128 l 1,16,-1
 369 128 l 1,17,-1
 369 400 l 2,18,19
 369 451 369 451 421 531 c 128,-1,20
 473 611 473 611 535.5 700.5 c 128,-1,21
 598 790 598 790 651 880 c 128,-1,22
 704 970 704 970 704 1040 c 0,23,24
 704 1078 704 1078 672 1110 c 1,25,26
 637 1081 637 1081 584 1049 c 128,-1,27
 531 1017 531 1017 483 1017 c 0,28,29
 422 1017 422 1017 363.5 1052 c 128,-1,30
 305 1087 305 1087 259 1123 c 1,31,32
 226 1104 226 1104 220 1065 c 128,-1,33
 214 1026 214 1026 214 992 c 2,34,-1
 214 946 l 1,35,36
 278 995 278 995 355 995 c 0,37,38
 436 995 436 995 480.5 952 c 128,-1,39
 525 909 525 909 525 828 c 0,40,41
 525 736 525 736 457.5 694.5 c 128,-1,42
 390 653 390 653 308 653 c 0,43,44
 183 653 183 653 105.5 740.5 c 128,-1,45
 28 828 28 828 28 950 c 0,46,47
 28 1065 28 1065 89 1146 c 128,-1,48
 150 1227 150 1227 275 1227 c 0,49,50
 333 1227 333 1227 372.5 1205.5 c 128,-1,51
 412 1184 412 1184 458 1151 c 2,52,-1
 476 1138 l 1,53,54
 506 1157 506 1157 524.5 1175 c 128,-1,55
 543 1193 543 1193 564.5 1207 c 128,-1,56
 586 1221 586 1221 610 1229.5 c 128,-1,57
 634 1238 634 1238 672 1238 c 0,58,59
 793 1238 793 1238 851 1174 c 128,-1,60
 909 1110 909 1110 909 989 c 1,61,62
 982 1023 982 1023 1033 1098.5 c 128,-1,63
 1084 1174 1084 1174 1126 1248 c 2,64,-1
 1142 1279 l 1,65,-1
 1449 1279 l 1,0,1
995 701 m 1,66,67
 995 757 995 757 970.5 813.5 c 128,-1,68
 946 870 946 870 892 898 c 1,69,70
 867 848 867 848 830 788.5 c 128,-1,71
 793 729 793 729 761 666.5 c 128,-1,72
 729 604 729 604 706.5 541.5 c 128,-1,73
 684 479 684 479 684 419 c 2,74,-1
 684 128 l 1,75,-1
 995 128 l 1,76,-1
 995 701 l 1,66,67
400 836 m 256,77,78
 400 870 400 870 384.5 895.5 c 128,-1,79
 369 921 369 921 330 921 c 0,80,81
 294 921 294 921 270.5 894 c 128,-1,82
 247 867 247 867 247 831 c 256,83,84
 247 796 247 796 262.5 758 c 128,-1,85
 278 720 278 720 323 720 c 256,86,87
 369 720 369 720 384.5 760 c 128,-1,88
 400 800 400 800 400 836 c 256,77,78
EndSplineSet
EndChar

StartChar: uni0E0C
Encoding: 224 3596 143
Width: 1972
VWidth: 3198
Flags: W
HStem: -12 82<426.461 562.32> 320 95<448.468 562.442> 867 98<220 256 476.372 583> 1138 100<425.433 859.576> 1201 20G<1660.82 1852>
VStem: 134 314<400 789.152> 134 269<112.955 312.614> 586 134<101.121 294.205> 761 145<112.07 301.462> 976 316<80.033 269 443.826 1028.73> 1529 323<256 1104>
LayerCount: 2
Fore
SplineSet
1852 112 m 1,0,1
 1852 92 1852 92 1843 73 c 0,2,3
 1826 45 1826 45 1805.5 22.5 c 128,-1,4
 1785 0 1785 0 1749 0 c 2,5,-1
 1577 0 l 1,6,7
 1516 77 1516 77 1444.5 144 c 128,-1,8
 1373 211 1373 211 1292 269 c 1,9,-1
 1292 156 l 2,10,11
 1292 109 1292 109 1268.5 77 c 128,-1,12
 1245 45 1245 45 1206.5 24 c 128,-1,13
 1168 3 1168 3 1124.5 -4.5 c 128,-1,14
 1081 -12 1081 -12 1043 -12 c 0,15,16
 931 -12 931 -12 846 50 c 128,-1,17
 761 112 761 112 761 234 c 0,18,19
 761 320 761 320 826.5 382.5 c 128,-1,20
 892 445 892 445 976 451 c 1,21,-1
 976 854 l 2,22,23
 976 1007 976 1007 891 1072.5 c 128,-1,24
 806 1138 806 1138 662 1138 c 0,25,26
 540 1138 540 1138 424 1093.5 c 128,-1,27
 308 1049 308 1049 220 965 c 1,28,-1
 583 965 l 1,29,-1
 583 879 l 1,30,31
 503 873 503 873 475.5 831.5 c 128,-1,32
 448 790 448 790 448 717 c 2,33,-1
 448 400 l 1,34,35
 464 412 464 412 483.5 413.5 c 128,-1,36
 503 415 503 415 525 415 c 0,37,38
 614 415 614 415 667 356 c 128,-1,39
 720 297 720 297 720 211 c 0,40,41
 720 156 720 156 697.5 114.5 c 128,-1,42
 675 73 675 73 636.5 44.5 c 128,-1,43
 598 16 598 16 550.5 2 c 128,-1,44
 503 -12 503 -12 454 -12 c 0,45,46
 397 -12 397 -12 339 5 c 128,-1,47
 281 22 281 22 235 55.5 c 128,-1,48
 189 89 189 89 161.5 140.5 c 128,-1,49
 134 192 134 192 134 256 c 2,50,-1
 134 672 l 2,51,52
 134 732 134 732 172.5 781.5 c 128,-1,53
 211 831 211 831 256 867 c 1,54,-1
 31 867 l 1,55,-1
 31 1001 l 1,56,57
 176 1123 176 1123 342.5 1180.5 c 128,-1,58
 509 1238 509 1238 693 1238 c 0,59,60
 768 1238 768 1238 872 1223.5 c 128,-1,61
 976 1209 976 1209 1068 1172 c 128,-1,62
 1160 1135 1160 1135 1226 1071 c 128,-1,63
 1292 1007 1292 1007 1292 912 c 2,64,-1
 1292 436 l 1,65,-1
 1529 256 l 1,66,-1
 1529 1104 l 1,67,-1
 1688 1221 l 1,68,-1
 1852 1221 l 1,69,-1
 1852 112 l 1,0,1
979 339 m 1,70,71
 934 311 934 311 920 285 c 128,-1,72
 906 259 906 259 906 205 c 0,73,74
 906 170 906 170 929.5 138 c 128,-1,75
 953 106 953 106 979 80 c 1,76,-1
 979 339 l 1,70,71
586 208 m 256,77,78
 586 256 586 256 558.5 288 c 128,-1,79
 531 320 531 320 479 320 c 0,80,81
 436 320 436 320 419.5 278.5 c 128,-1,82
 403 237 403 237 403 201 c 256,83,84
 403 166 403 166 422.5 118 c 128,-1,85
 442 70 442 70 486 70 c 0,86,87
 543 70 543 70 564.5 114.5 c 128,-1,88
 586 159 586 159 586 208 c 256,77,78
EndSplineSet
EndChar

StartChar: uni0E0D
Encoding: 225 3597 144
Width: 1956
VWidth: 3198
Flags: W
HStem: -503 100<1075.09 1238 1352 1457.72> -159 67<1086.13 1223.37> -9 82<413.285 550.071> 0 128<1215 1501> 323 116<419.671 548.535> 854 108<195 259 470.951 583> 1117 121<384.336 792.003> 1201 20G<1631.35 1826>
VStem: 103 316<409 747.5> 103 287<107.528 315.703> 573 144<103.571 298.158> 892 323<128 988.965> 892 164<-379.352 -188.47> 1248 150<-372.687 -171.367> 1501 325<128 1110> 1541 269<-323.027 -131>
LayerCount: 2
Fore
SplineSet
1826 119 m 1,0,1
 1826 70 1826 70 1779.5 35 c 128,-1,2
 1733 0 1733 0 1688 0 c 2,3,-1
 892 0 l 1,4,-1
 892 793 l 2,5,6
 892 864 892 864 881 923 c 128,-1,7
 870 982 870 982 839.5 1025 c 128,-1,8
 809 1068 809 1068 758 1092.5 c 128,-1,9
 707 1117 707 1117 626 1117 c 0,10,11
 518 1117 518 1117 396.5 1077 c 128,-1,12
 275 1037 275 1037 195 962 c 1,13,-1
 583 962 l 1,14,-1
 583 867 l 1,15,16
 506 845 506 845 462.5 801 c 128,-1,17
 419 757 419 757 419 675 c 2,18,-1
 419 409 l 1,19,20
 442 422 442 422 467 430.5 c 128,-1,21
 492 439 492 439 518 439 c 0,22,23
 614 439 614 439 665.5 378 c 128,-1,24
 717 317 717 317 717 223 c 0,25,26
 717 156 717 156 694.5 110 c 128,-1,27
 672 64 672 64 633.5 38 c 128,-1,28
 595 12 595 12 542 1.5 c 128,-1,29
 489 -9 489 -9 428 -9 c 0,30,31
 378 -9 378 -9 320 5 c 128,-1,32
 262 19 262 19 214 49.5 c 128,-1,33
 166 80 166 80 134.5 125 c 128,-1,34
 103 170 103 170 103 230 c 2,35,-1
 103 614 l 2,36,37
 103 687 103 687 150.5 752.5 c 128,-1,38
 198 818 198 818 259 854 c 1,39,-1
 45 854 l 1,40,-1
 45 1017 l 1,41,42
 189 1104 189 1104 329.5 1171 c 128,-1,43
 470 1238 470 1238 647 1238 c 0,44,45
 754 1238 754 1238 856.5 1214 c 128,-1,46
 959 1190 959 1190 1039.5 1135.5 c 128,-1,47
 1120 1081 1120 1081 1167.5 995 c 128,-1,48
 1215 909 1215 909 1215 784 c 2,49,-1
 1215 128 l 1,50,-1
 1501 128 l 1,51,-1
 1501 1110 l 1,52,-1
 1660 1221 l 1,53,-1
 1826 1221 l 1,54,-1
 1826 119 l 1,0,1
1810 -189 m 1,55,56
 1810 -284 1810 -284 1747.5 -345 c 128,-1,57
 1685 -406 1685 -406 1596 -441 c 128,-1,58
 1507 -476 1507 -476 1409.5 -489.5 c 128,-1,59
 1312 -503 1312 -503 1238 -503 c 0,60,61
 1190 -503 1190 -503 1129 -494.5 c 128,-1,62
 1068 -486 1068 -486 1015 -462.5 c 128,-1,63
 962 -439 962 -439 927 -398.5 c 128,-1,64
 892 -358 892 -358 892 -294 c 0,65,66
 892 -244 892 -244 914.5 -205 c 128,-1,67
 937 -166 937 -166 973.5 -141 c 128,-1,68
 1010 -116 1010 -116 1055.5 -104 c 128,-1,69
 1101 -92 1101 -92 1145 -92 c 0,70,71
 1187 -92 1187 -92 1231.5 -99 c 128,-1,72
 1276 -106 1276 -106 1312.5 -123.5 c 128,-1,73
 1349 -141 1349 -141 1373.5 -174.5 c 128,-1,74
 1398 -208 1398 -208 1398 -259 c 0,75,76
 1398 -294 1398 -294 1388.5 -333 c 128,-1,77
 1379 -372 1379 -372 1352 -397 c 1,78,79
 1416 -390 1416 -390 1468 -351 c 0,80,81
 1523 -308 1523 -308 1529 -251.5 c 128,-1,82
 1535 -195 1535 -195 1541 -131 c 1,83,-1
 1810 -131 l 1,84,-1
 1810 -189 l 1,55,56
1248 -275 m 0,85,86
 1248 -237 1248 -237 1227 -198 c 128,-1,87
 1206 -159 1206 -159 1160 -159 c 0,88,89
 1107 -159 1107 -159 1081.5 -198 c 128,-1,90
 1056 -237 1056 -237 1056 -287 c 0,91,92
 1056 -330 1056 -330 1074.5 -366.5 c 128,-1,93
 1093 -403 1093 -403 1142 -403 c 0,94,95
 1196 -403 1196 -403 1222 -363 c 128,-1,96
 1248 -323 1248 -323 1248 -275 c 0,85,86
573 211 m 256,97,98
 573 259 573 259 545.5 291 c 128,-1,99
 518 323 518 323 467 323 c 0,100,101
 422 323 422 323 406 282 c 128,-1,102
 390 241 390 241 390 205 c 256,103,104
 390 170 390 170 409 121.5 c 128,-1,105
 428 73 428 73 473 73 c 0,106,107
 531 73 531 73 552 117.5 c 128,-1,108
 573 162 573 162 573 211 c 256,97,98
EndSplineSet
Substitution2: "Single Substitution lookup 22 subtable" uni0E0D.descless
Substitution2: "Single Substitution lookup 22 subtable" uni0E0D.descless
EndChar

StartChar: uni0E0E
Encoding: 226 3598 145
Width: 1553
VWidth: 3198
Flags: W
HStem: -531 86<478.354 650.991> -250 100<454.291 667.218> -20 20G<762.286 973> -9 79<201.855 316.232> 314 98<199.75 280.7> 864 109<336 419 638.316 742> 1126 101<543.36 979.478>
VStem: 19 164<94.0896 288.897> 272 173<-420.465 -259.111> 330 278<113.182 310.24> 1117 323<-342 978.43>
LayerCount: 2
Fore
SplineSet
159 998 m 1,0,1
 226 1062 226 1062 323 1113 c 0,2,3
 406 1157 406 1157 524.5 1192 c 128,-1,4
 643 1227 643 1227 803 1227 c 0,5,6
 925 1227 925 1227 1039.5 1210 c 128,-1,7
 1154 1193 1154 1193 1242.5 1143 c 128,-1,8
 1331 1093 1331 1093 1385.5 1005.5 c 128,-1,9
 1440 918 1440 918 1440 778 c 2,10,-1
 1440 -522 l 2,11,12
 1440 -528 1440 -528 1422 -529.5 c 128,-1,13
 1404 -531 1404 -531 1398 -531 c 2,14,-1
 1157 -531 l 1,15,16
 1090 -495 1090 -495 1024.5 -453.5 c 128,-1,17
 959 -412 959 -412 895 -372 c 1,18,19
 882 -412 882 -412 848.5 -442.5 c 128,-1,20
 815 -473 815 -473 772 -492.5 c 128,-1,21
 729 -512 729 -512 683 -521.5 c 128,-1,22
 637 -531 637 -531 598 -531 c 256,23,24
 559 -531 559 -531 503.5 -524.5 c 128,-1,25
 448 -518 448 -518 396.5 -500.5 c 128,-1,26
 345 -483 345 -483 308.5 -449 c 128,-1,27
 272 -415 272 -415 272 -361 c 0,28,29
 272 -301 272 -301 297.5 -260.5 c 128,-1,30
 323 -220 323 -220 364.5 -196.5 c 128,-1,31
 406 -173 406 -173 457.5 -161.5 c 128,-1,32
 509 -150 509 -150 559 -150 c 0,33,34
 589 -150 589 -150 616 -156 c 128,-1,35
 643 -162 643 -162 668 -170 c 1,36,-1
 668 -70 l 1,37,-1
 800 0 l 1,38,-1
 973 0 l 1,39,40
 965 -61 965 -61 960.5 -122 c 128,-1,41
 956 -183 956 -183 943 -244 c 1,42,-1
 1117 -342 l 1,43,-1
 1117 771 l 2,44,45
 1117 842 1117 842 1100.5 906 c 128,-1,46
 1084 970 1084 970 1047 1019 c 128,-1,47
 1010 1068 1010 1068 954 1097 c 128,-1,48
 898 1126 898 1126 818 1126 c 0,49,50
 697 1126 697 1126 564 1087.5 c 128,-1,51
 431 1049 431 1049 336 973 c 1,52,-1
 742 973 l 1,53,-1
 742 876 l 1,54,55
 650 860 650 860 629 799.5 c 128,-1,56
 608 739 608 739 608 656 c 2,57,-1
 608 320 l 2,58,59
 608 141 608 141 534.5 66 c 128,-1,60
 461 -9 461 -9 281 -9 c 0,61,62
 230 -9 230 -9 182 0 c 128,-1,63
 134 9 134 9 99 33.5 c 128,-1,64
 64 58 64 58 41.5 96 c 128,-1,65
 19 134 19 134 19 195 c 0,66,67
 19 290 19 290 78 351 c 128,-1,68
 137 412 137 412 234 412 c 0,69,70
 250 412 250 412 281 406 c 1,71,-1
 281 650 l 2,72,73
 281 720 281 720 322.5 772.5 c 128,-1,74
 364 825 364 825 419 864 c 1,75,-1
 159 864 l 1,76,-1
 159 998 l 1,0,1
330 211 m 1,77,78
 330 237 330 237 313.5 275.5 c 128,-1,79
 297 314 297 314 269 314 c 0,80,81
 217 314 217 314 200 274 c 128,-1,82
 183 234 183 234 183 189 c 256,83,84
 183 144 183 144 201.5 107 c 128,-1,85
 220 70 220 70 272 70 c 0,86,87
 308 70 308 70 319 110 c 128,-1,88
 330 150 330 150 330 176 c 2,89,-1
 330 211 l 1,77,78
672 -308 m 0,90,91
 672 -294 672 -294 654.5 -283 c 128,-1,92
 637 -272 637 -272 614.5 -265.5 c 128,-1,93
 592 -259 592 -259 569.5 -254.5 c 128,-1,94
 547 -250 547 -250 537 -250 c 0,95,96
 445 -250 445 -250 445 -342 c 0,97,98
 445 -397 445 -397 489.5 -421 c 128,-1,99
 534 -445 534 -445 579 -445 c 0,100,101
 634 -445 634 -445 653 -398 c 128,-1,102
 672 -351 672 -351 672 -308 c 0,90,91
EndSplineSet
Substitution2: "Single Substitution lookup 22 subtable" uni0E0E.alt1
Substitution2: "Single Substitution lookup 22 subtable" uni0E0E.alt1
EndChar

StartChar: uni0E0F
Encoding: 227 3599 146
Width: 1557
VWidth: 3198
Flags: W
HStem: -547 89<295.698 485.631> -262 103<277.952 531.047> -9 79<206.096 321.616> 314 101<203.54 277.323> 860 116<336 406> 879 97<632.438 739> 1120 122<502.501 986.136>
VStem: 19 167<95.7661 288.124> 109 156<-432.25 -280.245> 278 326<412 781.395> 333 271<102.537 310.607> 576 275<-206.121 -29.7412> 1117 323<-294 993.409>
LayerCount: 2
Fore
SplineSet
1135 -525 m 1,0,-1
 989 -394 l 1,1,-1
 906 -525 l 1,2,-1
 790 -525 l 1,3,-1
 748 -522 l 1,4,5
 732 -486 732 -486 729 -464 c 128,-1,6
 726 -442 726 -442 693 -409 c 1,7,8
 634 -467 634 -467 558.5 -507 c 128,-1,9
 483 -547 483 -547 397 -547 c 0,10,11
 355 -547 355 -547 304 -536 c 128,-1,12
 253 -525 253 -525 209.5 -500.5 c 128,-1,13
 166 -476 166 -476 137.5 -439.5 c 128,-1,14
 109 -403 109 -403 109 -348 c 0,15,16
 109 -297 109 -297 132.5 -261.5 c 128,-1,17
 156 -226 156 -226 193 -204.5 c 128,-1,18
 230 -183 230 -183 276.5 -171 c 128,-1,19
 323 -159 323 -159 364 -159 c 0,20,21
 422 -159 422 -159 472 -171 c 128,-1,22
 522 -183 522 -183 576 -208 c 1,23,-1
 576 -52 l 1,24,25
 640 -16 640 -16 694 -8 c 128,-1,26
 748 0 748 0 828 6 c 2,27,-1
 851 6 l 1,28,29
 845 -77 845 -77 827 -157 c 128,-1,30
 809 -237 809 -237 761 -308 c 1,31,-1
 812 -339 l 1,32,33
 848 -305 848 -305 875.5 -264 c 128,-1,34
 903 -223 903 -223 934 -186 c 1,35,-1
 995 -186 l 1,36,-1
 1117 -294 l 1,37,-1
 1117 818 l 2,38,39
 1117 965 1117 965 1031.5 1042.5 c 128,-1,40
 946 1120 946 1120 803 1120 c 0,41,42
 745 1120 745 1120 679.5 1113.5 c 128,-1,43
 614 1107 614 1107 551.5 1090.5 c 128,-1,44
 489 1074 489 1074 433.5 1047 c 128,-1,45
 378 1020 378 1020 336 976 c 1,46,-1
 739 976 l 1,47,-1
 739 879 l 1,48,49
 704 873 704 873 672 863.5 c 128,-1,50
 640 854 640 854 623 818 c 0,51,52
 611 793 611 793 607.5 756.5 c 128,-1,53
 604 720 604 720 604 690 c 2,54,-1
 604 253 l 2,55,56
 604 116 604 116 508 53.5 c 128,-1,57
 412 -9 412 -9 287 -9 c 0,58,59
 237 -9 237 -9 189 3.5 c 128,-1,60
 141 16 141 16 102.5 43 c 128,-1,61
 64 70 64 70 41.5 110 c 128,-1,62
 19 150 19 150 19 208 c 0,63,64
 19 301 19 301 73.5 358 c 128,-1,65
 128 415 128 415 220 415 c 0,66,67
 237 415 237 415 249.5 415 c 128,-1,68
 262 415 262 415 278 412 c 1,69,-1
 278 668 l 2,70,71
 278 732 278 732 319.5 778.5 c 128,-1,72
 361 825 361 825 406 860 c 1,73,-1
 150 860 l 1,74,-1
 150 995 l 1,75,76
 186 1020 186 1020 218 1047 c 128,-1,77
 250 1074 250 1074 284 1101 c 0,78,79
 397 1184 397 1184 532.5 1213 c 128,-1,80
 668 1242 668 1242 806 1242 c 0,81,82
 873 1242 873 1242 958 1230 c 128,-1,83
 1043 1218 1043 1218 1124.5 1193 c 128,-1,84
 1206 1168 1206 1168 1276 1127.5 c 128,-1,85
 1346 1087 1346 1087 1385 1026 c 256,86,87
 1423 965 1423 965 1431.5 887 c 128,-1,88
 1440 809 1440 809 1440 778 c 2,89,-1
 1440 -525 l 1,90,-1
 1135 -525 l 1,0,-1
333 211 m 1,91,92
 333 237 333 237 317 275.5 c 128,-1,93
 301 314 301 314 272 314 c 0,94,95
 220 314 220 314 203 274 c 128,-1,96
 186 234 186 234 186 189 c 0,97,98
 186 147 186 147 206 108.5 c 128,-1,99
 226 70 226 70 275 70 c 0,100,101
 311 70 311 70 322 110 c 128,-1,102
 333 150 333 150 333 176 c 2,103,-1
 333 211 l 1,91,92
381 -262 m 256,104,105
 342 -262 342 -262 303.5 -283.5 c 128,-1,106
 265 -305 265 -305 265 -348 c 0,107,108
 265 -403 265 -403 303.5 -430.5 c 128,-1,109
 342 -458 342 -458 394 -458 c 0,110,111
 451 -458 451 -458 489.5 -409.5 c 128,-1,112
 528 -361 528 -361 550 -317 c 1,113,-1
 534 -308 l 1,114,-1
 525 -305 l 2,115,116
 489 -287 489 -287 454 -274.5 c 128,-1,117
 419 -262 419 -262 381 -262 c 256,104,105
EndSplineSet
Substitution2: "Single Substitution lookup 22 subtable" uni0E0F.alt1
Substitution2: "Single Substitution lookup 22 subtable" uni0E0F.alt1
EndChar

StartChar: uni0E10
Encoding: 228 3600 147
Width: 1352
VWidth: 3198
Flags: W
HStem: -531 83<195.701 328 831 918> -369 68<884.35 933.106> -278 95<193.758 332.033> -150 70<880.519 989.248> 348 80<364.361 484.209> 668 86<358.086 485.49> 851 114<326 843.903> 1132 103<408.625 614.999>
VStem: 36 150<-439.789 -278.801> 183 156<444.35 645.296> 361 273<-218.937 -77> 748 125<-286.005 -151.135> 940 287<409.916 777.983> 995 156<-273.156 -152.418>
DStem2: 876 259 1184 415 0.220574 0.97537<5.23601 395.273>
LayerCount: 2
Fore
SplineSet
98 1020 m 0,0,1
 183 1142 183 1142 291.5 1188.5 c 128,-1,2
 400 1235 400 1235 543 1235 c 1,3,-1
 995 1145 l 1,4,5
 1074 1145 1074 1145 1158 1164.5 c 128,-1,6
 1242 1184 1242 1184 1306 1227 c 1,7,-1
 1306 976 l 1,8,9
 1257 962 1257 962 1196 962 c 0,10,11
 1090 962 1090 962 984.5 978.5 c 128,-1,12
 879 995 879 995 781 1040 c 0,13,14
 720 1065 720 1065 660.5 1098.5 c 128,-1,15
 601 1132 601 1132 534 1132 c 0,16,17
 454 1132 454 1132 402.5 1084.5 c 128,-1,18
 351 1037 351 1037 326 965 c 1,19,-1
 355 965 l 2,20,21
 439 965 439 965 564.5 962 c 128,-1,22
 690 959 690 959 816.5 943.5 c 128,-1,23
 943 928 943 928 1047 892.5 c 128,-1,24
 1151 857 1151 857 1193 790 c 0,25,26
 1218 751 1218 751 1222.5 719 c 128,-1,27
 1227 687 1227 687 1227 643 c 0,28,29
 1227 586 1227 586 1213 528 c 128,-1,30
 1199 470 1199 470 1184 415 c 0,31,32
 1126 217 1126 217 1096 3 c 1,33,-1
 768 3 l 1,34,-1
 576 406 l 1,35,36
 540 381 540 381 502 364.5 c 128,-1,37
 464 348 464 348 419 348 c 0,38,39
 323 348 323 348 253 396.5 c 128,-1,40
 183 445 183 445 183 550 c 0,41,42
 183 608 183 608 206.5 647.5 c 128,-1,43
 230 687 230 687 269 711.5 c 128,-1,44
 308 736 308 736 355.5 745 c 128,-1,45
 403 754 403 754 454 754 c 256,46,47
 506 754 506 754 546 745 c 128,-1,48
 586 736 586 736 626 704 c 0,49,50
 659 681 659 681 694 621.5 c 128,-1,51
 729 562 729 562 762.5 495 c 128,-1,52
 796 428 796 428 826.5 362.5 c 128,-1,53
 857 297 857 297 876 259 c 1,54,55
 898 355 898 355 919 452.5 c 128,-1,56
 940 550 940 550 940 653 c 0,57,58
 940 697 940 697 929 729 c 128,-1,59
 918 761 918 761 882 790 c 0,60,61
 864 806 864 806 785.5 818.5 c 128,-1,62
 707 831 707 831 605 839.5 c 128,-1,63
 503 848 503 848 389 851 c 128,-1,64
 275 854 275 854 183 854 c 0,65,66
 131 854 131 854 91.5 854 c 128,-1,67
 52 854 52 854 25 851 c 1,68,69
 45 940 45 940 98 1020 c 0,0,1
470 -428 m 1,70,71
 454 -461 454 -461 419 -486 c 0,72,73
 390 -509 390 -509 347.5 -526 c 128,-1,74
 305 -543 305 -543 241 -543 c 0,75,76
 144 -543 144 -543 90 -495.5 c 128,-1,77
 36 -448 36 -448 36 -348 c 0,78,79
 36 -265 36 -265 85 -224 c 128,-1,80
 134 -183 134 -183 214 -183 c 0,81,82
 234 -183 234 -183 257.5 -189 c 128,-1,83
 281 -195 281 -195 308 -201 c 0,84,85
 336 -211 336 -211 361 -220 c 1,86,-1
 361 -77 l 1,87,-1
 634 -77 l 1,88,89
 634 -116 634 -116 620 -153 c 0,90,91
 611 -189 611 -189 593.5 -230.5 c 128,-1,92
 576 -272 576 -272 540 -317 c 1,93,-1
 586 -361 l 1,94,-1
 647 -272 l 1,95,-1
 684 -272 l 1,96,-1
 831 -448 l 1,97,-1
 918 -448 l 1,98,-1
 934 -369 l 1,99,100
 857 -369 857 -369 802.5 -344.5 c 128,-1,101
 748 -320 748 -320 748 -226 c 0,102,103
 748 -144 748 -144 796.5 -112 c 128,-1,104
 845 -80 845 -80 918 -80 c 0,105,106
 946 -80 946 -80 987.5 -86 c 128,-1,107
 1029 -92 1029 -92 1065 -107 c 128,-1,108
 1101 -122 1101 -122 1126 -149 c 128,-1,109
 1151 -176 1151 -176 1151 -214 c 2,110,-1
 1151 -301 l 2,111,112
 1151 -412 1151 -412 1108 -471.5 c 128,-1,113
 1065 -531 1065 -531 943 -531 c 2,114,-1
 757 -531 l 1,115,-1
 672 -425 l 1,116,-1
 601 -531 l 1,117,-1
 537 -531 l 1,118,-1
 470 -428 l 1,70,71
506 550 m 256,119,120
 506 586 506 586 485 627 c 128,-1,121
 464 668 464 668 425 668 c 0,122,123
 381 668 381 668 360 634.5 c 128,-1,124
 339 601 339 601 339 562 c 0,125,126
 339 543 339 543 343.5 520.5 c 128,-1,127
 348 498 348 498 358.5 478 c 128,-1,128
 369 458 369 458 384.5 443 c 128,-1,129
 400 428 400 428 422 428 c 0,130,131
 467 428 467 428 486.5 471.5 c 128,-1,132
 506 515 506 515 506 550 c 256,119,120
995 -217 m 0,133,134
 995 -150 995 -150 928 -150 c 0,135,136
 903 -150 903 -150 888 -171 c 128,-1,137
 873 -192 873 -192 873 -217 c 0,138,139
 873 -247 873 -247 884 -274 c 128,-1,140
 895 -301 895 -301 931 -301 c 256,141,142
 965 -301 965 -301 980 -274 c 128,-1,143
 995 -247 995 -247 995 -217 c 0,133,134
345 -355 m 0,144,145
 345 -323 345 -323 302 -300.5 c 128,-1,146
 259 -278 259 -278 234 -278 c 0,147,148
 211 -278 211 -278 198.5 -308.5 c 128,-1,149
 186 -339 186 -339 186 -358 c 0,150,151
 186 -394 186 -394 198.5 -426 c 128,-1,152
 211 -458 211 -458 256 -458 c 256,153,154
 301 -458 301 -458 323 -427.5 c 128,-1,155
 345 -397 345 -397 345 -355 c 0,144,145
EndSplineSet
Substitution2: "Single Substitution lookup 22 subtable" uni0E10.descless
Substitution2: "Single Substitution lookup 22 subtable" uni0E10.descless
EndChar

StartChar: uni0E11
Encoding: 229 3601 148
Width: 1725
VWidth: 3198
Flags: W
HStem: 0 21G<412 740.971 1288 1506.07> 640 64<256.455 370.494> 898 78<255.591 377.794> 1107 124<560.964 709.714 1191.67 1281.71>
VStem: 19 170<919.385 1124.52> 390 116<710.735 884.083> 412 289<265 597.987> 717 192<878.336 1104.73> 1288 324<116 1106.15>
DStem2: 701 265 732 0 0.394353 0.918959<0 987.953>
LayerCount: 2
Fore
SplineSet
1288 0 m 1,0,-1
 1288 1014 l 2,1,2
 1288 1037 1288 1037 1280.5 1072 c 128,-1,3
 1273 1107 1273 1107 1245 1107 c 0,4,5
 1218 1107 1218 1107 1199.5 1076.5 c 128,-1,6
 1181 1046 1181 1046 1171 1023 c 0,7,8
 1142 962 1142 962 1123 906 c 0,9,10
 1084 796 1084 796 1039.5 692.5 c 128,-1,11
 995 589 995 589 950 486 c 2,12,-1
 732 0 l 1,13,-1
 412 0 l 1,14,-1
 412 470 l 2,15,16
 412 540 412 540 460.5 604 c 128,-1,17
 509 668 509 668 564.5 734 c 128,-1,18
 620 800 620 800 668.5 871.5 c 128,-1,19
 717 943 717 943 717 1023 c 0,20,21
 717 1049 717 1049 703.5 1078 c 128,-1,22
 690 1107 690 1107 659 1107 c 0,23,24
 640 1107 640 1107 616 1094 c 128,-1,25
 592 1081 592 1081 563 1063.5 c 128,-1,26
 534 1046 534 1046 500.5 1033 c 128,-1,27
 467 1020 467 1020 428 1020 c 0,28,29
 364 1020 364 1020 310 1052 c 128,-1,30
 256 1084 256 1084 211 1126 c 1,31,32
 198 1101 198 1101 193.5 1070.5 c 128,-1,33
 189 1040 189 1040 189 1010 c 0,34,35
 189 985 189 985 192 962.5 c 128,-1,36
 195 940 195 940 208 918 c 1,37,38
 223 946 223 946 258.5 961 c 128,-1,39
 294 976 294 976 330 976 c 0,40,41
 400 976 400 976 453 939.5 c 128,-1,42
 506 903 506 903 506 825 c 0,43,44
 506 739 506 739 456 689.5 c 128,-1,45
 406 640 406 640 320 640 c 0,46,47
 244 640 244 640 187.5 668.5 c 128,-1,48
 131 697 131 697 94.5 746.5 c 128,-1,49
 58 796 58 796 38.5 860.5 c 128,-1,50
 19 925 19 925 19 995 c 0,51,52
 19 1107 19 1107 75 1171 c 128,-1,53
 131 1235 131 1235 247 1235 c 0,54,55
 305 1235 305 1235 347.5 1193 c 128,-1,56
 390 1151 390 1151 425 1117 c 1,57,-1
 431 1123 l 2,58,59
 473 1163 473 1163 523 1200.5 c 128,-1,60
 573 1238 573 1238 637 1238 c 0,61,62
 748 1238 748 1238 828.5 1180.5 c 128,-1,63
 909 1123 909 1123 909 1001 c 0,64,65
 909 946 909 946 877 880.5 c 128,-1,66
 845 815 845 815 804.5 740 c 128,-1,67
 764 665 764 665 732.5 577 c 128,-1,68
 701 489 701 489 701 394 c 2,69,-1
 701 265 l 1,70,71
 736 348 736 348 774 430 c 128,-1,72
 812 512 812 512 848 595 c 0,73,74
 882 672 882 672 912.5 748.5 c 128,-1,75
 943 825 943 825 976 903 c 0,76,77
 1001 959 1001 959 1020.5 1016.5 c 128,-1,78
 1040 1074 1040 1074 1074 1129 c 0,79,80
 1104 1174 1104 1174 1141 1202.5 c 128,-1,81
 1178 1231 1178 1231 1231 1231 c 0,82,83
 1288 1231 1288 1231 1355.5 1224.5 c 128,-1,84
 1423 1218 1423 1218 1480.5 1196 c 128,-1,85
 1538 1174 1538 1174 1575 1129 c 128,-1,86
 1612 1084 1612 1084 1612 1007 c 2,87,-1
 1612 116 l 1,88,-1
 1484 0 l 1,89,-1
 1288 0 l 1,0,-1
390 815 m 256,90,91
 390 851 390 851 374 874.5 c 128,-1,92
 358 898 358 898 320 898 c 0,93,94
 284 898 284 898 260.5 873 c 128,-1,95
 237 848 237 848 237 812 c 256,96,97
 237 778 237 778 253 741 c 128,-1,98
 269 704 269 704 314 704 c 256,99,100
 358 704 358 704 374 742.5 c 128,-1,101
 390 781 390 781 390 815 c 256,90,91
EndSplineSet
EndChar

StartChar: uni0E12
Encoding: 230 3602 149
Width: 1905
VWidth: 3198
Flags: W
HStem: -9 86<904.782 1018.11> 815 80<478.845 611.262> 1132 99<267.07 453.051>
VStem: 28 152<709.569 1028.85> 159 280<0 232.127> 159 228<369 525.332> 330 128<600.886 802.106> 629 132<597.351 794.794> 742 140<94.6571 314.651> 982 313<439.743 1026.64> 1026 247<78.339 213.658> 1462 326<259 1107>
DStem2: 506 509 599.5 384.5 0.581757 0.813363<-180.054 0 87.3044 237.376>
LayerCount: 2
Fore
SplineSet
1788 109 m 1,0,1
 1788 70 1788 70 1757.5 43 c 128,-1,2
 1727 16 1727 16 1694 0 c 1,3,-1
 1532 0 l 1,4,-1
 1273 214 l 1,5,6
 1273 86 1273 86 1193 38.5 c 128,-1,7
 1113 -9 1113 -9 992 -9 c 0,8,9
 889 -9 889 -9 815.5 47 c 128,-1,10
 742 103 742 103 742 214 c 0,11,12
 742 317 742 317 812 378 c 128,-1,13
 882 439 882 439 982 445 c 1,14,-1
 982 906 l 2,15,16
 982 934 982 934 979 964.5 c 128,-1,17
 976 995 976 995 966 1022 c 128,-1,18
 956 1049 956 1049 937 1069.5 c 128,-1,19
 918 1090 918 1090 882 1096 c 1,20,21
 828 1062 828 1062 775.5 1016 c 128,-1,22
 723 970 723 970 653 970 c 0,23,24
 611 970 611 970 571 995 c 128,-1,25
 531 1020 531 1020 496 1050.5 c 128,-1,26
 461 1081 461 1081 430.5 1106.5 c 128,-1,27
 400 1132 400 1132 375 1132 c 0,28,29
 323 1132 323 1132 286.5 1105 c 128,-1,30
 250 1078 250 1078 225.5 1038 c 128,-1,31
 201 998 201 998 190.5 950.5 c 128,-1,32
 180 903 180 903 180 857 c 0,33,34
 180 787 180 787 212 731 c 128,-1,35
 244 675 244 675 283.5 618.5 c 128,-1,36
 323 562 323 562 355 503.5 c 128,-1,37
 387 445 387 445 387 369 c 1,38,39
 461 436 461 436 506 509 c 1,40,41
 431 515 431 515 380.5 576 c 128,-1,42
 330 637 330 637 330 711 c 0,43,44
 330 796 330 796 403 845.5 c 128,-1,45
 476 895 476 895 562 895 c 0,46,47
 656 895 656 895 708.5 849 c 128,-1,48
 761 803 761 803 761 711 c 0,49,50
 761 626 761 626 710 543.5 c 128,-1,51
 659 461 659 461 599.5 384.5 c 128,-1,52
 540 308 540 308 489.5 240.5 c 128,-1,53
 439 173 439 173 439 122 c 2,54,-1
 439 0 l 1,55,-1
 159 0 l 1,56,-1
 159 381 l 2,57,58
 159 425 159 425 139 478 c 128,-1,59
 119 531 119 531 94.5 589 c 128,-1,60
 70 647 70 647 49 705.5 c 128,-1,61
 28 764 28 764 28 821 c 0,62,63
 28 998 28 998 129 1114.5 c 128,-1,64
 230 1231 230 1231 412 1231 c 0,65,66
 483 1231 483 1231 542 1192.5 c 128,-1,67
 601 1154 601 1154 650 1110 c 1,68,69
 697 1132 697 1132 737.5 1169 c 128,-1,70
 778 1206 778 1206 821 1231 c 1,71,72
 906 1231 906 1231 990 1209 c 128,-1,73
 1074 1187 1074 1187 1141.5 1140 c 128,-1,74
 1209 1093 1209 1093 1252 1024.5 c 128,-1,75
 1295 956 1295 956 1295 860 c 2,76,-1
 1295 387 l 1,77,-1
 1462 259 l 1,78,-1
 1462 1107 l 1,79,-1
 1679 1221 l 1,80,-1
 1788 1221 l 1,81,-1
 1788 109 l 1,0,1
629 714 m 0,82,83
 629 754 629 754 609 784.5 c 128,-1,84
 589 815 589 815 543 815 c 0,85,86
 503 815 503 815 480.5 778.5 c 128,-1,87
 458 742 458 742 458 707 c 0,88,89
 458 668 458 668 480.5 627 c 128,-1,90
 503 586 503 586 547 586 c 256,91,92
 592 586 592 586 610.5 632 c 128,-1,93
 629 678 629 678 629 714 c 0,82,83
1026 186 m 0,94,95
 1026 201 1026 201 1024.5 224 c 128,-1,96
 1023 247 1023 247 1016.5 270.5 c 128,-1,97
 1010 294 1010 294 999.5 310 c 128,-1,98
 989 326 989 326 965 326 c 0,99,100
 918 326 918 326 900 280 c 128,-1,101
 882 234 882 234 882 195 c 0,102,103
 882 153 882 153 908 115 c 128,-1,104
 934 77 934 77 979 77 c 0,105,106
 1010 77 1010 77 1018 118 c 128,-1,107
 1026 159 1026 159 1026 186 c 0,94,95
EndSplineSet
EndChar

StartChar: uni0E13
Encoding: 231 3603 150
Width: 1917
VWidth: 3198
Flags: W
HStem: -12 79<391.556 526.677 1546.21 1693.39> 317 95<397.568 525.864> 864 106<189 262> 879 91<464.557 550> 1126 109<376.062 767.372>
VStem: 80 317<390 732.758> 80 289<103.829 310.151> 550 140<97.2796 291.311> 879 324<244 1006.47> 1373 150<98.4559 188.891> 1477 327<397.297 1117> 1721 141<92.5892 267.961>
LayerCount: 2
Fore
SplineSet
1862 183 m 0,0,1
 1862 73 1862 73 1790 30.5 c 128,-1,2
 1718 -12 1718 -12 1621 -12 c 0,3,4
 1574 -12 1574 -12 1529 -1.5 c 128,-1,5
 1484 9 1484 9 1448.5 35 c 128,-1,6
 1413 61 1413 61 1393 99 c 128,-1,7
 1373 137 1373 137 1373 189 c 1,8,9
 1251 116 1251 116 1151 0 c 1,10,-1
 879 0 l 1,11,-1
 879 787 l 2,12,13
 879 857 879 857 866.5 918 c 128,-1,14
 854 979 854 979 823.5 1025 c 128,-1,15
 793 1071 793 1071 740 1098.5 c 128,-1,16
 687 1126 687 1126 608 1126 c 0,17,18
 486 1126 486 1126 383.5 1084.5 c 128,-1,19
 281 1043 281 1043 189 970 c 1,20,-1
 550 970 l 1,21,-1
 550 879 l 1,22,23
 476 864 476 864 436.5 800 c 128,-1,24
 397 736 397 736 397 668 c 2,25,-1
 397 390 l 1,26,27
 431 412 431 412 483 412 c 0,28,29
 583 412 583 412 636.5 361.5 c 128,-1,30
 690 311 690 311 690 211 c 0,31,32
 690 89 690 89 610.5 38.5 c 128,-1,33
 531 -12 531 -12 422 -12 c 0,34,35
 384 -12 384 -12 324.5 2 c 128,-1,36
 265 16 265 16 210.5 43 c 128,-1,37
 156 70 156 70 118 110 c 128,-1,38
 80 150 80 150 80 198 c 2,39,-1
 80 595 l 2,40,41
 80 684 80 684 137.5 749.5 c 128,-1,42
 195 815 195 815 262 864 c 1,43,-1
 42 864 l 1,44,-1
 42 1029 l 1,45,46
 125 1081 125 1081 193.5 1119 c 128,-1,47
 262 1157 262 1157 332.5 1183 c 128,-1,48
 403 1209 403 1209 481 1222 c 128,-1,49
 559 1235 559 1235 659 1235 c 0,50,51
 751 1235 751 1235 847 1215.5 c 128,-1,52
 943 1196 943 1196 1023.5 1151.5 c 128,-1,53
 1104 1107 1104 1107 1153.5 1033 c 128,-1,54
 1203 959 1203 959 1203 848 c 2,55,-1
 1203 244 l 1,56,57
 1215 250 1215 250 1255 270 c 128,-1,58
 1295 290 1295 290 1338.5 314.5 c 128,-1,59
 1382 339 1382 339 1419 361.5 c 128,-1,60
 1456 384 1456 384 1459 387 c 0,61,62
 1474 409 1474 409 1475.5 428.5 c 128,-1,63
 1477 448 1477 448 1477 473 c 2,64,-1
 1477 1117 l 1,65,-1
 1666 1221 l 1,66,-1
 1804 1221 l 1,67,-1
 1804 470 l 2,68,69
 1804 436 1804 436 1770.5 407 c 128,-1,70
 1737 378 1737 378 1712 358 c 1,71,72
 1776 336 1776 336 1819 296 c 128,-1,73
 1862 256 1862 256 1862 183 c 0,0,1
1721 176 m 0,74,75
 1721 214 1721 214 1693.5 250.5 c 128,-1,76
 1666 287 1666 287 1621 287 c 0,77,78
 1571 287 1571 287 1547 250.5 c 128,-1,79
 1523 214 1523 214 1523 170 c 0,80,81
 1523 128 1523 128 1548.5 97.5 c 128,-1,82
 1574 67 1574 67 1618 67 c 256,83,84
 1663 67 1663 67 1692 99 c 128,-1,85
 1721 131 1721 131 1721 176 c 0,74,75
550 205 m 256,86,87
 550 253 550 253 522.5 285 c 128,-1,88
 495 317 495 317 445 317 c 0,89,90
 400 317 400 317 384.5 275.5 c 128,-1,91
 369 234 369 234 369 198 c 256,92,93
 369 162 369 162 387.5 114.5 c 128,-1,94
 406 67 406 67 451 67 c 0,95,96
 509 67 509 67 529.5 111.5 c 128,-1,97
 550 156 550 156 550 205 c 256,86,87
EndSplineSet
EndChar

StartChar: uni0E14
Encoding: 232 3604 151
Width: 1349
VWidth: 3198
Flags: W
HStem: 0 21G<134 412 909 1107.62> 815 83<448.023 581.935> 1123 108<337.68 779.126>
VStem: 28 134<661.982 967.891> 134 278<0 245.035> 134 227<372 506.121> 305 123<600.52 801.85> 601 128<598.408 794.053> 909 326<106 1001.72>
DStem2: 476 512 570.5 390.5 0.569455 0.822023<-179.181 0 85.5356 236.301>
LayerCount: 2
Fore
SplineSet
909 0 m 1,0,-1
 909 831 l 2,1,2
 909 918 909 918 881.5 973.5 c 128,-1,3
 854 1029 854 1029 805.5 1062.5 c 128,-1,4
 757 1096 757 1096 691.5 1109.5 c 128,-1,5
 626 1123 626 1123 550 1123 c 0,6,7
 483 1123 483 1123 412.5 1105 c 128,-1,8
 342 1087 342 1087 288 1050.5 c 128,-1,9
 234 1014 234 1014 198 956 c 128,-1,10
 162 898 162 898 162 821 c 256,11,12
 162 745 162 745 192.5 687 c 128,-1,13
 223 629 223 629 262 581.5 c 128,-1,14
 301 534 301 534 331 485 c 128,-1,15
 361 436 361 436 361 372 c 1,16,17
 390 406 390 406 420.5 439.5 c 128,-1,18
 451 473 451 473 476 512 c 1,19,20
 403 518 403 518 354 573.5 c 128,-1,21
 305 629 305 629 305 704 c 0,22,23
 305 796 305 796 370.5 847 c 128,-1,24
 436 898 436 898 522 898 c 0,25,26
 611 898 611 898 670 850.5 c 128,-1,27
 729 803 729 803 729 711 c 0,28,29
 729 626 729 626 679 545 c 128,-1,30
 629 464 629 464 570.5 390.5 c 128,-1,31
 512 317 512 317 462 253 c 128,-1,32
 412 189 412 189 412 134 c 2,33,-1
 412 0 l 1,34,-1
 134 0 l 1,35,-1
 134 381 l 2,36,37
 134 422 134 422 119 470 c 0,38,39
 92 553 92 553 60 632 c 128,-1,40
 28 711 28 711 28 796 c 0,41,42
 28 903 28 903 78 982.5 c 128,-1,43
 128 1062 128 1062 206 1118 c 128,-1,44
 284 1174 284 1174 380 1202.5 c 128,-1,45
 476 1231 476 1231 570 1231 c 0,46,47
 672 1231 672 1231 789 1218.5 c 128,-1,48
 906 1206 906 1206 1005 1163 c 128,-1,49
 1104 1120 1104 1120 1169.5 1039.5 c 128,-1,50
 1235 959 1235 959 1235 825 c 2,51,-1
 1235 106 l 1,52,-1
 1078 0 l 1,53,-1
 909 0 l 1,0,-1
601 714 m 0,54,55
 601 754 601 754 580 784.5 c 128,-1,56
 559 815 559 815 515 815 c 0,57,58
 473 815 473 815 450.5 778.5 c 128,-1,59
 428 742 428 742 428 707 c 0,60,61
 428 668 428 668 450.5 627 c 128,-1,62
 473 586 473 586 518 586 c 256,63,64
 562 586 562 586 581.5 632 c 128,-1,65
 601 678 601 678 601 714 c 0,54,55
EndSplineSet
EndChar

StartChar: uni0E15
Encoding: 233 3605 152
Width: 1386
VWidth: 3198
Flags: W
HStem: 0 21G<156 439 946 1150.32> 512 74<484.394 509> 815 80<478.486 611.166> 973 131<540.219 721.63> 1123 104<251.921 434.349>
VStem: 42 134<704.386 1044.52> 156 283<0 211.703> 156 244<361 496.162> 323 135<601.04 802.624> 629 139<597.932 794.794> 946 330<112 1062.49>
DStem2: 400 361 716.5 537 0.558098 0.829775<1.32487 186.129 269.53 419.777> 685 1124.5 766 1011 0.849629 0.527381<-62.6887 171.081>
LayerCount: 2
Fore
SplineSet
946 0 m 1,0,-1
 946 976 l 2,1,2
 946 1010 946 1010 935.5 1044 c 128,-1,3
 925 1078 925 1078 882 1084 c 1,4,5
 825 1049 825 1049 766 1011 c 128,-1,6
 707 973 707 973 634 973 c 0,7,8
 592 973 592 973 550.5 996.5 c 128,-1,9
 509 1020 509 1020 474 1047 c 128,-1,10
 439 1074 439 1074 410 1098.5 c 128,-1,11
 381 1123 381 1123 358 1123 c 0,12,13
 317 1123 317 1123 283.5 1102 c 128,-1,14
 250 1081 250 1081 225.5 1050.5 c 128,-1,15
 201 1020 201 1020 188.5 981.5 c 128,-1,16
 176 943 176 943 176 906 c 0,17,18
 176 796 176 796 210 726 c 128,-1,19
 244 656 244 656 285 598 c 128,-1,20
 326 540 326 540 361.5 488 c 128,-1,21
 397 436 397 436 400 361 c 1,22,23
 425 400 425 400 454 436.5 c 128,-1,24
 483 473 483 473 509 512 c 1,25,26
 436 515 436 515 379.5 572 c 128,-1,27
 323 629 323 629 323 704 c 0,28,29
 323 790 323 790 395 842.5 c 128,-1,30
 467 895 467 895 547 895 c 0,31,32
 629 895 629 895 698.5 849 c 128,-1,33
 768 803 768 803 768 711 c 0,34,35
 768 623 768 623 716.5 537 c 128,-1,36
 665 451 665 451 602.5 369 c 128,-1,37
 540 287 540 287 489.5 220 c 128,-1,38
 439 153 439 153 439 106 c 2,39,-1
 439 0 l 1,40,-1
 156 0 l 1,41,-1
 156 378 l 2,42,43
 156 439 156 439 139 494.5 c 128,-1,44
 122 550 122 550 99.5 604.5 c 128,-1,45
 77 659 77 659 59.5 717 c 128,-1,46
 42 775 42 775 42 836 c 0,47,48
 42 906 42 906 59.5 976 c 128,-1,49
 77 1046 77 1046 115 1101.5 c 128,-1,50
 153 1157 153 1157 212.5 1192 c 128,-1,51
 272 1227 272 1227 351 1227 c 0,52,53
 397 1227 397 1227 438 1208.5 c 128,-1,54
 479 1190 479 1190 514.5 1166 c 128,-1,55
 550 1142 550 1142 579 1123 c 128,-1,56
 608 1104 608 1104 623 1104 c 0,57,58
 653 1104 653 1104 685 1124.5 c 128,-1,59
 717 1145 717 1145 750.5 1169 c 128,-1,60
 784 1193 784 1193 819 1212 c 128,-1,61
 854 1231 854 1231 895 1231 c 0,62,63
 943 1231 943 1231 996 1218.5 c 128,-1,64
 1049 1206 1049 1206 1097 1180 c 128,-1,65
 1145 1154 1145 1154 1184.5 1119 c 128,-1,66
 1224 1084 1224 1084 1245 1037 c 0,67,68
 1260 998 1260 998 1268 950.5 c 128,-1,69
 1276 903 1276 903 1276 857 c 2,70,-1
 1276 112 l 1,71,-1
 1123 0 l 1,72,-1
 946 0 l 1,0,-1
629 714 m 0,73,74
 629 754 629 754 609 784.5 c 128,-1,75
 589 815 589 815 543 815 c 0,76,77
 503 815 503 815 480.5 778.5 c 128,-1,78
 458 742 458 742 458 707 c 0,79,80
 458 668 458 668 480.5 627 c 128,-1,81
 503 586 503 586 547 586 c 256,82,83
 592 586 592 586 610.5 632 c 128,-1,84
 629 678 629 678 629 714 c 0,73,74
EndSplineSet
EndChar

StartChar: uni0E16
Encoding: 234 3606 153
Width: 1460
VWidth: 3198
Flags: W
HStem: -9 82<416.705 552.162> 323 102<425.544 552.035> 845 111<198 272> 864 92<484.313 583> 1123 115<394.712 870.297>
VStem: 116 309<409 747.421> 116 278<114.292 316.233> 576 150<103.967 298.517> 1010 327<119 991.998>
LayerCount: 2
Fore
SplineSet
1010 0 m 1,0,-1
 1010 825 l 2,1,2
 1010 970 1010 970 917.5 1046.5 c 128,-1,3
 825 1123 825 1123 687 1123 c 0,4,5
 626 1123 626 1123 557.5 1115 c 128,-1,6
 489 1107 489 1107 423.5 1087.5 c 128,-1,7
 358 1068 358 1068 299.5 1036 c 128,-1,8
 241 1004 241 1004 198 956 c 1,9,-1
 583 956 l 1,10,-1
 583 864 l 1,11,12
 498 839 498 839 461.5 800 c 128,-1,13
 425 761 425 761 425 668 c 2,14,-1
 425 409 l 1,15,16
 451 425 451 425 483 425 c 0,17,18
 592 425 592 425 659 375.5 c 128,-1,19
 726 326 726 326 726 211 c 0,20,21
 726 77 726 77 642.5 34 c 128,-1,22
 559 -9 559 -9 445 -9 c 0,23,24
 397 -9 397 -9 339 6.5 c 128,-1,25
 281 22 281 22 232 52.5 c 128,-1,26
 183 83 183 83 149.5 128 c 128,-1,27
 116 173 116 173 116 230 c 2,28,-1
 116 647 l 2,29,30
 116 675 116 675 131.5 703.5 c 128,-1,31
 147 732 147 732 171 759.5 c 128,-1,32
 195 787 195 787 222.5 807.5 c 128,-1,33
 250 828 250 828 272 845 c 1,34,-1
 48 845 l 1,35,-1
 48 1017 l 1,36,37
 103 1053 103 1053 154 1089.5 c 128,-1,38
 205 1126 205 1126 262 1151 c 0,39,40
 358 1196 358 1196 468.5 1217 c 128,-1,41
 579 1238 579 1238 684 1238 c 0,42,43
 784 1238 784 1238 897 1226.5 c 128,-1,44
 1010 1215 1010 1215 1108 1175 c 128,-1,45
 1206 1135 1206 1135 1271.5 1060 c 128,-1,46
 1337 985 1337 985 1337 854 c 2,47,-1
 1337 119 l 1,48,-1
 1215 0 l 1,49,-1
 1010 0 l 1,0,-1
576 211 m 256,50,51
 576 259 576 259 549 291 c 128,-1,52
 522 323 522 323 470 323 c 0,53,54
 425 323 425 323 409.5 282 c 128,-1,55
 394 241 394 241 394 205 c 256,56,57
 394 170 394 170 412.5 121.5 c 128,-1,58
 431 73 431 73 476 73 c 0,59,60
 534 73 534 73 555 117.5 c 128,-1,61
 576 162 576 162 576 211 c 256,50,51
EndSplineSet
EndChar

StartChar: uni0E17
Encoding: 235 3607 154
Width: 1599
VWidth: 3198
Flags: W
HStem: 0 21G<305 638 1160 1368.17> 796 96<230.554 305> 1110 121<1079.39 1151.32> 1148 87<226.858 365.108>
VStem: 19 182<918.426 1116.35> 305 306<0 112.195 384 796> 384 227<899.491 1115.9> 1160 327<144 1108.27>
DStem2: 611 384 732 286 0.410107 0.912038<0 863.832>
LayerCount: 2
Fore
SplineSet
1120 1231 m 0,0,1
 1174 1231 1174 1231 1240 1221.5 c 128,-1,2
 1306 1212 1306 1212 1359.5 1184.5 c 128,-1,3
 1413 1157 1413 1157 1450 1112.5 c 128,-1,4
 1487 1068 1487 1068 1487 998 c 2,5,-1
 1487 144 l 1,6,-1
 1349 0 l 1,7,-1
 1160 0 l 1,8,-1
 1160 992 l 2,9,10
 1160 1026 1160 1026 1152.5 1068 c 128,-1,11
 1145 1110 1145 1110 1101 1110 c 1,12,13
 1034 976 1034 976 1005 909 c 0,14,-1
 860 573 l 0,15,16
 796 428 796 428 732 286 c 128,-1,17
 668 144 668 144 608 0 c 1,18,-1
 305 0 l 1,19,-1
 305 796 l 1,20,21
 253 796 253 796 201.5 805.5 c 128,-1,22
 150 815 150 815 108.5 839.5 c 128,-1,23
 67 864 67 864 43 905 c 128,-1,24
 19 946 19 946 19 1007 c 0,25,26
 19 1074 19 1074 44.5 1117 c 128,-1,27
 70 1160 70 1160 113 1187.5 c 128,-1,28
 156 1215 156 1215 210.5 1225 c 128,-1,29
 265 1235 265 1235 323 1235 c 0,30,31
 495 1235 495 1235 553 1140.5 c 128,-1,32
 611 1046 611 1046 611 889 c 2,33,-1
 611 384 l 1,34,35
 675 534 675 534 708 608 c 0,36,-1
 876 976 l 2,37,-1
 892 1014 l 2,38,39
 921 1078 921 1078 941.5 1119 c 128,-1,40
 962 1160 962 1160 986 1186 c 128,-1,41
 1010 1212 1010 1212 1040.5 1221.5 c 128,-1,42
 1071 1231 1071 1231 1120 1231 c 0,0,1
384 1026 m 0,43,44
 384 1062 384 1062 366 1105 c 128,-1,45
 348 1148 348 1148 305 1148 c 0,46,47
 253 1148 253 1148 227 1106.5 c 128,-1,48
 201 1065 201 1065 201 1020 c 0,49,50
 201 979 201 979 231.5 935.5 c 128,-1,51
 262 892 262 892 308 892 c 0,52,53
 333 892 333 892 348.5 906.5 c 128,-1,54
 364 921 364 921 372.5 940 c 128,-1,55
 381 959 381 959 382.5 983 c 128,-1,56
 384 1007 384 1007 384 1026 c 0,43,44
EndSplineSet
EndChar

StartChar: uni0E18
Encoding: 236 3608 155
Width: 1297
VWidth: 3198
Flags: W
HStem: 0 128<412 854> 819.5 114.5<317 720.611> 940 195<928.89 1222> 1207 20G<1249 1260>
VStem: 95 317<128 586> 854 327<128.69 738.155>
LayerCount: 2
Fore
SplineSet
1260 959 m 1,0,-1
 1222 950 l 0,1,2
 1184 940 1184 940 1157 940 c 0,3,4
 1056 940 1056 940 952 966 c 128,-1,5
 848 992 848 992 754 1034 c 0,6,7
 701 1059 701 1059 648 1089.5 c 128,-1,8
 595 1120 595 1120 534 1120 c 0,9,10
 451 1120 451 1120 396.5 1063.5 c 128,-1,11
 342 1007 342 1007 317 934 c 1,12,13
 381 934 381 934 486.5 929.5 c 128,-1,14
 592 925 592 925 703.5 911.5 c 128,-1,15
 815 898 815 898 912.5 874.5 c 128,-1,16
 1010 851 1010 851 1062 815 c 0,17,18
 1181 732 1181 732 1181 592 c 2,19,-1
 1181 147 l 1,20,21
 1145 80 1145 80 1073 40 c 128,-1,22
 1001 0 1001 0 925 0 c 2,23,-1
 95 0 l 1,24,-1
 95 586 l 1,25,-1
 275 701 l 1,26,-1
 412 701 l 1,27,-1
 412 128 l 1,28,-1
 854 128 l 1,29,-1
 854 595 l 2,30,31
 854 640 854 640 849.5 670.5 c 128,-1,32
 845 701 845 701 812 736 c 0,33,34
 784 768 784 768 694 785.5 c 128,-1,35
 604 803 604 803 491 810.5 c 128,-1,36
 378 818 378 818 265.5 819.5 c 128,-1,37
 153 821 153 821 80 821 c 2,38,-1
 25 821 l 1,39,40
 45 1043 45 1043 166 1139 c 128,-1,41
 287 1235 287 1235 498 1235 c 1,42,-1
 1001 1135 l 1,43,44
 1023 1135 1023 1135 1058 1146 c 128,-1,45
 1093 1157 1093 1157 1130.5 1172 c 128,-1,46
 1168 1187 1168 1187 1203 1202.5 c 128,-1,47
 1238 1218 1238 1218 1260 1227 c 1,48,-1
 1260 959 l 1,0,-1
EndSplineSet
EndChar

StartChar: uni0E19
Encoding: 237 3609 156
Width: 1605
VWidth: 3198
Flags: W
HStem: -9 86<1193.83 1319.56> 800 92<239.074 325.704> 1148 83<234.486 371.428>
VStem: 28 180<919.551 1116.65> 326 321<226 806> 390 257<899.169 1133.86> 1001 170<89.6172 236.496> 1138 327<517.658 1123> 1343 180<92.8655 325.047>
LayerCount: 2
Fore
SplineSet
1523 205 m 0,0,1
 1523 86 1523 86 1454 38.5 c 128,-1,2
 1385 -9 1385 -9 1276 -9 c 0,3,4
 1154 -9 1154 -9 1077.5 47 c 128,-1,5
 1001 103 1001 103 1001 237 c 1,6,7
 898 186 898 186 801 126.5 c 128,-1,8
 704 67 704 67 611 0 c 1,9,-1
 326 0 l 1,10,-1
 326 806 l 1,11,12
 308 800 308 800 294 800 c 0,13,14
 183 800 183 800 105.5 842.5 c 128,-1,15
 28 885 28 885 28 1014 c 0,16,17
 28 1074 28 1074 54 1115.5 c 128,-1,18
 80 1157 80 1157 119.5 1183 c 128,-1,19
 159 1209 159 1209 210.5 1220 c 128,-1,20
 262 1231 262 1231 314 1231 c 0,21,22
 381 1231 381 1231 442 1221.5 c 128,-1,23
 503 1212 503 1212 547.5 1184.5 c 128,-1,24
 592 1157 592 1157 619.5 1108 c 128,-1,25
 647 1059 647 1059 647 979 c 2,26,-1
 647 226 l 1,27,28
 675 244 675 244 745 279 c 128,-1,29
 815 314 815 314 892.5 352 c 128,-1,30
 970 390 970 390 1031.5 425.5 c 128,-1,31
 1093 461 1093 461 1107 479 c 0,32,33
 1132 518 1132 518 1135 555 c 128,-1,34
 1138 592 1138 592 1138 634 c 2,35,-1
 1138 1123 l 1,36,-1
 1352 1221 l 1,37,-1
 1465 1221 l 1,38,-1
 1465 623 l 2,39,40
 1465 562 1465 562 1422 519 c 128,-1,41
 1379 476 1379 476 1343 439 c 1,42,43
 1426 419 1426 419 1474.5 353 c 128,-1,44
 1523 287 1523 287 1523 205 c 0,0,1
1343 205 m 0,45,46
 1343 256 1343 256 1327.5 307 c 128,-1,47
 1312 358 1312 358 1248 358 c 0,48,49
 1224 358 1224 358 1208.5 340.5 c 128,-1,50
 1193 323 1193 323 1185.5 297.5 c 128,-1,51
 1178 272 1178 272 1174.5 246 c 128,-1,52
 1171 220 1171 220 1171 201 c 0,53,54
 1171 170 1171 170 1191.5 123.5 c 128,-1,55
 1212 77 1212 77 1251 77 c 0,56,57
 1298 77 1298 77 1320.5 119.5 c 128,-1,58
 1343 162 1343 162 1343 205 c 0,45,46
390 1026 m 0,59,60
 390 1062 390 1062 372.5 1105 c 128,-1,61
 355 1148 355 1148 311 1148 c 0,62,63
 259 1148 259 1148 233.5 1106.5 c 128,-1,64
 208 1065 208 1065 208 1020 c 0,65,66
 208 979 208 979 238.5 935.5 c 128,-1,67
 269 892 269 892 314 892 c 0,68,69
 339 892 339 892 355.5 906.5 c 128,-1,70
 372 921 372 921 379.5 940 c 128,-1,71
 387 959 387 959 388.5 983 c 128,-1,72
 390 1007 390 1007 390 1026 c 0,59,60
EndSplineSet
EndChar

StartChar: uni0E1A
Encoding: 238 3610 157
Width: 1588
VWidth: 3198
Flags: W
HStem: 0 128<201 326 650 1145> 800 92<238.732 325.655> 1148 83<234.311 370.843>
VStem: 28 180<919.552 1116.77> 326 324<128 809> 390 260<899.169 1118.51> 1145 329<159 1110>
LayerCount: 2
Fore
SplineSet
1474 159 m 1,0,-1
 1471 156 l 1,1,2
 1440 95 1440 95 1364 47.5 c 128,-1,3
 1288 0 1288 0 1212 0 c 2,4,-1
 201 0 l 1,5,-1
 201 128 l 1,6,-1
 326 128 l 1,7,-1
 326 809 l 1,8,9
 305 800 305 800 275 800 c 0,10,11
 170 800 170 800 99 854.5 c 128,-1,12
 28 909 28 909 28 1020 c 0,13,14
 28 1078 28 1078 55.5 1117.5 c 128,-1,15
 83 1157 83 1157 122.5 1183 c 128,-1,16
 162 1209 162 1209 213.5 1220 c 128,-1,17
 265 1231 265 1231 314 1231 c 0,18,19
 372 1231 372 1231 430.5 1218.5 c 128,-1,20
 489 1206 489 1206 537.5 1177 c 128,-1,21
 586 1148 586 1148 618 1102 c 128,-1,22
 650 1056 650 1056 650 989 c 2,23,-1
 650 128 l 1,24,-1
 1145 128 l 1,25,-1
 1145 1110 l 1,26,-1
 1349 1218 l 1,27,-1
 1474 1218 l 1,28,-1
 1474 159 l 1,0,-1
390 1026 m 0,29,30
 390 1062 390 1062 372.5 1105 c 128,-1,31
 355 1148 355 1148 311 1148 c 0,32,33
 259 1148 259 1148 233.5 1106.5 c 128,-1,34
 208 1065 208 1065 208 1020 c 0,35,36
 208 979 208 979 238.5 935.5 c 128,-1,37
 269 892 269 892 314 892 c 0,38,39
 339 892 339 892 355.5 906.5 c 128,-1,40
 372 921 372 921 379.5 940 c 128,-1,41
 387 959 387 959 388.5 983 c 128,-1,42
 390 1007 390 1007 390 1026 c 0,29,30
EndSplineSet
EndChar

StartChar: uni0E1B
Encoding: 239 3611 158
Width: 1588
VWidth: 3198
Flags: W
HStem: 0 128<201 326 650 1145> 800 92<238.732 325.655> 1148 83<234.311 370.843>
VStem: 28 180<919.552 1116.77> 326 324<128 809> 390 260<899.169 1118.51> 1145 329<159 1599>
LayerCount: 2
Fore
SplineSet
1474 159 m 1,0,-1
 1471 156 l 1,1,2
 1440 95 1440 95 1364 47.5 c 128,-1,3
 1288 0 1288 0 1212 0 c 2,4,-1
 201 0 l 1,5,-1
 201 128 l 1,6,-1
 326 128 l 1,7,-1
 326 809 l 1,8,9
 305 800 305 800 275 800 c 0,10,11
 170 800 170 800 99 854.5 c 128,-1,12
 28 909 28 909 28 1020 c 0,13,14
 28 1078 28 1078 55.5 1117.5 c 128,-1,15
 83 1157 83 1157 122.5 1183 c 128,-1,16
 162 1209 162 1209 213.5 1220 c 128,-1,17
 265 1231 265 1231 314 1231 c 0,18,19
 372 1231 372 1231 430.5 1218.5 c 128,-1,20
 489 1206 489 1206 537.5 1177 c 128,-1,21
 586 1148 586 1148 618 1102 c 128,-1,22
 650 1056 650 1056 650 989 c 2,23,-1
 650 128 l 1,24,-1
 1145 128 l 1,25,-1
 1145 1599 l 1,26,-1
 1349 1708 l 1,27,-1
 1474 1708 l 1,28,-1
 1474 159 l 1,0,-1
390 1026 m 0,29,30
 390 1062 390 1062 372.5 1105 c 128,-1,31
 355 1148 355 1148 311 1148 c 0,32,33
 259 1148 259 1148 233.5 1106.5 c 128,-1,34
 208 1065 208 1065 208 1020 c 0,35,36
 208 979 208 979 238.5 935.5 c 128,-1,37
 269 892 269 892 314 892 c 0,38,39
 339 892 339 892 355.5 906.5 c 128,-1,40
 372 921 372 921 379.5 940 c 128,-1,41
 387 959 387 959 388.5 983 c 128,-1,42
 390 1007 390 1007 390 1026 c 0,29,30
EndSplineSet
EndChar

StartChar: uni0E1C
Encoding: 240 3612 159
Width: 1463
VWidth: 3198
Flags: W
HStem: 0 21G<42 430.5 943.857 1257> 806 86<364.383 490.612> 1148 83<349.568 486.419>
VStem: 42 322<244 806> 42 281<918.55 1120.16> 506 175<900.18 1138.56> 1029 323<265 1117>
DStem2: 793 634 684 448 0.518978 -0.854788<102.422 437.895>
LayerCount: 2
Fore
SplineSet
1352 137 m 1,0,1
 1352 83 1352 83 1315.5 51 c 128,-1,2
 1279 19 1279 19 1235 0 c 1,3,-1
 956 0 l 1,4,-1
 684 448 l 1,5,6
 611 336 611 336 539 224 c 128,-1,7
 467 112 467 112 394 0 c 1,8,-1
 42 0 l 1,9,-1
 42 1010 l 2,10,11
 42 1071 42 1071 79 1112.5 c 128,-1,12
 116 1154 116 1154 171 1181.5 c 128,-1,13
 226 1209 226 1209 287 1220 c 128,-1,14
 348 1231 348 1231 397 1231 c 0,15,16
 451 1231 451 1231 502 1221.5 c 128,-1,17
 553 1212 553 1212 593.5 1186 c 128,-1,18
 634 1160 634 1160 657.5 1119 c 128,-1,19
 681 1078 681 1078 681 1014 c 0,20,21
 681 953 681 953 650.5 911.5 c 128,-1,22
 620 870 620 870 574 847.5 c 128,-1,23
 528 825 528 825 471.5 815.5 c 128,-1,24
 415 806 415 806 364 806 c 1,25,-1
 364 244 l 1,26,27
 439 336 439 336 504.5 435 c 128,-1,28
 570 534 570 534 634 634 c 1,29,-1
 793 634 l 1,30,-1
 1029 265 l 1,31,-1
 1029 1117 l 1,32,-1
 1209 1221 l 1,33,-1
 1352 1221 l 1,34,-1
 1352 137 l 1,0,1
506 1026 m 0,35,36
 506 1062 506 1062 488 1105 c 128,-1,37
 470 1148 470 1148 425 1148 c 0,38,39
 375 1148 375 1148 349 1106.5 c 128,-1,40
 323 1065 323 1065 323 1020 c 0,41,42
 323 979 323 979 353.5 935.5 c 128,-1,43
 384 892 384 892 428 892 c 0,44,45
 454 892 454 892 470 906.5 c 128,-1,46
 486 921 486 921 494.5 940 c 128,-1,47
 503 959 503 959 504.5 983 c 128,-1,48
 506 1007 506 1007 506 1026 c 0,35,36
EndSplineSet
EndChar

StartChar: uni0E1D
Encoding: 241 3613 160
Width: 1463
VWidth: 3198
Flags: W
HStem: 0 21G<42 430.5 943.857 1257> 806 86<364.383 490.612> 1148 83<349.568 486.419>
VStem: 42 322<244 806> 42 281<918.55 1120.16> 506 175<900.18 1138.56> 1029 323<265 1602>
DStem2: 793 634 684 448 0.518978 -0.854788<102.422 437.895>
LayerCount: 2
Fore
SplineSet
1352 137 m 1,0,1
 1352 83 1352 83 1315.5 51 c 128,-1,2
 1279 19 1279 19 1235 0 c 1,3,-1
 956 0 l 1,4,-1
 684 448 l 1,5,6
 611 336 611 336 539 224 c 128,-1,7
 467 112 467 112 394 0 c 1,8,-1
 42 0 l 1,9,-1
 42 1010 l 2,10,11
 42 1071 42 1071 79 1112.5 c 128,-1,12
 116 1154 116 1154 171 1181.5 c 128,-1,13
 226 1209 226 1209 287 1220 c 128,-1,14
 348 1231 348 1231 397 1231 c 0,15,16
 451 1231 451 1231 502 1221.5 c 128,-1,17
 553 1212 553 1212 593.5 1186 c 128,-1,18
 634 1160 634 1160 657.5 1119 c 128,-1,19
 681 1078 681 1078 681 1014 c 0,20,21
 681 953 681 953 650.5 911.5 c 128,-1,22
 620 870 620 870 574 847.5 c 128,-1,23
 528 825 528 825 471.5 815.5 c 128,-1,24
 415 806 415 806 364 806 c 1,25,-1
 364 244 l 1,26,27
 439 336 439 336 504.5 435 c 128,-1,28
 570 534 570 534 634 634 c 1,29,-1
 793 634 l 1,30,-1
 1029 265 l 1,31,-1
 1029 1602 l 1,32,-1
 1209 1708 l 1,33,-1
 1352 1708 l 1,34,-1
 1352 137 l 1,0,1
506 1026 m 0,35,36
 506 1062 506 1062 488 1105 c 128,-1,37
 470 1148 470 1148 425 1148 c 0,38,39
 375 1148 375 1148 349 1106.5 c 128,-1,40
 323 1065 323 1065 323 1020 c 0,41,42
 323 979 323 979 353.5 935.5 c 128,-1,43
 384 892 384 892 428 892 c 0,44,45
 454 892 454 892 470 906.5 c 128,-1,46
 486 921 486 921 494.5 940 c 128,-1,47
 503 959 503 959 504.5 983 c 128,-1,48
 506 1007 506 1007 506 1026 c 0,35,36
EndSplineSet
EndChar

